amiritypewriter-regular.sfdir
StartChar: quotedbl
Encoding: 34 34 2
Width: 872
VWidth: 0
GlyphClass: 2
Flags: W
LayerCount: 2
Fore
SplineSet
708 1216 m 1,0,-1
 708 650 l 1,1,-1
 583 650 l 1,2,-1
 583 1217 l 1,3,-1
 708 1216 l 1,0,-1
284 1221 m 1,4,-1
 284 655 l 1,5,-1
 159 655 l 1,6,-1
 159 1221 l 1,7,-1
 284 1221 l 1,4,-1
EndSplineSet
EndChar
StartChar: parenleft
Encoding: 40 40 5
Width: 2048
VWidth: 0
Flags: W
LayerCount: 2
Fore
SplineSet
1252.13476562 1855.91601562 m 1,0,-1
 1150.328125 1929.21679688 l 1,1,2
 440.961914062 944.185546875 440.961914062 944.185546875 1151.20703125 5.5107421875 c 1,3,-1
 1251.25585938 81.2138671875 l 1,4,5
 596.873046875 946.040039062 596.873046875 946.040039062 1252.13476562 1855.91601562 c 1,0,-1
EndSplineSet
EndChar
StartChar: parenright
Encoding: 41 41 4
Width: 872
VWidth: 0
Flags: W
LayerCount: 2
Fore
SplineSet
225.194335938 77.4931640625 m 1,0,-1
 327.967773438 5.5400390625 l 1,1,2
 1024.14355469 999.952148438 1024.14355469 999.952148438 301.46875 1929.05566406 c 1,3,-1
 202.4453125 1852.03417969 l 1,4,5
 868.271484375 995.990234375 868.271484375 995.990234375 225.194335938 77.4931640625 c 1,0,-1
EndSplineSet
EndChar
StartChar: plus
Encoding: 43 43 28
Width: 872
VWidth: 0
Flags: W
LayerCount: 2
Fore
SplineSet
-0.5234375 336.731445312 m 1,0,-1
 0.1943359375 211.282226562 l 1,1,-1
 872.5234375 216.27734375 l 1,2,-1
 871.805664062 341.7265625 l 1,3,-1
 -0.5234375 336.731445312 l 1,0,-1
-0.1279296875 274.006835938 m 1,4,-1
 872.171875 279.016601562 l 1,5,-1
499.793945312 714.104492188 m 1,6,-1
 374.344726562 714.104492188 l 1,7,-1
 374.344726562 -156.100585938 l 1,8,-1
 499.793945312 -156.100585938 l 1,9,-1
 499.793945312 714.104492188 l 1,6,-1
437.069335938 714.119140625 m 1,10,-1
 437.069335938 -156.0859375 l 1,11,-1
EndSplineSet
EndChar
StartChar: slash
Encoding: 47 47 27
Width: 872
VWidth: 0
GlyphClass: 2
Flags: W
LayerCount: 2
Fore
SplineSet
798.739257812 877.522460938 m 1,0,-1
 690.985351562 941.770507812 l 1,1,-1
 73.2607421875 -94.2255859375 l 1,2,-1
 181.014648438 -158.473632812 l 1,3,-1
 798.739257812 877.522460938 l 1,0,-1
744.862304688 909.646484375 m 1,4,-1
 127.137695312 -126.349609375 l 1,5,-1
EndSplineSet
EndChar
StartChar: colon
Encoding: 58 58 44
Width: 199
VWidth: 0
Flags: W
LayerCount: 2
Fore
SplineSet
193.637695312 251.375 m 128,-1,1
 193.55859375 348.186523438 193.55859375 348.186523438 96.8115234375 348.186523438 c 128,-1,2
 0 348.107421875 0 348.107421875 0 251.375 c 128,-1,3
 0.0791015625 154.563476562 0.0791015625 154.563476562 96.8115234375 154.563476562 c 128,-1,0
 193.637695312 154.563476562 193.637695312 154.563476562 193.637695312 251.375 c 128,-1,1
130.913085938 251.375 m 0,4,5
 130.913085938 217.288085938 130.913085938 217.288085938 96.826171875 217.288085938 c 128,-1,6
 62.7509765625 217.288085938 62.7509765625 217.288085938 62.724609375 251.360351562 c 128,-1,7
 62.724609375 285.435546875 62.724609375 285.435546875 96.796875 285.461914062 c 128,-1,8
 130.88671875 285.461914062 130.88671875 285.461914062 130.913085938 251.389648438 c 0,9,-1
136.860351562 775.73046875 m 1,10,-1
 199.584960938 775.715820312 l 1,11,12
 199.505859375 872.52734375 199.505859375 872.52734375 102.758789062 872.52734375 c 128,-1,13
 5.947265625 872.448242188 5.947265625 872.448242188 5.947265625 775.715820312 c 128,-1,14
 5.947265625 678.889648438 5.947265625 678.889648438 102.758789062 678.889648438 c 128,-1,15
 199.584960938 678.96875 199.584960938 678.96875 199.584960938 775.715820312 c 1,16,-1
 136.860351562 775.73046875 l 1,10,-1
136.860351562 775.715820312 m 0,17,18
 136.860351562 741.640625 136.860351562 741.640625 102.7734375 741.614257812 c 128,-1,19
 68.671875 741.614257812 68.671875 741.614257812 68.671875 775.701171875 c 128,-1,20
 68.671875 809.776367188 68.671875 809.776367188 102.744140625 809.802734375 c 128,-1,21
 136.833984375 809.802734375 136.833984375 809.802734375 136.860351562 775.73046875 c 0,22,-1
EndSplineSet
EndChar
StartChar: equal
Encoding: 61 61 60
Width: 702
VWidth: 0
Flags: W
LayerCount: 2
Fore
SplineSet
0.05859375 583.586914062 m 1,0,-1
 0 458.137695312 l 1,1,-1
 695.56640625 457.815429688 l 1,2,-1
 695.625 583.264648438 l 1,3,-1
 0.05859375 583.586914062 l 1,0,-1
0.0732421875 520.833007812 m 1,4,-1
 695.639648438 520.510742188 l 1,5,-1
6.9580078125 257.249023438 m 1,6,-1
 6.8994140625 131.799804688 l 1,7,-1
 702.36328125 131.4921875 l 1,8,-1
 702.421875 256.926757812 l 1,9,-1
 6.9580078125 257.249023438 l 1,6,-1
6.884765625 194.495117188 m 1,10,-1
 702.436523438 194.172851562 l 1,11,-1
EndSplineSet
EndChar
StartChar: multiply
Encoding: 215 215 41
Width: 872
VWidth: 0
GlyphClass: 2
Flags: W
LayerCount: 2
Fore
SplineSet
790.412109375 702.649414062 m 1,0,-1
 524.014575942 439.404481832 l 1,1,-1
 787.013671875 176.287109375 l 1,2,-1
 698.287109375 87.5908203125 l 1,3,-1
 434.778584796 351.224527088 l 1,4,-1
 171.426757812 90.9892578125 l 1,5,-1
 83.2431640625 180.227539062 l 1,6,-1
 346.091713663 439.953529752 l 1,7,-1
 81.587890625 704.583007812 l 1,8,-1
 170.313476562 793.264648438 l 1,9,-1
 435.328616169 528.130325647 l 1,10,-1
 702.2421875 791.873046875 l 1,11,-1
 790.412109375 702.649414062 l 1,0,-1
EndSplineSet
EndChar
StartChar: uni060C
Encoding: 1548 1548 17
Width: 872
VWidth: 0
Flags: W
LayerCount: 2
Fore
SplineSet
483.590820312 595.427734375 m 0,0,1
 324.365234375 452.604492188 324.365234375 452.604492188 307.70703125 308.2890625 c 0,2,3
 294.224609375 191.52734375 294.224609375 191.52734375 395.588867188 152.744140625 c 128,-1,4
 496.952148438 113.961914062 496.952148438 113.961914062 551.442382812 216.311523438 c 1,5,6
 474.4453125 207.930664062 474.4453125 207.930664062 463.682617188 280.5625 c 0,7,8
 450.936523438 366.572265625 450.936523438 366.572265625 539.178710938 375.94921875 c 0,9,10
 553.7421875 377.49609375 553.7421875 377.49609375 570.104492188 375.393554688 c 0,11,12
 673.786132812 362.073242188 673.786132812 362.073242188 633.72265625 194.734375 c 0,13,14
 613.849609375 86.947265625 613.849609375 86.947265625 512.58984375 43.3349609375 c 128,-1,15
 411.330078125 -0.2763671875 411.330078125 -0.2763671875 318.219726562 60.6162109375 c 128,-1,16
 225.109375 121.5078125 225.109375 121.5078125 227.155273438 272.107421875 c 0,17,18
 229.7109375 460.88671875 229.7109375 460.88671875 444.303710938 634.3046875 c 0,19,20
 481.04296875 665.4375 481.04296875 665.4375 500.15234375 648.528320312 c 128,-1,21
 519.262695312 631.619140625 519.262695312 631.619140625 483.590820312 595.427734375 c 0,0,1
EndSplineSet
EndChar
StartChar: uni061F
Encoding: 1567 1567 1
Width: 872
VWidth: 0
GlyphClass: 2
Flags: W
LayerCount: 2
Fore
SplineSet
611.495117188 45.076171875 m 128,-1,1
 611.491821289 118.0546875 611.491821289 118.0546875 538.501953125 118.0546875 c 128,-1,2
 465.58203125 118.028320312 465.58203125 118.028320312 465.58203125 45.076171875 c 128,-1,3
 465.608398438 -27.8583984375 465.608398438 -27.8583984375 538.551757813 -27.8657226562 c 128,-1,0
 611.495117188 -27.873046875 611.495117188 -27.873046875 611.495117188 45.076171875 c 128,-1,1
652.157720454 1115.23174933 m 1,4,5
 604.063476562 1095.31850502 604.063476562 1095.31850502 604.063476562 1027.32714844 c 0,6,7
 604.08984375 931.233398438 604.08984375 931.233398438 700.199707031 931.239257812 c 128,-1,8
 796.309570312 931.245117188 796.309570312 931.245117188 796.309570312 1027.32714844 c 0,9,10
 794.131835938 1060.43261719 l 0,11,12
 750.73828125 1359.3359375 750.73828125 1359.3359375 464.7890625 1359.1796875 c 128,-1,13
 178.83984375 1359.02441406 178.83984375 1359.02441406 94.302734375 1093.0546875 c 2,14,-1
 93.599609375 1090.828125 l 1,15,-1
 93.0576171875 1088.55761719 l 2,16,17
 0.96484375 700.80859375 0.96484375 700.80859375 467.193359375 576.799804688 c 1,18,-1
 467.193359375 324.099609375 l 1,19,-1
 592.642578125 324.099609375 l 1,20,-1
 592.642578125 678.298828125 l 1,21,-1
 542.178710938 688.34765625 l 2,22,23
 145.71484375 767.383789062 145.71484375 767.383789062 215.108398438 1059.56835938 c 1,24,25
 272.173871529 1235.12375206 272.173871529 1235.12375206 457.186523438 1234.87304688 c 0,26,27
 605.376796063 1234.6729088 605.376796063 1234.6729088 652.157720454 1115.23174933 c 1,4,5
EndSplineSet
EndChar
StartChar: uni0621
Encoding: 1569 1569 8
Width: 2048
VWidth: 0
Flags: W
LayerCount: 2
Fore
SplineSet
1101.83105469 1597.8984375 m 0,0,1
 1015.640625 1674.42675781 1015.640625 1674.42675781 956.357421875 1617.20507812 c 0,2,3
 928.9375 1587.64941406 928.9375 1587.64941406 967.622070312 1546.89160156 c 128,-1,4
 1006.30761719 1506.13378906 1006.30761719 1506.13378906 1063.87695312 1511.58984375 c 0,5,6
 1128.046875 1531.96191406 1128.046875 1531.96191406 1223.32519531 1572.20507812 c 0,7,8
 1240.85644531 1577.75878906 1240.85644531 1577.75878906 1238.10546875 1563.47460938 c 2,9,-1
 1223.35449219 1473.04980469 l 2,10,11
 1221.74023438 1461.27636719 1221.74023438 1461.27636719 1210.72753906 1456.04296875 c 0,12,13
 1088.97851562 1409.99023438 1088.97851562 1409.99023438 809.521484375 1282.92773438 c 1,14,15
 812.779296875 1351.39160156 812.779296875 1351.39160156 895.200195312 1435.79882812 c 1,16,17
 815.09375 1505.85351562 815.09375 1505.85351562 845.76171875 1585.22753906 c 0,18,19
 1013.41992188 1874.74511719 1013.41992188 1874.74511719 1148.03222656 1706.95605469 c 0,20,21
 1162.19335938 1692.51367188 1162.19335938 1692.51367188 1161.69921875 1677.45410156 c 0,22,23
 1150.65820312 1635.65136719 1150.65820312 1635.65136719 1133.92480469 1611.91210938 c 128,-1,24
 1117.19140625 1588.171875 1117.19140625 1588.171875 1101.83105469 1597.8984375 c 0,0,1
EndSplineSet
EndChar
StartChar: uni0629
Encoding: 1577 1577 9
Width: 2048
VWidth: 0
Flags: W
LayerCount: 2
Fore
SplineSet
999.591796875 1004.94433594 m 1,0,-1
 1055.91503906 1013.55761719 l 1,1,2
 1283.33203125 614.368164062 1283.33203125 614.368164062 1255.6171875 505.4765625 c 0,3,4
 1234.41308594 438.290039062 1234.41308594 438.290039062 1124.88867188 409.135742188 c 128,-1,5
 1015.36328125 379.982421875 1015.36328125 379.982421875 920.286132812 410.879882812 c 128,-1,6
 825.208984375 441.77734375 825.208984375 441.77734375 839.762695312 521.560546875 c 0,7,8
 859.7421875 610.630859375 859.7421875 610.630859375 971.803710938 852.131835938 c 1,9,-1
 941.188476562 887.15625 l 1,10,-1
 999.591796875 1004.94433594 l 1,0,-1
1028.24414062 796.877929688 m 1,11,12
 971.481445312 709.008789062 971.481445312 709.008789062 923.053710938 567.234375 c 1,13,14
 1050.6015625 497.237304688 1050.6015625 497.237304688 1175.98828125 597.336914062 c 1,15,16
 1102.88183594 717.044921875 1102.88183594 717.044921875 1028.24414062 796.877929688 c 1,11,12
885.216796875 1365.54492188 m 1,17,-1
 973.385742188 1272.36621094 l 1,18,-1
 876.881835938 1179.09960938 l 1,19,-1
 789.372070312 1270.9453125 l 1,20,-1
 885.216796875 1365.54492188 l 1,17,-1
1094.33789062 1372.75195312 m 1,21,-1
 1182.50683594 1279.57324219 l 1,22,-1
 1085.98828125 1186.30664062 l 1,23,-1
 998.493164062 1278.15234375 l 1,24,-1
 1094.33789062 1372.75195312 l 1,21,-1
EndSplineSet
EndChar
StartChar: uni062B
Encoding: 1579 1579 42
Width: 1193
VWidth: 0
Flags: W
LayerCount: 2
Fore
SplineSet
1164.54101562 460.53515625 m 1,0,-1
 1193.92578125 431.370117188 l 1,1,2
 1186.23828125 358.685546875 1186.23828125 358.685546875 1143.50585938 302.961914062 c 0,3,4
 1058.953125 177.94140625 1058.953125 177.94140625 750.96484375 118.908203125 c 128,-1,5
 442.975585938 59.875 442.975585938 59.875 170.249023438 143.176757812 c 0,6,7
 8.5439453125 198.16796875 8.5439453125 198.16796875 0.634765625 344.490234375 c 0,8,9
 -3.34375 417.720703125 -3.34375 417.720703125 17.6123046875 491.384765625 c 0,10,11
 38.99609375 520.600585938 38.99609375 520.600585938 67.87109375 485.349609375 c 1,12,13
 51.3193359375 384.0625 51.3193359375 384.0625 99.4970703125 339.59765625 c 0,14,15
 192.329101562 262.361328125 192.329101562 262.361328125 449.55078125 254.60546875 c 128,-1,16
 706.772460938 246.849609375 706.772460938 246.849609375 949.23828125 326.267578125 c 0,17,18
 1094.04882812 379.206054688 1094.04882812 379.206054688 1164.54101562 460.53515625 c 1,0,-1
600.576171875 1121.60449219 m 1,19,-1
 688.73046875 1028.42578125 l 1,20,-1
 592.2265625 935.173828125 l 1,21,-1
 504.716796875 1027.00488281 l 1,22,-1
 600.576171875 1121.60449219 l 1,19,-1
487.592773438 943.743164062 m 1,23,-1
 575.76171875 850.564453125 l 1,24,-1
 479.2578125 757.297851562 l 1,25,-1
 391.748046875 849.143554688 l 1,26,-1
 487.592773438 943.743164062 l 1,23,-1
696.713867188 950.950195312 m 1,27,-1
 784.8828125 857.771484375 l 1,28,-1
 688.364257812 764.51953125 l 1,29,-1
 600.869140625 856.350585938 l 1,30,-1
 696.713867188 950.950195312 l 1,27,-1
EndSplineSet
EndChar
StartChar: uni062E
Encoding: 1582 1582 40
Width: 1046
VWidth: 0
Flags: W
LayerCount: 2
Fore
SplineSet
956.938476562 244.67578125 m 1,0,-1
 910.693359375 98.484375 l 1,1,2
 526.15625 62.9296875 526.15625 62.9296875 378.881835938 -42.4775390625 c 0,3,4
 14.6640625 -279.59375 14.6640625 -279.59375 188.627929688 -601.0078125 c 0,5,6
 296.559570312 -790.98046875 296.559570312 -790.98046875 534.442382812 -835.692382812 c 128,-1,7
 772.325195312 -880.404296875 772.325195312 -880.404296875 971.147460938 -788.21484375 c 2,8,-1
 1010.46386719 -772.672851562 l 2,9,10
 1038.85058594 -759.565429688 1038.85058594 -759.565429688 1044.82910156 -774.985351562 c 128,-1,11
 1050.80761719 -790.405273438 1050.80761719 -790.405273438 1034.63378906 -811.872070312 c 0,12,13
 987.9140625 -875.524414062 987.9140625 -875.524414062 901.098632812 -924.225585938 c 0,14,15
 658.678710938 -1059.09472656 658.678710938 -1059.09472656 361.638671875 -934.91015625 c 128,-1,16
 64.5986328125 -810.724609375 64.5986328125 -810.724609375 52.6171875 -480.7734375 c 0,17,18
 47.935546875 -103.741210938 47.935546875 -103.741210938 366.811523438 107.844726562 c 1,19,20
 79.15625 154.16796875 79.15625 154.16796875 16.3037109375 115.989257812 c 1,21,-1
 0 132 l 1,22,23
 68.7939453125 275.32421875 68.7939453125 275.32421875 186.533203125 269.607421875 c 0,24,25
 525.395507812 224.108398438 525.395507812 224.108398438 956.938476562 244.67578125 c 1,0,-1
484.936523438 786.0234375 m 1,26,-1
 573.090820312 692.830078125 l 1,27,-1
 476.586914062 599.578125 l 1,28,-1
 389.091796875 691.423828125 l 1,29,-1
 484.936523438 786.0234375 l 1,26,-1
EndSplineSet
EndChar
StartChar: uni0630
Encoding: 1584 1584 58
Width: 600
VWidth: 0
Flags: W
LayerCount: 2
Fore
SplineSet
329.958984375 552.83984375 m 0,0,1
 324.401367188 563.72265625 324.401367188 563.72265625 329.724609375 573.81640625 c 2,2,-1
 400.798828125 712.346679688 l 2,3,4
 407.509765625 724.89453125 407.509765625 724.89453125 415.59375 712.625 c 0,5,6
 574.811523438 444.502929688 574.811523438 444.502929688 600.720703125 206.31640625 c 0,7,8
 600.840820312 116.130859375 600.840820312 116.130859375 547.37109375 20.5888671875 c 0,9,10
 508.225585938 -42.3486328125 508.225585938 -42.3486328125 347.463867188 -65.0390625 c 128,-1,11
 186.702148438 -87.728515625 186.702148438 -87.728515625 73.9482421875 -58.46875 c 0,12,13
 -20.478515625 -37.1650390625 -20.478515625 -37.1650390625 5.671875 154.094726562 c 0,14,15
 8.4970703125 176.497070312 8.4970703125 176.497070312 28.3017578125 176.37109375 c 128,-1,16
 48.1064453125 176.24609375 48.1064453125 176.24609375 51.0087890625 155.999023438 c 0,17,18
 59.28125 109.703125 59.28125 109.703125 237.2890625 110.850585938 c 128,-1,19
 415.296875 111.998046875 415.296875 111.998046875 521.633789062 156.174804688 c 1,20,21
 466.912109375 317.661132812 466.912109375 317.661132812 329.958984375 552.83984375 c 0,0,1
279.202148438 1081.6484375 m 1,22,-1
 367.37109375 988.469726562 l 1,23,-1
 270.852539062 895.217773438 l 1,24,-1
 183.357421875 987.063476562 l 1,25,-1
 279.202148438 1081.6484375 l 1,22,-1
EndSplineSet
EndChar
StartChar: uni0631
Encoding: 1585 1585 25
Width: 662
VWidth: 0
Flags: W
LayerCount: 2
Fore
SplineSet
539.27734375 269.91015625 m 2,0,1
 546.087890625 281.84375 546.087890625 281.84375 552.28515625 273.513671875 c 0,2,3
 691.779296875 62.0693359375 691.779296875 62.0693359375 655.388671875 -179.330078125 c 128,-1,4
 618.997070312 -420.728515625 618.997070312 -420.728515625 435.844726562 -545.436523438 c 0,5,6
 361.80859375 -596.23046875 361.80859375 -596.23046875 39.12109375 -533.161132812 c 1,7,-1
 0 -500.872070312 l 2,8,9
 5.908203125 -490.936523438 5.908203125 -490.936523438 32.0458984375 -487.70703125 c 0,10,11
 500.236328125 -441.24609375 500.236328125 -441.24609375 600.068359375 -104.005859375 c 1,12,13
 556.22265625 15.607421875 556.22265625 15.607421875 497.338867188 112.439453125 c 0,14,-1
 539.27734375 269.91015625 l 2,0,1
EndSplineSet
EndChar
StartChar: uni0632
Encoding: 1586 1586 26
Width: 776
VWidth: 0
Flags: W
LayerCount: 2
Fore
SplineSet
675.415039062 221.599609375 m 2,0,1
 680.328125 229.05859375 680.328125 229.05859375 683.984375 221.995117188 c 0,2,3
 816.163085938 8.4443359375 816.163085938 8.4443359375 758.565429688 -219.397460938 c 128,-1,4
 700.967773438 -447.23828125 700.967773438 -447.23828125 457.094726562 -568.668945312 c 1,5,6
 274.23046875 -640.311523438 274.23046875 -640.311523438 50.46875 -543.942382812 c 0,7,8
 -3.638671875 -520.469726562 -3.638671875 -520.469726562 0.2626953125 -496.862304688 c 128,-1,9
 4.1650390625 -473.254882812 4.1650390625 -473.254882812 59.0966796875 -480.587890625 c 0,10,11
 260.153320312 -484.806640625 260.153320312 -484.806640625 451.384765625 -399.282226562 c 128,-1,12
 642.615234375 -313.758789062 642.615234375 -313.758789062 688.247070312 -198.25390625 c 1,13,14
 676.083007812 -52.5322265625 676.083007812 -52.5322265625 594.614257812 85.4130859375 c 0,15,16
 591.334960938 90.9248046875 591.334960938 90.9248046875 595.258789062 97 c 2,17,-1
 675.415039062 221.599609375 l 2,0,1
646.938476562 544.026367188 m 1,18,-1
 735.092773438 450.84765625 l 1,19,-1
 638.588867188 357.595703125 l 1,20,-1
 551.09375 449.44140625 l 1,21,-1
 646.938476562 544.026367188 l 1,18,-1
EndSplineSet
EndChar
StartChar: uni0633
Encoding: 1587 1587 1
Width: 2048
VWidth: 0
Flags: W
LayerCount: 2
Fore
SplineSet
1636.85644531 1102.4296875 m 1,0,-1
 1642.80371094 1097.20019531 l 1,1,2
 1665.66601562 1012.73242188 1665.66601562 1012.73242188 1635.54785156 921.904296875 c 128,-1,3
 1605.42871094 831.076171875 1605.42871094 831.076171875 1557.4765625 832.810546875 c 0,4,5
 1421.5234375 842.231445312 1421.5234375 842.231445312 1407.69628906 917.786132812 c 1,6,7
 1355.19140625 847.086914062 1355.19140625 847.086914062 1280.35742188 839.51953125 c 0,8,9
 1234.33984375 837.76171875 1234.33984375 837.76171875 1205.00585938 839.4609375 c 1,10,11
 1185.06542969 616.681640625 1185.06542969 616.681640625 1118.33105469 538.860351562 c 0,12,13
 995.083984375 372.534179688 995.083984375 372.534179688 702.740234375 376.409179688 c 128,-1,14
 410.396484375 380.284179688 410.396484375 380.284179688 395.5625 654.641601562 c 0,15,16
 391.120117188 831.842773438 391.120117188 831.842773438 472.056640625 989.958984375 c 0,17,18
 489.306640625 1018.64648438 489.306640625 1018.64648438 508.985351562 1010.15332031 c 128,-1,19
 528.6640625 1001.66113281 528.6640625 1001.66113281 517.833007812 970.901367188 c 0,20,21
 474.723632812 848.518554688 474.723632812 848.518554688 467.940429688 784.045898438 c 0,22,23
 440.983398438 528.134765625 440.983398438 528.134765625 707.345703125 515.44140625 c 128,-1,24
 973.708007812 502.748046875 973.708007812 502.748046875 1120.67480469 675.676757812 c 1,25,26
 1150.45605469 790.655273438 1150.45605469 790.655273438 1053.95117188 970.139648438 c 1,27,-1
 1105.55761719 1087.48828125 l 2,28,29
 1111.5625 1109.70996094 1111.5625 1109.70996094 1125.74316406 1087.10742188 c 0,30,31
 1179.40332031 992.997070312 1179.40332031 992.997070312 1205.25488281 975.413085938 c 0,32,33
 1297.01855469 950.357421875 1297.01855469 950.357421875 1369.66894531 995.671875 c 0,34,35
 1381.15332031 1009.99707031 1381.15332031 1009.99707031 1397.50976562 1038.453125 c 128,-1,36
 1413.86621094 1066.90917969 1413.86621094 1066.90917969 1424.90820312 1081.93652344 c 0,37,38
 1436.68359375 1099.24511719 1436.68359375 1099.24511719 1453.05859375 1091.19628906 c 128,-1,39
 1469.43457031 1083.14648438 1469.43457031 1083.14648438 1462.29101562 1059.20214844 c 2,40,-1
 1437.22753906 991.423828125 l 1,41,42
 1494.54882812 943.84765625 1494.54882812 943.84765625 1588.70703125 947.405273438 c 1,43,44
 1591.96484375 981.009765625 1591.96484375 981.009765625 1578.21875 1012.56152344 c 0,45,46
 1573.24023438 1022.39257812 1573.24023438 1022.39257812 1581.6171875 1030.62304688 c 2,47,-1
 1632.60839844 1100.73046875 l 1,48,-1
 1636.85644531 1102.4296875 l 1,0,-1
EndSplineSet
EndChar
StartChar: uni0638
Encoding: 1592 1592 43
Width: 1035
VWidth: 0
Flags: W
LayerCount: 2
Fore
SplineSet
299.17578125 1287.40039062 m 1,0,1
 379.647460938 1371.52734375 379.647460938 1371.52734375 387.344726562 1373.95800781 c 1,2,3
 461.591796875 479.159179688 461.591796875 479.159179688 403.501953125 235.3203125 c 1,4,5
 661.572265625 520.404296875 661.572265625 520.404296875 882.579101562 518.09375 c 0,6,7
 964.947265625 520.384765625 964.947265625 520.384765625 1011.23046875 437.611328125 c 128,-1,8
 1057.51269531 354.836914062 1057.51269531 354.836914062 1016.84667969 270.59375 c 0,9,10
 866.96484375 -50.4873046875 866.96484375 -50.4873046875 140.899414062 35.3984375 c 0,11,12
 109.536132812 40.0908203125 109.536132812 40.0908203125 6.3388671875 162.83984375 c 0,13,14
 -1.8505859375 171.002929688 -1.8505859375 171.002929688 0.5400390625 178.854492188 c 128,-1,15
 2.9306640625 186.705078125 2.9306640625 186.705078125 15.494140625 183.904296875 c 0,16,17
 152.28515625 154.611328125 152.28515625 154.611328125 328.926757812 147.37109375 c 0,18,19
 333.102539062 152.666015625 333.102539062 152.666015625 340.91796875 161.859375 c 128,-1,20
 348.733398438 171.051757812 348.733398438 171.051757812 351.44140625 174.353515625 c 0,21,22
 329.979492188 842.166992188 329.979492188 842.166992188 299.17578125 1287.40039062 c 1,0,1
833.067382812 391.047851562 m 0,23,24
 622.3125 392.635742188 622.3125 392.635742188 372.256835938 143.123046875 c 1,25,26
 797.328125 137.572265625 797.328125 137.572265625 950.5625 285.037109375 c 1,27,28
 934.133789062 390.404296875 934.133789062 390.404296875 833.067382812 391.047851562 c 0,23,24
681.456054688 907.551757812 m 1,29,-1
 769.610351562 814.373046875 l 1,30,-1
 673.106445312 721.106445312 l 1,31,-1
 585.611328125 812.952148438 l 1,32,-1
 681.456054688 907.551757812 l 1,29,-1
EndSplineSet
EndChar
StartChar: uni0641
Encoding: 1601 1601 36
Width: 1210
VWidth: 0
Flags: W
LayerCount: 2
Fore
SplineSet
898.565429688 540.251953125 m 0,0,1
 943.298828125 687.665039062 943.298828125 687.665039062 1037.52636719 690.7265625 c 128,-1,2
 1131.75292969 693.787109375 1131.75292969 693.787109375 1179.5078125 574.79296875 c 0,3,4
 1224.00585938 479.96875 1224.00585938 479.96875 1205.45898438 349.342773438 c 128,-1,5
 1186.91210938 218.715820312 1186.91210938 218.715820312 1115.93359375 183.85546875 c 0,6,7
 793.197265625 12.580078125 793.197265625 12.580078125 426.779296875 31.3212890625 c 128,-1,8
 60.361328125 50.0625 60.361328125 50.0625 3.12109375 282.29296875 c 0,9,10
 -9.765625 360.166015625 -9.765625 360.166015625 30.5576171875 517.869140625 c 0,11,12
 49.396484375 540.859375 49.396484375 540.859375 76.685546875 511.936523438 c 1,13,14
 41.6240234375 295.029296875 41.6240234375 295.029296875 213.721679688 206.23828125 c 0,15,16
 367.223632812 133.189453125 367.223632812 133.189453125 685.872070312 181.123046875 c 128,-1,17
 1004.52050781 229.057617188 1004.52050781 229.057617188 1139.6640625 333.635742188 c 1,18,19
 1147.89257812 359.528320312 1147.89257812 359.528320312 1140.92382812 390.017578125 c 1,20,21
 1036.23925781 327.575195312 1036.23925781 327.575195312 947.905273438 369.668945312 c 128,-1,22
 859.5703125 411.763671875 859.5703125 411.763671875 898.565429688 540.251953125 c 0,0,1
1121.82226562 493.875 m 1,23,24
 1093.92675781 563.430664062 1093.92675781 563.430664062 1037.2421875 578.59375 c 128,-1,25
 980.557617188 593.7578125 980.557617188 593.7578125 944.092773438 518.030273438 c 0,26,27
 937.21484375 496.600585938 937.21484375 496.600585938 964.640625 478.359375 c 128,-1,28
 992.067382812 460.1171875 992.067382812 460.1171875 1038.15917969 461.866210938 c 128,-1,29
 1084.25 463.615234375 1084.25 463.615234375 1121.82226562 493.875 c 1,23,24
1073.70214844 1089.890625 m 1,30,-1
 1161.85644531 996.711914062 l 1,31,-1
 1065.35253906 903.459960938 l 1,32,-1
 977.857421875 995.305664062 l 1,33,-1
 1073.70214844 1089.890625 l 1,30,-1
EndSplineSet
EndChar
StartChar: uni0642
Encoding: 1602 1602 37
Width: 920
VWidth: 0
Flags: W
LayerCount: 2
Fore
SplineSet
713.7890625 638.572265625 m 0,0,1
 814.491210938 643.030273438 814.491210938 643.030273438 874.614257812 489.619140625 c 128,-1,2
 934.736328125 336.208007812 934.736328125 336.208007812 916.391601562 196.877929688 c 0,3,4
 896.387695312 81.814453125 896.387695312 81.814453125 796.044921875 -8.048828125 c 128,-1,5
 695.702148438 -97.912109375 695.702148438 -97.912109375 565.012695312 -129.091796875 c 128,-1,6
 434.323242188 -160.271484375 434.323242188 -160.271484375 306.649414062 -148.211914062 c 128,-1,7
 178.975585938 -136.15234375 178.975585938 -136.15234375 90.52734375 -43.5751953125 c 128,-1,8
 2.0791015625 49.0009765625 2.0791015625 49.0009765625 0 202.854492188 c 0,9,10
 11.2392578125 332.006835938 11.2392578125 332.006835938 71.8212890625 436.8046875 c 0,11,12
 101.850585938 462.365234375 101.850585938 462.365234375 120.8203125 429.626953125 c 1,13,14
 16.8798828125 182.6171875 16.8798828125 182.6171875 171.943359375 55.8720703125 c 0,15,16
 308.188476562 -45.267578125 308.188476562 -45.267578125 539.110351562 16.181640625 c 128,-1,17
 770.032226562 77.6318359375 770.032226562 77.6318359375 858.442382812 240.471679688 c 0,18,19
 857.141601562 257.416015625 857.141601562 257.416015625 847.529296875 277.092773438 c 1,20,21
 707.272460938 189.774414062 707.272460938 189.774414062 619.748046875 234.559570312 c 128,-1,22
 532.223632812 279.344726562 532.223632812 279.344726562 556.684570312 409.631835938 c 0,23,24
 585.08984375 615.041015625 585.08984375 615.041015625 713.7890625 638.572265625 c 0,0,1
818.525390625 393.826171875 m 1,25,26
 777.0859375 491.732421875 777.0859375 491.732421875 718.2109375 509.303710938 c 128,-1,27
 659.3359375 526.874023438 659.3359375 526.874023438 610.72265625 404.329101562 c 0,28,29
 599.423828125 363.514648438 599.423828125 363.514648438 659.834960938 351.217773438 c 0,30,31
 752.146484375 332.427734375 752.146484375 332.427734375 818.525390625 393.826171875 c 1,25,26
619.233398438 908.059570312 m 1,32,-1
 707.387695312 814.880859375 l 1,33,-1
 610.883789062 721.614257812 l 1,34,-1
 523.374023438 813.459960938 l 1,35,-1
 619.233398438 908.059570312 l 1,32,-1
828.33984375 915.266601562 m 1,36,-1
 916.508789062 822.087890625 l 1,37,-1
 819.990234375 728.821289062 l 1,38,-1
 732.495117188 820.666992188 l 1,39,-1
 828.33984375 915.266601562 l 1,36,-1
EndSplineSet
EndChar
StartChar: uni0643
Encoding: 1603 1603 12
Width: 2048
VWidth: 0
Flags: W
LayerCount: 2
Fore
SplineSet
1494.15136719 1883.76269531 m 0,0,1
 1562.06835938 1243.54101562 1562.06835938 1243.54101562 1564.9765625 833.1328125 c 0,2,3
 1568.94042969 665.268554688 1568.94042969 665.268554688 1486.08007812 605.891601562 c 1,4,5
 1343.453125 549.470703125 1343.453125 549.470703125 1094.81835938 537.091796875 c 128,-1,6
 846.18359375 524.711914062 846.18359375 524.711914062 685.616210938 565.828125 c 0,7,8
 368.943359375 646.724609375 368.943359375 646.724609375 546.822265625 995.73046875 c 0,9,10
 560.625 1018.88085938 560.625 1018.88085938 578.41015625 1009.796875 c 128,-1,11
 596.1953125 1000.71289062 596.1953125 1000.71289062 587.486328125 976.775390625 c 0,12,13
 482.822265625 753.127929688 482.822265625 753.127929688 722.442382812 713.89453125 c 0,14,15
 1193.77539062 636.702148438 1193.77539062 636.702148438 1475.97265625 754.353515625 c 1,16,17
 1413.56054688 1507.52929688 1413.56054688 1507.52929688 1390.05957031 1754.88574219 c 0,18,19
 1389.37792969 1771.53710938 1389.37792969 1771.53710938 1398.90722656 1789.04589844 c 2,20,-1
 1471.32910156 1890.29589844 l 2,21,22
 1490.265625 1913.95117188 1490.265625 1913.95117188 1494.15136719 1883.76269531 c 0,0,1
1106.61230469 1357.56152344 m 0,23,24
 1048.67675781 1331.18847656 1048.67675781 1331.18847656 1015.93847656 1305.57421875 c 1,25,-1
 1180.953125 1270.4765625 l 2,26,27
 1275.01464844 1248.81542969 1275.01464844 1248.81542969 1193.40429688 1151.09179688 c 0,28,29
 1137.00097656 1093.91894531 1137.00097656 1093.91894531 1115.06445312 1082.90332031 c 0,30,31
 1056.02148438 1054.43652344 1056.02148438 1054.43652344 931.329101562 1076.44335938 c 0,32,33
 906.845703125 1082.72460938 906.845703125 1082.72460938 931.28515625 1093.43554688 c 0,34,35
 950.8046875 1100.07128906 950.8046875 1100.07128906 1026.18457031 1118.85058594 c 128,-1,36
 1101.56542969 1137.62988281 1101.56542969 1137.62988281 1143.8046875 1163.92382812 c 1,37,38
 1124.77246094 1168.31542969 1124.77246094 1168.31542969 1078.0859375 1178.02148438 c 0,39,40
 981.639648438 1198.07421875 981.639648438 1198.07421875 961.63671875 1205.7890625 c 0,41,42
 881.01953125 1236.85058594 881.01953125 1236.85058594 976.724609375 1351.49707031 c 0,43,44
 1051.015625 1435.19824219 1051.015625 1435.19824219 1121.58300781 1482.51269531 c 0,45,46
 1136.99511719 1489.82519531 1136.99511719 1489.82519531 1138.79101562 1487.50195312 c 128,-1,47
 1140.58691406 1485.1796875 1140.58691406 1485.1796875 1139.62988281 1473.2109375 c 2,48,-1
 1123.82421875 1380.53027344 l 2,49,50
 1121.67675781 1367.81640625 1121.67675781 1367.81640625 1106.61230469 1357.56152344 c 0,23,24
EndSplineSet
EndChar
StartChar: uni0644
Encoding: 1604 1604 7
Width: 2048
VWidth: 0
Flags: W
LayerCount: 2
Fore
SplineSet
1477.421875 2057.41992188 m 2,0,-1
 1486.31347656 954.744140625 l 2,1,2
 1490.42675781 713.952148438 1490.42675781 713.952148438 1376.83105469 639.729492188 c 0,3,4
 1209.65234375 507.548828125 1209.65234375 507.548828125 1015.31347656 474.744140625 c 128,-1,5
 820.973632812 441.939453125 820.973632812 441.939453125 674.790039062 542.185546875 c 0,6,7
 481.427734375 682.619140625 481.427734375 682.619140625 618.217773438 1109.90039062 c 0,8,9
 643.024414062 1193.79296875 643.024414062 1193.79296875 674.08984375 1130.93164062 c 1,10,-1
 675.2734375 1097.80078125 l 1,11,12
 621.176757812 882.830078125 621.176757812 882.830078125 661.342773438 774.465820312 c 0,13,14
 746.530273438 610.635742188 746.530273438 610.635742188 994.40625 646.505859375 c 128,-1,15
 1242.28125 682.376953125 1242.28125 682.376953125 1390.41015625 834.524414062 c 1,16,-1
 1374.16503906 1941.15527344 l 2,17,18
 1373.14257812 1966.16113281 1373.14257812 1966.16113281 1382.99804688 1975.31542969 c 2,19,-1
 1456.70898438 2059.71972656 l 2,20,21
 1475.61621094 2081.58984375 1475.61621094 2081.58984375 1477.421875 2057.41992188 c 2,0,-1
EndSplineSet
EndChar
StartChar: uni0645
Encoding: 1605 1605 11
Width: 2048
VWidth: 0
Flags: W
LayerCount: 2
Fore
SplineSet
915.505859375 1384.57324219 m 1,0,1
 989.268554688 1418.44140625 989.268554688 1418.44140625 1099.09472656 1434.52441406 c 1,2,3
 1061.49902344 1515.79394531 1061.49902344 1515.79394531 982.9765625 1512 c 0,4,5
 942.733398438 1508.75097656 942.733398438 1508.75097656 915.505859375 1384.57324219 c 1,0,1
843.538085938 1343.03027344 m 1,6,7
 855.735351562 1438.41113281 855.735351562 1438.41113281 897.327148438 1525.15429688 c 0,8,9
 939.625 1611.92382812 939.625 1611.92382812 988.381835938 1629.12890625 c 0,10,11
 1057.22265625 1654.92480469 1057.22265625 1654.92480469 1156.16503906 1571.765625 c 0,12,13
 1208.50390625 1527.29296875 1208.50390625 1527.29296875 1251.52636719 1471.37988281 c 0,14,15
 1264.42871094 1454.87304688 1264.42871094 1454.87304688 1262.27832031 1440.54492188 c 0,16,17
 1240.07617188 1312.27148438 1240.07617188 1312.27148438 1234.31445312 1295.71582031 c 0,18,19
 1228.58007812 1279.93945312 1228.58007812 1279.93945312 1209.93945312 1283.51367188 c 0,20,21
 997.053710938 1281.25488281 997.053710938 1281.25488281 861.965820312 1199.05078125 c 0,22,23
 851.220703125 1186.15234375 851.220703125 1186.15234375 855.520507812 1170.36914062 c 0,24,25
 861.63671875 1090.29980469 861.63671875 1090.29980469 918.595703125 806.205078125 c 128,-1,26
 975.5546875 522.109375 975.5546875 522.109375 964.446289062 438.5625 c 0,27,28
 959.86328125 411.677734375 959.86328125 411.677734375 943.275390625 411.79296875 c 128,-1,29
 926.6875 411.907226562 926.6875 411.907226562 923.137695312 438.15234375 c 0,30,31
 909.514648438 580.139648438 909.514648438 580.139648438 862.185546875 765.837890625 c 0,32,33
 774.712890625 1102.83203125 774.712890625 1102.83203125 786.907226562 1186.71679688 c 0,34,35
 803.38671875 1299.3046875 803.38671875 1299.3046875 843.538085938 1343.03027344 c 1,6,7
EndSplineSet
EndChar
StartChar: uni0646
Encoding: 1606 1606 10
Width: 2048
VWidth: 0
Flags: W
LayerCount: 2
Fore
SplineSet
1400.82421875 909.978515625 m 2,0,1
 1410.55664062 929.033203125 1410.55664062 929.033203125 1417.90429688 910.65234375 c 0,2,3
 1509.30273438 648.276367188 1509.30273438 648.276367188 1457.99707031 464.197265625 c 1,4,5
 1376.55664062 249.377929688 1376.55664062 249.377929688 1021.40625 215.087890625 c 128,-1,6
 666.254882812 180.796875 666.254882812 180.796875 585.462890625 416.12109375 c 0,7,8
 534.19921875 594.583007812 534.19921875 594.583007812 671.932617188 814.543945312 c 0,9,10
 694.6328125 830.219726562 694.6328125 830.219726562 717.38671875 791.282226562 c 0,11,12
 708.916992188 777.368164062 708.916992188 777.368164062 696.924804688 753.168945312 c 128,-1,13
 684.93359375 728.96875 684.93359375 728.96875 669.064453125 661.744140625 c 128,-1,14
 653.1953125 594.51953125 653.1953125 594.51953125 662.381835938 536.296875 c 0,15,16
 697.565429688 372.779296875 697.565429688 372.779296875 948.438476562 368.693359375 c 128,-1,17
 1199.31152344 364.607421875 1199.31152344 364.607421875 1400.31152344 531.4921875 c 1,18,19
 1375.90332031 670.19140625 1375.90332031 670.19140625 1327.27441406 777.498046875 c 0,20,21
 1322.15820312 787.155273438 1322.15820312 787.155273438 1327.49414062 796.848632812 c 2,22,-1
 1400.82421875 909.978515625 l 2,0,1
1062.85546875 1252.06347656 m 1,23,-1
 1151.00976562 1158.88476562 l 1,24,-1
 1054.50585938 1065.6328125 l 1,25,-1
 966.99609375 1157.46386719 l 1,26,-1
 1062.85546875 1252.06347656 l 1,23,-1
EndSplineSet
EndChar
StartChar: uni0647
Encoding: 1607 1607 39
Width: 412
VWidth: 0
Flags: W
LayerCount: 2
Fore
SplineSet
110.888671875 356.970703125 m 2,0,1
 110.9453125 357.078125 110.9453125 357.078125 136.364257812 408.174804688 c 128,-1,2
 161.784179688 459.272460938 161.784179688 459.272460938 170.947265625 474.568359375 c 2,3,-1
 215.9765625 480.588867188 l 1,4,5
 447.255859375 178.459960938 447.255859375 178.459960938 406.34765625 -18.1025390625 c 0,6,7
 382.87109375 -113.42578125 382.87109375 -113.42578125 193.681640625 -111.201171875 c 128,-1,8
 4.4921875 -108.975585938 4.4921875 -108.975585938 0 16.21875 c 0,9,10
 2.1162109375 59.298828125 2.1162109375 59.298828125 137.724609375 323.030273438 c 1,11,-1
 110.888671875 356.970703125 l 2,0,1
188.540039062 275.994140625 m 1,12,13
 124.293945312 190.51953125 124.293945312 190.51953125 88.5791015625 96.931640625 c 0,14,15
 76.978515625 64.7021484375 76.978515625 64.7021484375 94.1015625 53.3525390625 c 0,16,17
 228.094726562 -39.2412109375 228.094726562 -39.2412109375 333.471679688 61.0869140625 c 0,18,19
 341.7734375 69.52734375 341.7734375 69.52734375 336.899414062 82.78125 c 0,20,21
 284.763671875 186.142578125 284.763671875 186.142578125 188.540039062 275.994140625 c 1,12,13
EndSplineSet
EndChar
StartChar: uni0648
Encoding: 1608 1608 27
Width: 716
VWidth: 0
Flags: W
LayerCount: 2
Fore
SplineSet
331.322265625 102.009765625 m 0,0,1
 363.997070312 356.649414062 363.997070312 356.649414062 513.634765625 346.833007812 c 128,-1,2
 663.2734375 337.016601562 663.2734375 337.016601562 709.999023438 58.26953125 c 0,3,4
 752.8046875 -294.090820312 752.8046875 -294.090820312 526.439453125 -482.418945312 c 0,5,6
 385.041015625 -600.046875 385.041015625 -600.046875 24.3203125 -483.620117188 c 0,7,8
 -3.826171875 -474.19921875 -3.826171875 -474.19921875 0.6025390625 -457.728515625 c 128,-1,9
 5.03125 -441.258789062 5.03125 -441.258789062 30.091796875 -442.868164062 c 0,10,11
 199.348632812 -452.91796875 199.348632812 -452.91796875 333.197265625 -411.637695312 c 0,12,13
 554.161132812 -343.509765625 554.161132812 -343.509765625 632.58203125 -104.606445312 c 0,14,15
 650.098632812 -14.31640625 650.098632812 -14.31640625 619.471679688 34.7587890625 c 1,16,17
 564.935546875 -97.462890625 564.935546875 -97.462890625 438.999023438 -71.7353515625 c 128,-1,18
 313.0625 -46.0078125 313.0625 -46.0078125 331.322265625 102.009765625 c 0,0,1
592.533203125 123.938476562 m 1,19,20
 558.913085938 205.103515625 558.913085938 205.103515625 494.47265625 209.767578125 c 128,-1,21
 430.033203125 214.430664062 430.033203125 214.430664062 401.971679688 129.680664062 c 0,22,23
 403.301757812 98.037109375 403.301757812 98.037109375 433.4296875 76.14453125 c 128,-1,24
 463.557617188 54.2529296875 463.557617188 54.2529296875 509.590820312 63.6171875 c 128,-1,25
 555.625 72.9814453125 555.625 72.9814453125 592.533203125 123.938476562 c 1,19,20
EndSplineSet
EndChar
StartChar: uni0649
Encoding: 1609 1609 13
Width: 2048
VWidth: 0
Flags: W
LayerCount: 2
Fore
SplineSet
1196.296875 741.536132812 m 0,0,1
 1191.19238281 725.725585938 1191.19238281 725.725585938 1203.60253906 712.15234375 c 128,-1,2
 1216.01269531 698.580078125 1216.01269531 698.580078125 1243.96679688 686.983398438 c 128,-1,3
 1271.92089844 675.38671875 1271.92089844 675.38671875 1301.7265625 665.834960938 c 128,-1,4
 1331.53125 656.283203125 1331.53125 656.283203125 1372.65917969 643.0390625 c 128,-1,5
 1413.78710938 629.793945312 1413.78710938 629.793945312 1441.1015625 618.401367188 c 0,6,7
 1573.55371094 557.947265625 1573.55371094 557.947265625 1444.69042969 386.912109375 c 1,8,9
 1162.91796875 84.7314453125 1162.91796875 84.7314453125 900.607421875 87.7412109375 c 128,-1,10
 638.295898438 90.7509765625 638.295898438 90.7509765625 551.35546875 274.133789062 c 0,11,12
 447.008789062 494.232421875 447.008789062 494.232421875 627.659179688 784.294921875 c 0,13,14
 645.669921875 814.325195312 645.669921875 814.325195312 668.44921875 803.612304688 c 128,-1,15
 691.228515625 792.899414062 691.228515625 792.899414062 676.072265625 759.846679688 c 0,16,17
 540.708984375 437.9140625 540.708984375 437.9140625 700.125 322.971679688 c 0,18,19
 823.168945312 235.067382812 823.168945312 235.067382812 1034.83984375 275.29296875 c 128,-1,20
 1246.51171875 315.517578125 1246.51171875 315.517578125 1389.890625 452.581054688 c 1,21,-1
 1317.98046875 493.939453125 l 1,22,23
 1112.95898438 579.76171875 1112.95898438 579.76171875 1117.6640625 671.282226562 c 1,24,25
 1163.17480469 838.384765625 1163.17480469 838.384765625 1280.98242188 969.360351562 c 128,-1,26
 1398.79101562 1100.33691406 1398.79101562 1100.33691406 1499.68066406 1066.58496094 c 0,27,28
 1576.140625 1048.54980469 1576.140625 1048.54980469 1486.36816406 945.129882812 c 0,29,30
 1460.01074219 914.766601562 1460.01074219 914.766601562 1439.56347656 921.990234375 c 0,31,32
 1407.31054688 935.0859375 1407.31054688 935.0859375 1358.74023438 914.715820312 c 128,-1,33
 1310.16992188 894.344726562 1310.16992188 894.344726562 1264.16113281 846.88671875 c 128,-1,34
 1218.15136719 799.428710938 1218.15136719 799.428710938 1196.296875 741.536132812 c 0,0,1
EndSplineSet
EndChar
StartChar: uni0653
Encoding: 1619 1619 13
Width: 872
VWidth: 0
GlyphClass: 4
Flags: W
AnchorPoint: "arMarkAbove" 438 -23 mark 0
LayerCount: 2
Fore
SplineSet
60.3056640625 2.4296875 m 0,0,1
 77.947265625 28.990234375 77.947265625 28.990234375 106.028320312 77.1357421875 c 0,2,3
 183.845703125 210.556640625 183.845703125 210.556640625 266.921875 186.516601562 c 0,4,5
 576.249023438 105.921875 576.249023438 105.921875 783.07421875 183.938476562 c 0,6,7
 800.5546875 193.026367188 800.5546875 193.026367188 807.791015625 165.78515625 c 0,8,9
 834.431640625 65.5009765625 834.431640625 65.5009765625 780.7890625 15.4375 c 1,10,11
 647.408203125 -40.0947265625 647.408203125 -40.0947265625 472.615234375 -30.6611328125 c 0,12,13
 393.73828125 -26.3984375 393.73828125 -26.3984375 323.094726562 -10.0400390625 c 128,-1,14
 252.450195312 6.3193359375 252.450195312 6.3193359375 223.374023438 16.111328125 c 128,-1,15
 194.297851562 25.9033203125 194.297851562 25.9033203125 165.65625 17.7822265625 c 128,-1,16
 137.013671875 9.662109375 137.013671875 9.662109375 110.154296875 -28.3466796875 c 0,17,18
 85.7578125 -55.251953125 85.7578125 -55.251953125 66.8056640625 -41.5849609375 c 128,-1,19
 47.8544921875 -27.9189453125 47.8544921875 -27.9189453125 60.3056640625 2.4296875 c 0,0,1
EndSplineSet
EndChar
StartChar: uni0660
Encoding: 1632 1632 47
Width: 327
VWidth: 0
Flags: W
LayerCount: 2
Fore
SplineSet
170.463867188 199.709960938 m 1,0,-1
 327.260742188 33.9921875 l 1,1,-1
 155.625 -131.857421875 l 1,2,-1
 0 31.4873046875 l 1,3,-1
 170.463867188 199.709960938 l 1,0,-1
EndSplineSet
EndChar
StartChar: uni0661
Encoding: 1633 1633 48
Width: 251
VWidth: 0
Flags: W
LayerCount: 2
Fore
SplineSet
66.9765625 515.090820312 m 2,0,1
 76.583984375 540.358398438 76.583984375 540.358398438 88.626953125 508.381835938 c 0,2,3
 306.80078125 -47.2822265625 306.80078125 -47.2822265625 231.830078125 -442.609375 c 1,4,-1
 202.166992188 -492.359375 l 1,5,-1
 192.147460938 -467.262695312 l 1,6,7
 177.393554688 -116.870117188 177.393554688 -116.870117188 4.017578125 314.421875 c 0,8,9
 -4.3955078125 333.268554688 -4.3955078125 333.268554688 4.80859375 352.33203125 c 2,10,-1
 66.9765625 515.090820312 l 2,0,1
EndSplineSet
EndChar
StartChar: uni0662
Encoding: 1634 1634 52
Width: 489
VWidth: 0
Flags: W
LayerCount: 2
Fore
SplineSet
459.380859375 515.120117188 m 0,0,1
 468.4375 532.3515625 468.4375 532.3515625 479.233398438 532.798828125 c 128,-1,2
 490.029296875 533.247070312 490.029296875 533.247070312 489.966796875 507.13671875 c 0,3,4
 470.626953125 272.600585938 470.626953125 272.600585938 228.990234375 252.385742188 c 1,5,6
 395.28515625 -92.8408203125 395.28515625 -92.8408203125 369.395507812 -411.774414062 c 0,7,8
 365.38671875 -481.548828125 365.38671875 -481.548828125 339.834960938 -483.1015625 c 128,-1,9
 314.283203125 -484.653320312 314.283203125 -484.653320312 307.59375 -411.803710938 c 0,10,11
 238.866210938 -45.4541015625 238.866210938 -45.4541015625 4.9130859375 347.864257812 c 0,12,13
 -1.884765625 358.965820312 -1.884765625 358.965820312 0.7236328125 373.088867188 c 2,14,-1
 26.8271484375 525.725585938 l 2,15,16
 29.6484375 535.668945312 29.6484375 535.668945312 38.443359375 526.12109375 c 0,17,18
 148.501953125 401.896484375 148.501953125 401.896484375 255.826171875 404.861328125 c 0,19,20
 403.40625 411.872070312 403.40625 411.872070312 459.380859375 515.120117188 c 0,0,1
EndSplineSet
EndChar
StartChar: uni0663
Encoding: 1635 1635 53
Width: 633
VWidth: 0
Flags: W
LayerCount: 2
Fore
SplineSet
358.53515625 485.134765625 m 0,0,1
 368.901367188 515.645507812 368.901367188 515.645507812 390.018554688 511.474609375 c 128,-1,2
 411.135742188 507.302734375 411.135742188 507.302734375 407.329101562 472.463867188 c 0,3,4
 407.130859375 470.069335938 407.130859375 470.069335938 404.411132812 452.2109375 c 128,-1,5
 401.692382812 434.352539062 401.692382812 434.352539062 403.081054688 425.984375 c 0,6,7
 411.506835938 399.967773438 411.506835938 399.967773438 451.665039062 386.102539062 c 128,-1,8
 491.823242188 372.23828125 491.823242188 372.23828125 534.545898438 391.212890625 c 128,-1,9
 577.268554688 410.186523438 577.268554688 410.186523438 587.827148438 467.190429688 c 0,10,11
 599.155273438 528.068359375 599.155273438 528.068359375 626.635742188 493.850585938 c 0,12,13
 636.283203125 481.836914062 636.283203125 481.836914062 633.090820312 460.598632812 c 0,14,15
 613.552734375 264.309570312 613.552734375 264.309570312 527.416992188 248.372070312 c 0,16,17
 419.891601562 228.47265625 419.891601562 228.47265625 360.1171875 302.05859375 c 1,18,19
 314.956054688 247.719726562 314.956054688 247.719726562 235.385742188 229.490234375 c 1,20,21
 388.981445312 -83.4501953125 388.981445312 -83.4501953125 368.452148438 -411.759765625 c 0,22,23
 359.227539062 -486.438476562 359.227539062 -486.438476562 333.541015625 -484.478515625 c 128,-1,24
 307.854492188 -482.518554688 307.854492188 -482.518554688 305.5078125 -411.759765625 c 0,25,26
 234.98046875 -6.4833984375 234.98046875 -6.4833984375 3.5009765625 348.318359375 c 1,27,-1
 0 369.016601562 l 1,28,-1
 26.572265625 524.421875 l 1,29,-1
 26.857421875 525.166992188 l 1,30,-1
 38.1884765625 524.802734375 l 1,31,32
 157.42578125 390.236328125 157.42578125 390.236328125 235.034179688 392.380859375 c 0,33,34
 327.635742188 392.149414062 327.635742188 392.149414062 358.53515625 485.134765625 c 0,0,1
EndSplineSet
EndChar
StartChar: uni0664
Encoding: 1636 1636 36
Width: 872
VWidth: 0
GlyphClass: 2
Flags: W
LayerCount: 2
Back
SplineSet
512.221679688 926.981445312 m 0,36,37
 500.259765625 890.833007812 500.259765625 890.833007812 479.3359375 825.892578125 c 0,38,39
 472.115234375 808.458984375 472.115234375 808.458984375 458.916015625 803.7734375 c 0,40,41
 339.950195312 761.544921875 339.950195312 761.544921875 234.296875 682.07421875 c 0,42,43
 218.215820312 671.091796875 218.215820312 671.091796875 262.799804688 642.109375 c 128,-1,44
 307.3828125 613.127929688 307.3828125 613.127929688 429.0625 541.625 c 0,45,46
 464.756835938 517.852539062 464.756835938 517.852539062 439.213867188 472.89453125 c 0,47,48
 422.061523438 445.515625 422.061523438 445.515625 397.66015625 412.500976562 c 128,-1,49
 373.2578125 379.486328125 373.2578125 379.486328125 352.935546875 353.8515625 c 128,-1,50
 332.612304688 328.216796875 332.612304688 328.216796875 308.409179688 294.137695312 c 128,-1,51
 284.20703125 260.059570312 284.20703125 260.059570312 266.333007812 229.334960938 c 0,52,53
 262.770507812 222.890625 262.770507812 222.890625 267.783203125 218.788085938 c 0,54,55
 391.2578125 129.754882812 391.2578125 129.754882812 569.936523438 53.333984375 c 0,56,57
 584.71875 46.98828125 584.71875 46.98828125 580.29296875 30.7607421875 c 0,58,59
 559.459960938 -36.537109375 559.459960938 -36.537109375 508.310546875 -81.724609375 c 0,60,61
 495.080078125 -93.296875 495.080078125 -93.296875 484.565429688 -88.609375 c 0,62,63
 265.440429688 20.001953125 265.440429688 20.001953125 156.499023438 103.4609375 c 0,64,65
 130.194335938 124.01171875 130.194335938 124.01171875 138.305664062 161.512695312 c 0,66,67
 162.36328125 268.724609375 162.36328125 268.724609375 293.959960938 426.810546875 c 0,68,69
 302.615234375 437.9140625 302.615234375 437.9140625 291.879882812 445.53125 c 2,70,-1
 156.806640625 531.3125 l 2,71,72
 109.05078125 563.848632812 109.05078125 563.848632812 128.754882812 609.330078125 c 0,73,74
 234.151367188 850.505859375 234.151367188 850.505859375 482.8515625 942.81640625 c 0,75,76
 523.893554688 958.686523438 523.893554688 958.686523438 512.221679688 926.981445312 c 0,36,37
EndSplineSet
Fore
SplineSet
511.407226562 929.290039062 m 4,0,1
 498.891601562 891.413085938 498.891601562 891.413085938 478.536132812 828.201171875 c 4,2,3
 471.290039062 810.778320312 471.290039062 810.778320312 458.1015625 806.096679688 c 4,4,5
 339.134765625 763.840820312 339.134765625 763.840820312 233.482421875 684.397460938 c 4,6,7
 217.404296875 673.407226562 217.404296875 673.407226562 261.8203125 644.53515625 c 132,-1,8
 306.236328125 615.663085938 306.236328125 615.663085938 428.248046875 543.93359375 c 4,9,10
 463.9375 520.1640625 463.9375 520.1640625 438.4140625 475.203125 c 4,11,12
 415.083984375 437.974609375 415.083984375 437.974609375 354.540039062 359.291992188 c 132,-1,13
 293.99609375 280.609375 293.99609375 280.609375 265.518554688 231.658203125 c 4,14,15
 261.955078125 225.1953125 261.955078125 225.1953125 266.96875 221.111328125 c 4,16,17
 329.967773438 154.745117188 329.967773438 154.745117188 477.299804688 131.4921875 c 132,-1,18
 624.6328125 108.239257812 624.6328125 108.239257812 739.454101562 162.415039062 c 5,19,-1
 749.810546875 139.841796875 l 5,20,21
 669.954101562 -40.9091796875 669.954101562 -40.9091796875 471.30859375 -40.7060546875 c 132,-1,22
 272.663085938 -40.501953125 272.663085938 -40.501953125 155.684570312 90.154296875 c 4,23,24
 129.10546875 125.063476562 129.10546875 125.063476562 137.491210938 163.8359375 c 4,25,26
 161.543945312 271.02734375 161.543945312 271.02734375 293.145507812 429.119140625 c 4,27,28
 301.798828125 440.239257812 301.798828125 440.239257812 291.065429688 447.854492188 c 6,29,-1
 155.9921875 533.62109375 l 6,30,31
 108.245117188 566.150390625 108.245117188 566.150390625 127.940429688 611.638671875 c 4,32,33
 233.338867188 852.841796875 233.338867188 852.841796875 482.037109375 945.125 c 4,34,35
 523.08984375 961 523.08984375 961 511.407226562 929.290039062 c 4,0,1
EndSplineSet
EndChar
StartChar: uni0665
Encoding: 1637 1637 55
Width: 549
VWidth: 0
Flags: W
LayerCount: 2
Fore
SplineSet
0.0439453125 31.5751953125 m 0,0,1
 4.18359375 415.53125 4.18359375 415.53125 143.42578125 581.916992188 c 128,-1,2
 282.668945312 748.302734375 282.668945312 748.302734375 418.29296875 592.48828125 c 128,-1,3
 553.916015625 436.673828125 553.916015625 436.673828125 549.272460938 38.298828125 c 0,4,5
 546.54296875 -195.978515625 546.54296875 -195.978515625 408.2265625 -292.130859375 c 128,-1,6
 269.909179688 -388.284179688 269.909179688 -388.284179688 133.736328125 -293.317382812 c 128,-1,7
 -2.435546875 -198.350585938 -2.435546875 -198.350585938 0.0439453125 31.5751953125 c 0,0,1
473.920898438 30.30078125 m 0,8,9
 477.095703125 290.091796875 477.095703125 290.091796875 377.900390625 400.362304688 c 128,-1,10
 278.705078125 510.6328125 278.705078125 510.6328125 178.393554688 405.268554688 c 128,-1,11
 78.08203125 299.904296875 78.08203125 299.904296875 78.544921875 37.537109375 c 0,12,13
 78.7314453125 -71.955078125 78.7314453125 -71.955078125 176.991210938 -116.401367188 c 128,-1,14
 275.251953125 -160.846679688 275.251953125 -160.846679688 373.951171875 -117.391601562 c 128,-1,15
 472.650390625 -73.9375 472.650390625 -73.9375 473.920898438 30.30078125 c 0,8,9
EndSplineSet
EndChar
StartChar: uni0666
Encoding: 1638 1638 51
Width: 584
VWidth: 0
Flags: W
LayerCount: 2
Fore
SplineSet
2.287109375 646.282226562 m 0,0,1
 7.0400390625 679.534179688 7.0400390625 679.534179688 50.7734375 659.919921875 c 0,2,3
 107.064453125 637.279296875 107.064453125 637.279296875 421.393554688 648.494140625 c 0,4,5
 445.0078125 646.469726562 445.0078125 646.469726562 444.435546875 629.202148438 c 0,6,7
 421.5546875 14.638671875 421.5546875 14.638671875 577.00390625 -193.102539062 c 0,8,9
 588.313476562 -210.01171875 588.313476562 -210.01171875 583.493164062 -228.625 c 2,10,-1
 543.063476562 -364.064453125 l 2,11,12
 532.350585938 -396.098632812 532.350585938 -396.098632812 502.663085938 -364.26953125 c 0,13,14
 373.135742188 -212.110351562 373.135742188 -212.110351562 351.936523438 59.95703125 c 128,-1,15
 330.736328125 332.0234375 330.736328125 332.0234375 357.775390625 501.1015625 c 1,16,17
 119.86328125 487.075195312 119.86328125 487.075195312 67.150390625 511.4140625 c 0,18,19
 -12.39453125 543.666015625 -12.39453125 543.666015625 2.287109375 646.282226562 c 0,0,1
EndSplineSet
EndChar
StartChar: uni0667
Encoding: 1639 1639 32
Width: 872
VWidth: 0
Flags: W
LayerCount: 2
Fore
SplineSet
692.352539062 1124.56835938 m 0,0,1
 701.897460938 1137.8046875 701.897460938 1137.8046875 708.7734375 1123.3671875 c 2,2,-1
 762.2109375 969.807617188 l 2,3,4
 767.20703125 956.301757812 767.20703125 956.301757812 758.9296875 947.864257812 c 0,5,6
 549.1953125 674.447265625 549.1953125 674.447265625 447.15234375 126.189453125 c 0,7,8
 442.4453125 99.0908203125 442.4453125 99.0908203125 423.017578125 99.15234375 c 128,-1,9
 403.588867188 99.212890625 403.588867188 99.212890625 398.739257812 126.233398438 c 0,10,11
 272.232421875 710.416992188 272.232421875 710.416992188 113.153320312 931.428710938 c 0,12,13
 105.873046875 939.256835938 105.873046875 939.256835938 108.700195312 953.357421875 c 2,14,-1
 143.680664062 1111.48730469 l 2,15,16
 147.280273438 1130.32421875 147.280273438 1130.32421875 163.163085938 1113.50878906 c 0,17,18
 303.287109375 951.805664062 303.287109375 951.805664062 423.392578125 461.873046875 c 1,19,20
 516.6640625 889.497070312 516.6640625 889.497070312 692.352539062 1124.56835938 c 0,0,1
EndSplineSet
EndChar
StartChar: uni0668
Encoding: 1640 1640 31
Width: 872
VWidth: 0
GlyphClass: 2
Flags: W
LayerCount: 2
Fore
SplineSet
182.926757812 -20.1044921875 m 0,0,1
 166.870117188 -38.7548828125 166.870117188 -38.7548828125 159.958007812 -19.1962890625 c 2,2,-1
 109.625976562 133.000976562 l 2,3,4
 104.517578125 145.864257812 104.517578125 145.864257812 113.771484375 154.373046875 c 0,5,6
 340.291015625 451.842773438 340.291015625 451.842773438 440.944335938 970.803710938 c 0,7,8
 445.795898438 995.568359375 445.795898438 995.568359375 462.1953125 995.297851562 c 128,-1,9
 478.594726562 995.02734375 478.594726562 995.02734375 483.249023438 970.012695312 c 0,10,11
 573.607421875 425.245117188 573.607421875 425.245117188 759.6796875 160.188476562 c 1,12,-1
 764.19140625 141.013671875 l 1,13,-1
 726.413085938 -18.1416015625 l 2,14,15
 720.702148438 -34.1142578125 720.702148438 -34.1142578125 706.564453125 -20.7197265625 c 0,16,17
 572.827148438 126.440429688 572.827148438 126.440429688 456.486328125 634.724609375 c 1,18,19
 345.875 160.2890625 345.875 160.2890625 182.926757812 -20.1044921875 c 0,0,1
EndSplineSet
EndChar
StartChar: uni0669
Encoding: 1641 1641 35
Width: 872
VWidth: 0
GlyphClass: 2
Flags: W
LayerCount: 2
Fore
SplineSet
393.638671875 1011.59960938 m 0,0,1
 491.12109375 1011.796875 491.12109375 1011.796875 537.720703125 894.265625 c 0,2,3
 557.172851562 845.323242188 557.172851562 845.323242188 553.013671875 748.806640625 c 0,4,5
 535.506835938 335.11328125 535.506835938 335.11328125 678.799804688 118.484375 c 0,6,7
 688.086914062 102.184570312 688.086914062 102.184570312 681.670898438 89.2314453125 c 2,8,-1
 630.240234375 -14.640625 l 2,9,10
 619.390625 -34.439453125 619.390625 -34.439453125 604.48828125 -15.138671875 c 0,11,12
 471.895507812 183.7578125 471.895507812 183.7578125 470.6015625 566.697265625 c 1,13,14
 403.409179688 491.340820312 403.409179688 491.340820312 307.587890625 518.890625 c 128,-1,15
 211.766601562 546.440429688 211.766601562 546.440429688 196.749023438 638.987304688 c 0,16,17
 156.034179688 821.901367188 156.034179688 821.901367188 298.672851562 970.305664062 c 0,18,19
 338.293945312 1011.53320312 338.293945312 1011.53320312 393.638671875 1011.59960938 c 0,0,1
354.380859375 864.631835938 m 0,20,21
 276.012695312 864.235351562 276.012695312 864.235351562 252.33984375 750.198242188 c 0,22,23
 248.13671875 671.732421875 248.13671875 671.732421875 343.630859375 658.241210938 c 128,-1,24
 439.125 644.75 439.125 644.75 482.173828125 714.060546875 c 1,25,26
 472.735351562 865.272460938 472.735351562 865.272460938 354.380859375 864.631835938 c 0,20,21
EndSplineSet
EndChar
StartChar: uni066A
Encoding: 1642 1642 57
Width: 725
VWidth: 0
Flags: W
LayerCount: 2
Fore
SplineSet
725.478515625 530.793945312 m 1,0,-1
 617.724609375 595.041992188 l 1,1,-1
 0 -440.939453125 l 1,2,-1
 107.75390625 -505.1875 l 1,3,-1
 725.478515625 530.793945312 l 1,0,-1
671.6015625 562.91796875 m 1,4,-1
 53.876953125 -473.063476562 l 1,5,-1
536.19140625 -347.731445312 m 1,6,-1
 598.916015625 -347.74609375 l 1,7,8
 598.836914062 -250.934570312 598.836914062 -250.934570312 502.104492188 -250.934570312 c 128,-1,9
 405.29296875 -250.934570312 405.29296875 -250.934570312 405.29296875 -347.74609375 c 128,-1,10
 405.29296875 -444.557617188 405.29296875 -444.557617188 502.104492188 -444.557617188 c 128,-1,11
 598.916015625 -444.557617188 598.916015625 -444.557617188 598.916015625 -347.74609375 c 1,12,-1
 536.19140625 -347.731445312 l 1,6,-1
536.19140625 -347.74609375 m 0,13,14
 536.19140625 -381.833007812 536.19140625 -381.833007812 502.104492188 -381.833007812 c 128,-1,15
 468.017578125 -381.833007812 468.017578125 -381.833007812 468.017578125 -347.760742188 c 128,-1,16
 468.017578125 -313.659179688 468.017578125 -313.659179688 502.08984375 -313.659179688 c 128,-1,17
 536.165039062 -313.659179688 536.165039062 -313.659179688 536.19140625 -347.716796875 c 0,18,-1
233.671875 366.116210938 m 1,19,-1
 296.396484375 366.1015625 l 1,20,21
 296.317382812 462.913085938 296.317382812 462.913085938 199.5703125 462.913085938 c 128,-1,22
 102.758789062 462.913085938 102.758789062 462.913085938 102.758789062 366.1015625 c 128,-1,23
 102.758789062 269.290039062 102.758789062 269.290039062 199.5703125 269.290039062 c 128,-1,24
 296.396484375 269.290039062 296.396484375 269.290039062 296.396484375 366.1015625 c 1,25,-1
 233.671875 366.116210938 l 1,19,-1
233.671875 366.1015625 m 0,26,27
 233.671875 332.014648438 233.671875 332.014648438 199.584960938 332.014648438 c 128,-1,28
 165.483398438 332.014648438 165.483398438 332.014648438 165.483398438 366.086914062 c 128,-1,29
 165.483398438 400.188476562 165.483398438 400.188476562 199.555664062 400.188476562 c 128,-1,30
 233.645507812 400.188476562 233.645507812 400.188476562 233.671875 366.130859375 c 0,31,-1
EndSplineSet
EndChar
StartChar: uni06F4
Encoding: 1780 1780 145
Width: 872
VWidth: 0
GlyphClass: 2
UnlinkRmOvrlpSave: 1
Flags: W
LayerCount: 2
Back
SplineSet
560.397460938 965.120117188 m 0,0,1
 569.454101562 982.3515625 569.454101562 982.3515625 580.25 982.798828125 c 128,-1,2
 591.045898438 983.247070312 591.045898438 983.247070312 590.983398438 957.13671875 c 0,3,4
 571.643554688 722.600585938 571.643554688 722.600585938 330.006835938 702.385742188 c 1,5,6
 496.301757812 357.159179688 496.301757812 357.159179688 470.412109375 38.2255859375 c 0,7,8
 466.403320312 -31.548828125 466.403320312 -31.548828125 440.8515625 -33.1015625 c 128,-1,9
 415.299804688 -34.6533203125 415.299804688 -34.6533203125 408.610351562 38.1962890625 c 0,10,11
 339.8828125 404.545898438 339.8828125 404.545898438 105.9296875 797.864257812 c 0,12,13
 99.1318359375 808.965820312 99.1318359375 808.965820312 101.740234375 823.088867188 c 2,14,-1
 127.84375 975.725585938 l 2,15,16
 130.665039062 985.668945312 130.665039062 985.668945312 139.459960938 976.12109375 c 0,17,18
 249.518554688 851.896484375 249.518554688 851.896484375 356.842773438 854.861328125 c 0,19,20
 504.422851562 861.872070312 504.422851562 861.872070312 560.397460938 965.120117188 c 0,0,1
EndSplineSet
Fore
SplineSet
410.5 704 m 1,0,1
 434.446289062 910.23828125 434.446289062 910.23828125 496.66015625 931.434570312 c 0,2,3
 576.33984375 957.734375 576.33984375 957.734375 642.16015625 898.786132812 c 0,4,5
 668.979492188 876.018554688 668.979492188 876.018554688 683 894 c 0,6,7
 690.807617188 904.013671875 690.807617188 904.013671875 677.5 932.5 c 0,8,9
 620.120117188 1054.44238281 620.120117188 1054.44238281 481.66015625 1036.43457031 c 0,10,11
 346.432617188 1018.65527344 346.432617188 1018.65527344 342.5 712 c 9,12,-1
 410.5 704 l 1,0,1
682.397460938 825.120117188 m 0,13,14
 691.454101562 842.3515625 691.454101562 842.3515625 702.25 842.798828125 c 0,15,16
 714.932617188 843.325195312 714.932617188 843.325195312 712.983398438 817.13671875 c 0,17,18
 695.888671875 583.600585938 695.888671875 583.600585938 392.006835938 562.385742188 c 1,19,20
 495.854403938 252.69485875 495.854403938 252.69485875 470.412109375 18.2255859375 c 0,21,22
 465.434917797 -31.7266759103 465.434917797 -31.7266759103 440.8515625 -33.1015625 c 0,23,24
 417.656705811 -34.3035255855 417.656705811 -34.3035255855 408.610351562 18.1962890625 c 0,25,26
 337.164988909 423.766584143 337.164988909 423.766584143 105.9296875 797.864257812 c 0,27,28
 99.282789781 808.719297788 99.282789781 808.719297788 101.740234375 823.088867188 c 2,29,-1
 127.84375 975.725585938 l 2,30,31
 129.306534214 984.279015519 129.306534214 984.279015519 139.459960938 976.12109375 c 0,32,33
 224.659973145 894.434692383 224.659973145 894.434692383 287.66015625 768.434570312 c 1,34,35
 364.784588152 710.047536443 364.784588152 710.047536443 478.842773438 714.861328125 c 0,36,37
 627.6015625 721.139648438 627.6015625 721.139648438 682.397460938 825.120117188 c 0,13,14
EndSplineSet
EndChar
StartChar: uni06F5
Encoding: 1781 1781 139
Width: 872
VWidth: 0
GlyphClass: 2
Flags: W
LayerCount: 2
Back
SplineSet
161.331054688 351.575195312 m 4,0,1
 165.470703125 735.53125 165.470703125 735.53125 304.712890625 901.916992188 c 132,-1,2
 443.956054688 1068.30273438 443.956054688 1068.30273438 579.580078125 912.48828125 c 132,-1,3
 715.203125 756.673828125 715.203125 756.673828125 710.559570312 358.298828125 c 4,4,5
 707.830078125 124.021484375 707.830078125 124.021484375 569.513671875 27.869140625 c 132,-1,6
 431.196289062 -68.2841796875 431.196289062 -68.2841796875 295.0234375 26.6826171875 c 132,-1,7
 158.8515625 121.649414062 158.8515625 121.649414062 161.331054688 351.575195312 c 4,0,1
635.208007812 350.30078125 m 4,8,9
 638.3828125 610.091796875 638.3828125 610.091796875 539.1875 720.362304688 c 132,-1,10
 439.9921875 830.6328125 439.9921875 830.6328125 339.680664062 725.268554688 c 132,-1,11
 239.369140625 619.904296875 239.369140625 619.904296875 239.83203125 357.537109375 c 4,12,13
 240.018554688 248.044921875 240.018554688 248.044921875 338.278320312 203.598632812 c 132,-1,14
 436.5390625 159.153320312 436.5390625 159.153320312 535.23828125 202.608398438 c 132,-1,15
 633.9375 246.0625 633.9375 246.0625 635.208007812 350.30078125 c 4,8,9
EndSplineSet
Fore
SplineSet
161.331054688 351.575195312 m 0,0,1
 165.470703125 735.53125 165.470703125 735.53125 304.712890625 901.916992188 c 128,-1,2
 443.956054688 1068.30273438 443.956054688 1068.30273438 579.580078125 912.48828125 c 128,-1,3
 715.203125 756.673828125 715.203125 756.673828125 710.559570312 358.298828125 c 0,4,5
 707.019810106 54.4746873568 707.019810106 54.4746873568 569.513671875 27.869140625 c 0,6,7
 477.195978779 10.006936585 477.195978779 10.006936585 435 139.537109375 c 1,8,9
 384.981307005 12.7639211326 384.981307005 12.7639211326 295.0234375 26.6826171875 c 0,10,11
 158.169329019 58.385223595 158.169329019 58.385223595 161.331054688 351.575195312 c 0,0,1
635.208007812 350.30078125 m 0,12,13
 638.3828125 610.091796875 638.3828125 610.091796875 539.1875 720.362304688 c 128,-1,14
 439.9921875 830.6328125 439.9921875 830.6328125 339.680664062 725.268554688 c 128,-1,15
 239.369140625 619.904296875 239.369140625 619.904296875 239.83203125 357.537109375 c 0,16,17
 240.08269648 210.392682054 240.08269648 210.392682054 338.278320312 203.598632812 c 0,18,19
 389 200 389 200 422 310 c 1,20,21
 447 310 l 1,22,23
 477.720396031 200 477.720396031 200 535.23828125 202.608398438 c 0,24,25
 633.446598458 205.786688646 633.446598458 205.786688646 635.208007812 350.30078125 c 0,12,13
EndSplineSet
EndChar
StartChar: minus
Encoding: 8722 8722 61
Width: 872
VWidth: 0
Flags: W
LayerCount: 2
Fore
SplineSet
0.05859375 -129.264648438 m 5,0,-1
 0 -254.713867188 l 5,1,-1
 872.314453125 -255.094726562 l 5,2,-1
 872.373046875 -129.645507812 l 5,3,-1
 0.05859375 -129.264648438 l 5,0,-1
EndSplineSet
EndChar
StartChar: ar1Noqta.above
Encoding: 65536 -1 44
Width: 872
VWidth: 0
GlyphClass: 4
Flags: W
AnchorPoint: "arMarkAbove" 438 0 mark 0
LayerCount: 2
Fore
SplineSet
439.852539062 94.0634765625 m 1,0,-1
 528.006835938 0.884765625 l 1,1,-1
 431.502929688 -92.3671875 l 1,2,-1
 343.993164062 -0.5361328125 l 1,3,-1
 439.852539062 94.0634765625 l 1,0,-1
EndSplineSet
EndChar
StartChar: arAin.fina
Encoding: 65577 -1 85
Width: 872
VWidth: 0
Flags: W
LayerCount: 2
Back
SplineSet
568.41796875 1061.83886719 m 1,40,-1
 656.586914062 968.66015625 l 1,41,-1
 560.083007812 875.408203125 l 1,42,-1
 472.573242188 967.25390625 l 1,43,-1
 568.41796875 1061.83886719 l 1,40,-1
EndSplineSet
Fore
SplineSet
581.909179688 628.142578125 m 0,0,1
 646.662109375 631.244140625 646.662109375 631.244140625 706.186523438 610.7109375 c 0,2,3
 771.036132812 588.344726562 771.036132812 588.344726562 800.857421875 532.440429688 c 128,-1,4
 830.678710938 476.536132812 830.678710938 476.536132812 791.806640625 402.29296875 c 0,5,6
 759.826171875 363.83203125 759.826171875 363.83203125 686.850585938 312.424804688 c 1,7,8
 752.59765625 246.9453125 752.59765625 246.9453125 875.185546875 177.659179688 c 0,9,10
 942.322265625 127.981445312 942.322265625 127.981445312 865.961914062 73.98046875 c 0,11,12
 820.51171875 41.83984375 820.51171875 41.83984375 774.345703125 68.42578125 c 0,13,14
 651.849609375 143.271484375 651.849609375 143.271484375 556.40625 231.916992188 c 1,15,16
 541.173828125 222.305664062 541.173828125 222.305664062 511.762695312 202.907226562 c 128,-1,17
 482.350585938 183.508789062 482.350585938 183.508789062 474.184570312 178.171875 c 0,18,19
 215.827148438 9.9697265625 215.827148438 9.9697265625 221.879882812 -234.079101562 c 0,20,21
 225.345703125 -373.799804688 225.345703125 -373.799804688 338.793945312 -478.9765625 c 128,-1,22
 452.243164062 -584.154296875 452.243164062 -584.154296875 617.666015625 -605.40234375 c 0,23,24
 814.749023438 -630.71484375 814.749023438 -630.71484375 1064.79492188 -554.806640625 c 0,25,26
 1093.19140625 -541.689453125 1093.19140625 -541.689453125 1099.1953125 -557.165039062 c 128,-1,27
 1105.19921875 -572.640625 1105.19921875 -572.640625 1089.0234375 -594.108398438 c 0,28,29
 1042.1640625 -657.93359375 1042.1640625 -657.93359375 955.60546875 -706.491210938 c 0,30,31
 713.129882812 -840.110351562 713.129882812 -840.110351562 438.206054688 -717.102539062 c 128,-1,32
 163.282226562 -594.09375 163.282226562 -594.09375 151.245117188 -262.892578125 c 0,33,34
 147.586914062 30.7939453125 147.586914062 30.7939453125 347.34375 243.181640625 c 1,35,-1
 468.75 344.548828125 l 1,36,37
 388.948242188 446.201171875 388.948242188 446.201171875 394.1015625 510.662109375 c 0,38,39
 414.455078125 631.970703125 414.455078125 631.970703125 581.909179688 628.142578125 c 0,0,1
EndSplineSet
EndChar
StartChar: arAin.init
Encoding: 65567 -1 75
Width: 872
VWidth: 0
GlyphClass: 2
Flags: W
AnchorPoint: "arMarkAbove" 527 787 basechar 0
AnchorPoint: "arMarkBelow" 540 -250 basechar 0
LayerCount: 2
Fore
SplineSet
660.310852051 -1.27645880411 m 0,0,1
 781.970034205 24.1268660042 781.970034205 24.1268660042 882.690429688 67.6767578125 c 0,2,3
 900.23524326 75.2628552383 900.23524326 75.2628552383 905.893554688 91.1728515625 c 2,4,-1
 943.408203125 196.65625 l 2,5,6
 957.680481431 236.786931798 957.680481431 236.786931798 918.256835938 223.521484375 c 0,7,8
 790.28135875 180.459714142 790.28135875 180.459714142 726.743164062 174.229492188 c 0,9,10
 583.297867987 160.163999184 583.297867987 160.163999184 437.758789062 346.36328125 c 1,11,12
 504.900609894 419.727548858 504.900609894 419.727548858 607.197265625 436.421875 c 0,13,14
 650.42578125 443.4765625 650.42578125 443.4765625 764.580078125 427.837890625 c 1,15,16
 769.158203125 442.89453125 769.158203125 442.89453125 748.935546875 480.044921875 c 1,17,18
 501.423453822 669.325912768 501.423453822 669.325912768 391.103515625 386.6171875 c 0,19,20
 332.185527406 235.632427927 332.185527406 235.632427927 473.252929688 117.0546875 c 1,21,22
 246.666867544 81.911827755 246.666867544 81.911827755 -38.5302734375 155.654296875 c 0,23,24
 -75.8007268372 165.154603436 -75.8007268372 165.154603436 -72.275390625 123.12109375 c 0,25,26
 -63.900390625 23.2431640625 -63.900390625 23.2431640625 28.6748046875 -5.0986328125 c 0,27,28
 111.076776701 -30.6100276789 111.076776701 -30.6100276789 208.310852051 -36.5656717814 c 0,29,30
 427.122035272 -49.9679849956 427.122035272 -49.9679849956 660.310852051 -1.27645880411 c 0,0,1
EndSplineSet
EndChar
StartChar: arAin.isol
Encoding: 65553 -1 61
Width: 872
VWidth: 0
GlyphClass: 2
Flags: W
AnchorPoint: "arMarkAbove" 84 1255 basechar 0
AnchorPoint: "arMarkBelow" 516 -64 basechar 0
LayerCount: 2
Fore
SplineSet
649.487304688 573.416015625 m 2,0,-1
 620.205078125 449.475585938 l 2,1,2
 617.043706326 436.094712104 617.043706326 436.094712104 608.544921875 433.142578125 c 0,3,4
 179.020435937 264.574972467 179.020435937 264.574972467 91.9013671875 27.67578125 c 0,5,6
 17.6303787044 -174.286169848 17.6303787044 -174.286169848 103.45703125 -323.981445312 c 0,7,8
 242.572944761 -566.621631979 242.572944761 -566.621631979 533.00012207 -577.970154369 c 0,9,10
 732.465641182 -585.764324772 732.465641182 -585.764324772 935.29296875 -505.661132812 c 0,11,12
 965.592078475 -493.695016453 965.592078475 -493.695016453 972.525390625 -507.249023438 c 0,13,14
 980.301757812 -522.448242188 980.301757812 -522.448242188 959.462890625 -544.860351562 c 0,15,16
 869.62743261 -637.610812281 869.62743261 -637.610812281 825.927734375 -657.213867188 c 0,17,18
 521.00012207 -792 521.00012207 -792 253 -666 c 0,19,20
 -14.2508643887 -538.76810055 -14.2508643887 -538.76810055 -22.5537109375 -213.747070312 c 0,21,22
 -30.4881008324 111.539795685 -30.4881008324 111.539795685 166.71875 331.8046875 c 1,23,24
 29.949671819 447.55861508 29.949671819 447.55861508 29.08203125 552.41015625 c 0,25,26
 27.6276175477 728.171322376 27.6276175477 728.171322376 155.2890625 792.9375 c 0,27,28
 275.833984375 854.092773438 275.833984375 854.092773438 422.802734375 757.004882812 c 1,29,-1
 417.177734375 726.873046875 l 1,30,31
 174.75 760.311523438 174.75 760.311523438 97.255859375 592.107421875 c 1,32,33
 133.407226562 523.166992188 133.407226562 523.166992188 177.145507812 491.009765625 c 0,34,35
 245.086468167 441.059780303 245.086468167 441.059780303 382.34765625 485.405273438 c 0,36,37
 425.592773438 499.376953125 425.592773438 499.376953125 507.09375 536.30859375 c 0,38,39
 605.373338464 580.844531493 605.373338464 580.844531493 630.78125 588.752929688 c 0,40,41
 654.883217262 596.254843182 654.883217262 596.254843182 649.487304688 573.416015625 c 2,0,-1
EndSplineSet
EndChar
StartChar: arAin.medi
Encoding: 65574 -1 82
Width: 872
VWidth: 0
GlyphClass: 2
Flags: W
AnchorPoint: "arMarkAbove" 737 985 basechar 0
AnchorPoint: "arMarkBelow" 750 -234 basechar 0
LayerCount: 2
Fore
SplineSet
683.752929688 158.913085938 m 1,0,1
 605.162890335 214.171875 605.162890335 214.171875 587.291015625 233.166992188 c 0,2,3
 465.700372698 374.620084652 465.700372698 374.620084652 643.482421875 463.030273438 c 0,4,5
 721.166298373 501.662105046 721.166298373 501.662105046 822.090820312 484.059570312 c 0,6,7
 925.215858828 466.074180309 925.215858828 466.074180309 975.38671875 389.83203125 c 0,8,9
 996.036132812 358.452148438 996.036132812 358.452148438 992.73828125 309.052734375 c 128,-1,10
 989.440429688 259.653320312 989.440429688 259.653320312 972.048828125 210.59375 c 128,-1,11
 954.657226562 161.534179688 954.657226562 161.534179688 906.109375 112.090820312 c 0,12,13
 849.576083544 54.5147225833 849.576083544 54.5147225833 787.7109375 31.1796875 c 0,14,15
 601.896860082 -36.3632125953 601.896860082 -36.3632125953 409.326599121 -44.7275674934 c 0,16,17
 222.190819322 -52.8558738506 222.190819322 -52.8558738506 28.6748046875 -5.0986328125 c 0,18,19
 -63.8593491425 17.7138456091 -63.8593491425 17.7138456091 -72.275390625 123.12109375 c 0,20,21
 -75.5351829171 163.948570152 -75.5351829171 163.948570152 -38.5302734375 155.654296875 c 0,22,23
 465.386388889 46 465.386388889 46 683.752929688 158.913085938 c 1,0,1
EndSplineSet
EndChar
StartChar: arAlef.fina.1
Encoding: 65580 -1 88
Width: 872
VWidth: 0
GlyphClass: 2
Flags: W
AnchorPoint: "arCursive" 0 0 entry 0
AnchorPoint: "arMarkAbove" 57 1195 basechar 0
AnchorPoint: "arMarkBelow" 362 -176 basechar 0
LayerCount: 2
Back
SplineSet
694.568359375 1266.43359375 m 4,0,1
 695.813476562 1294.81054688 695.813476562 1294.81054688 707.737304688 1309.55859375 c 6,2,-1
 768.89453125 1396.05761719 l 6,3,4
 788.103515625 1421.3125 788.103515625 1421.3125 789.021484375 1386.66796875 c 4,5,6
 792.548828125 1268.20019531 792.548828125 1268.20019531 793.984375 1038.234375 c 132,-1,7
 795.419921875 808.268554688 795.419921875 808.268554688 799.926757812 699.500976562 c 132,-1,8
 804.43359375 590.733398438 804.43359375 590.733398438 829.806640625 429.34375 c 132,-1,9
 855.1796875 267.954101562 855.1796875 267.954101562 904.905273438 129.861328125 c 4,10,11
 923.118164062 51.7099609375 923.118164062 51.7099609375 844.950195312 55.8251953125 c 5,12,-1
 808.752929688 77.888671875 l 5,13,14
 749.887695312 261.865234375 749.887695312 261.865234375 717.5078125 542.9765625 c 5,15,16
 636.3359375 133.193359375 636.3359375 133.193359375 493.591796875 17.5224609375 c 4,17,18
 375.012695312 -70.1865234375 375.012695312 -70.1865234375 126.267578125 -91.6083984375 c 4,19,20
 105.5625 -93.068359375 105.5625 -93.068359375 100.921875 -88.5576171875 c 132,-1,21
 96.2822265625 -84.0478515625 96.2822265625 -84.0478515625 118.796875 -68.830078125 c 5,22,23
 467.985351562 131.657226562 467.985351562 131.657226562 565.551757812 306 c 4,24,25
 673 498 673 498 694.568359375 1266.43359375 c 4,0,1
EndSplineSet
Fore
SplineSet
538.786132812 262.6328125 m 0,0,1
 480.431640625 540.544921875 480.431640625 540.544921875 227.287109375 863.716796875 c 1,2,3
 150.012695312 810.015625 150.012695312 810.015625 66.2861328125 942.481445312 c 0,4,5
 -9.9462890625 1063.09082031 -9.9462890625 1063.09082031 114.84765625 1108.58984375 c 0,6,7
 184.375 1133.93945312 184.375 1133.93945312 251.544921875 1056.35839844 c 0,8,9
 511 757 511 757 587.375 350.772460938 c 0,10,11
 607.317382812 251.455078125 607.317382812 251.455078125 585.336914062 232.3359375 c 24,12,13
 551.354492188 202.77734375 551.354492188 202.77734375 538.786132812 262.6328125 c 0,0,1
EndSplineSet
EndChar
StartChar: arAlef.fina.2
Encoding: 65581 -1 89
Width: 872
VWidth: 0
GlyphClass: 2
Flags: W
AnchorPoint: "arCursive" 0 0 entry 0
AnchorPoint: "arMarkAbove" 23 1291 basechar 0
AnchorPoint: "arMarkBelow" 316 -180 basechar 0
LayerCount: 2
Back
SplineSet
783.280273438 166.404296875 m 1,0,1
 786.666992188 70 786.666992188 70 723.44140625 -7.9267578125 c 1,2,3
 591 -43 591 -43 358.841796875 -45.2509765625 c 0,4,5
 326.725585938 -44.8642578125 326.725585938 -44.8642578125 332.284179688 -20.158203125 c 2,6,-1
 358.944335938 98.3330078125 l 1,7,8
 597.102539062 274.642578125 597.102539062 274.642578125 648 399 c 0,9,10
 724.684570312 583.45703125 724.684570312 583.45703125 684.989257812 1199.98339844 c 0,11,12
 683.8046875 1218.375 683.8046875 1218.375 699.637695312 1239.00683594 c 0,13,14
 742.654296875 1295.06347656 742.654296875 1295.06347656 763.856445312 1319.64648438 c 0,15,16
 773.21875 1330.35742188 773.21875 1330.35742188 777.360351562 1326.64257812 c 128,-1,17
 781.501953125 1322.92773438 781.501953125 1322.92773438 783.03125 1303.06445312 c 0,18,19
 799.204101562 1113.13476562 799.204101562 1113.13476562 776.166992188 778.244140625 c 0,20,21
 755 457 755 457 694 344 c 0,22,23
 647.134765625 254.524414062 647.134765625 254.524414062 492.23046875 116.350585938 c 1,24,25
 674 127 674 127 783.280273438 166.404296875 c 1,0,1
EndSplineSet
Fore
SplineSet
743.947265625 150 m 0,0,1
 654.6953125 367.813476562 654.6953125 367.813476562 510.107421875 570.701171875 c 0,2,3
 373.872070312 761.8671875 373.872070312 761.8671875 188.509765625 939.783203125 c 1,4,5
 116.162109375 909.354492188 116.162109375 909.354492188 30.27734375 1047.08300781 c 0,6,7
 -17.7626953125 1124.12207031 -17.7626953125 1124.12207031 43.11328125 1195.85253906 c 128,-1,8
 104.021484375 1267.62109375 104.021484375 1267.62109375 186.532226562 1169.23632812 c 0,9,10
 417.059570312 894.360351562 417.059570312 894.360351562 558.536132812 681.701171875 c 0,11,12
 781.209960938 346.98828125 781.209960938 346.98828125 783.280273438 166.404296875 c 0,13,14
 783.534179688 126.786132812 783.534179688 126.786132812 773 123.766601562 c 0,15,16
 755.5 118.5 755.5 118.5 743.947265625 150 c 0,0,1
EndSplineSet
EndChar
StartChar: arAlef.fina
Encoding: 65596 -1 153
Width: 872
VWidth: 0
GlyphClass: 2
Flags: W
AnchorPoint: "arMarkBelow" 845.5 -72 basechar 0
AnchorPoint: "arMarkAbove" 780 1240 basechar 0
LayerCount: 2
Fore
SplineSet
856.815429688 1219.13378906 m 0,0,1
 857.218497456 1054.96250807 857.218497456 1054.96250807 855.190429688 672.236328125 c 0,2,3
 852.832017979 227.169393776 852.832017979 227.169393776 853.182457105 151.5 c 1,4,5
 879.678630071 141.23714382 879.678630071 141.23714382 881.473187825 117 c 0,6,7
 886.39160256 50.6990310647 886.39160256 50.6990310647 863 48 c 0,8,9
 846.5 46.5 846.5 46.5 832.333007812 65.5576171875 c 0,10,11
 810.5 93 810.5 93 802.709960938 134 c 1,12,-1
 755.184570312 1081.05761719 l 2,13,14
 754.363916455 1097.41111741 754.363916455 1097.41111741 765.995117188 1114.64648438 c 2,15,-1
 839.325195312 1223.30859375 l 2,16,17
 856.947131943 1249.42116385 856.947131943 1249.42116385 856.815429688 1219.13378906 c 0,0,1
EndSplineSet
EndChar
StartChar: arAlef.isol
Encoding: 65545 -1 53
Width: 872
VWidth: 0
GlyphClass: 2
Flags: W
AnchorPoint: "arMarkBelow" 475.5 -142 basechar 0
AnchorPoint: "arMarkAbove" 410 1170 basechar 0
LayerCount: 2
Fore
SplineSet
486.815429688 1149.13378906 m 0,0,1
 486.1015625 984.966796875 486.1015625 984.966796875 485.190429688 602.236328125 c 128,-1,2
 484.279296875 219.505859375 484.279296875 219.505859375 483.182617188 15.681640625 c 0,3,4
 479.912109375 -17.9375 479.912109375 -17.9375 458.853515625 -17.07421875 c 128,-1,5
 437.793945312 -16.2109375 437.793945312 -16.2109375 435.106445312 16.2529296875 c 2,6,-1
 385.184570312 1011.05761719 l 2,7,8
 385.47265625 1027.75 385.47265625 1027.75 395.995117188 1044.64648438 c 2,9,-1
 469.325195312 1153.30859375 l 2,10,11
 484.44921875 1172.03808594 484.44921875 1172.03808594 486.815429688 1149.13378906 c 0,0,1
EndSplineSet
EndChar
StartChar: arAyn.fina
Encoding: 65536 -1 0
Width: 949
VWidth: 0
Flags: W
LayerCount: 2
Fore
SplineSet
430.409179688 1198.14257812 m 0,0,1
 495.162109375 1201.24414062 495.162109375 1201.24414062 554.686523438 1180.7109375 c 0,2,3
 619.536132812 1158.34472656 619.536132812 1158.34472656 649.357421875 1102.44042969 c 128,-1,4
 679.178710938 1046.53613281 679.178710938 1046.53613281 640.306640625 972.29296875 c 0,5,6
 608.326171875 933.83203125 608.326171875 933.83203125 535.350585938 882.424804688 c 1,7,8
 601.09765625 816.9453125 601.09765625 816.9453125 723.685546875 747.659179688 c 0,9,10
 790.822265625 697.981445312 790.822265625 697.981445312 714.461914062 643.98046875 c 0,11,12
 669.01171875 611.83984375 669.01171875 611.83984375 622.845703125 638.42578125 c 0,13,14
 500.349609375 713.271484375 500.349609375 713.271484375 404.90625 801.916992188 c 1,15,16
 389.673828125 792.305664062 389.673828125 792.305664062 360.262695312 772.907226562 c 128,-1,17
 330.850585938 753.508789062 330.850585938 753.508789062 322.684570312 748.171875 c 0,18,19
 64.3271484375 579.969726562 64.3271484375 579.969726562 70.3798828125 335.920898438 c 0,20,21
 73.845703125 196.200195312 73.845703125 196.200195312 187.293945312 91.0234375 c 128,-1,22
 300.743164062 -14.154296875 300.743164062 -14.154296875 466.166015625 -35.40234375 c 0,23,24
 663.249023438 -60.71484375 663.249023438 -60.71484375 913.294921875 15.193359375 c 0,25,26
 941.69140625 28.310546875 941.69140625 28.310546875 947.6953125 12.8349609375 c 128,-1,27
 953.69921875 -2.640625 953.69921875 -2.640625 937.5234375 -24.1083984375 c 0,28,29
 890.6640625 -87.93359375 890.6640625 -87.93359375 804.10546875 -136.491210938 c 0,30,31
 561.629882812 -270.110351562 561.629882812 -270.110351562 286.706054688 -147.102539062 c 128,-1,32
 11.7822265625 -24.09375 11.7822265625 -24.09375 -0.2548828125 307.107421875 c 0,33,34
 -3.9130859375 600.793945312 -3.9130859375 600.793945312 195.84375 813.181640625 c 1,35,-1
 317.25 914.548828125 l 1,36,37
 237.448242188 1016.20117188 237.448242188 1016.20117188 242.6015625 1080.66210938 c 0,38,39
 262.955078125 1201.97070312 262.955078125 1201.97070312 430.409179688 1198.14257812 c 0,0,1
416.91796875 1631.83886719 m 1,40,-1
 505.086914062 1538.66015625 l 1,41,-1
 408.583007812 1445.40820312 l 1,42,-1
 321.073242188 1537.25390625 l 1,43,-1
 416.91796875 1631.83886719 l 1,40,-1
EndSplineSet
EndChar
StartChar: arBeh.fina
Encoding: 65576 -1 84
Width: 872
VWidth: 0
GlyphClass: 2
Flags: W
AnchorPoint: "arMarkAbove" 319 684 basechar 0
AnchorPoint: "arMarkBelow" 316 -292 basechar 0
LayerCount: 2
Back
SplineSet
329.61328125 951.604492188 m 1,19,-1
 417.767578125 858.42578125 l 1,20,-1
 321.263671875 765.173828125 l 1,21,-1
 233.75390625 857.004882812 l 1,22,-1
 329.61328125 951.604492188 l 1,19,-1
216.629882812 773.743164062 m 1,23,-1
 304.798828125 680.564453125 l 1,24,-1
 208.294921875 587.297851562 l 1,25,-1
 120.78515625 679.143554688 l 1,26,-1
 216.629882812 773.743164062 l 1,23,-1
425.750976562 780.950195312 m 1,27,-1
 513.919921875 687.771484375 l 1,28,-1
 417.401367188 594.51953125 l 1,29,-1
 329.90625 686.350585938 l 1,30,-1
 425.750976562 780.950195312 l 1,27,-1
EndSplineSet
Fore
SplineSet
893.578125 290.53515625 m 1,0,-1
 922.962890625 261.370117188 l 1,1,2
 915.275390625 188.685546875 915.275390625 188.685546875 872.54296875 132.961914062 c 0,3,4
 787.990234375 7.94140625 787.990234375 7.94140625 480.001953125 -51.091796875 c 128,-1,5
 172.012695312 -110.125 172.012695312 -110.125 -100.713867188 -26.8232421875 c 0,6,7
 -262.418945312 28.16796875 -262.418945312 28.16796875 -270.328125 174.490234375 c 0,8,9
 -274.306640625 247.720703125 -274.306640625 247.720703125 -253.350585938 321.384765625 c 0,10,11
 -231.966796875 350.600585938 -231.966796875 350.600585938 -203.091796875 315.349609375 c 1,12,13
 -219.643554688 214.0625 -219.643554688 214.0625 -171.465820312 169.59765625 c 0,14,15
 -78.6337890625 92.361328125 -78.6337890625 92.361328125 178.587890625 84.60546875 c 128,-1,16
 435.809570312 76.849609375 435.809570312 76.849609375 678.275390625 156.267578125 c 0,17,18
 823.0859375 209.206054688 823.0859375 209.206054688 893.578125 290.53515625 c 1,0,-1
EndSplineSet
EndChar
StartChar: arBeh.init
Encoding: 65563 -1 71
Width: 872
VWidth: 0
Flags: W
LayerCount: 2
Back
SplineSet
704.661132812 848.955078125 m 0,2,3
 623.959960938 906.494140625 623.959960938 906.494140625 578.494140625 852.133789062 c 0,4,5
 557.75390625 824.3515625 557.75390625 824.3515625 594.572265625 793.047851562 c 128,-1,6
 631.390625 761.744140625 631.390625 761.744140625 680.110351562 771.684570312 c 0,7,8
 733.135742188 794.985351562 733.135742188 794.985351562 810.891601562 838.129882812 c 0,9,10
 825.3828125 844.467773438 825.3828125 844.467773438 824.338867188 832.021484375 c 2,11,-1
 820.002929688 753.344726562 l 2,12,13
 819.711914062 743.1171875 819.711914062 743.1171875 810.759765625 737.65625 c 0,14,15
 710.158203125 686.751953125 710.158203125 686.751953125 493.811523438 558.901367188 c 0,16,17
 484.072265625 552.790039062 484.072265625 552.790039062 483.220703125 560.805664062 c 0,18,19
 477.879882812 646.701171875 477.879882812 646.701171875 542.825195312 691.3671875 c 1,20,21
 467.91015625 743.927734375 467.91015625 743.927734375 486.868164062 814.619140625 c 0,22,23
 603.69140625 1077.54589844 603.69140625 1077.54589844 734.163085938 946.396484375 c 0,24,25
 747.59375 935.349609375 747.59375 935.349609375 748.547851562 922.416992188 c 0,26,27
 742.947265625 885.67578125 742.947265625 885.67578125 730.811523438 863.836914062 c 128,-1,28
 718.67578125 841.999023438 718.67578125 841.999023438 704.661132812 848.955078125 c 0,2,3
627.887695312 981.395507812 m 1,46,-1
 716.041992188 888.216796875 l 1,47,-1
 619.538085938 794.950195312 l 1,48,-1
 532.04296875 886.795898438 l 1,49,-1
 627.887695312 981.395507812 l 1,46,-1
514.918945312 803.51953125 m 1,50,-1
 603.073242188 710.340820312 l 1,51,-1
 506.569335938 617.088867188 l 1,52,-1
 419.07421875 708.934570312 l 1,53,-1
 514.918945312 803.51953125 l 1,50,-1
724.025390625 810.7265625 m 1,54,-1
 812.194335938 717.5625 l 1,55,-1
 715.690429688 624.295898438 l 1,56,-1
 628.180664062 716.141601562 l 1,57,-1
 724.025390625 810.7265625 l 1,54,-1
703.1796875 182.950195312 m 1,0,1
 691.086914062 277.37890625 691.086914062 277.37890625 637.071289062 359.712890625 c 1,2,-1
 698.946289062 462.442382812 l 2,3,4
 706.495117188 474.161132812 706.495117188 474.161132812 715.499023438 460.376953125 c 0,5,6
 766.166992188 379.8046875 766.166992188 379.8046875 772.2890625 262.194335938 c 128,-1,7
 778.412109375 144.584960938 778.412109375 144.584960938 749.263671875 116.153320312 c 0,8,9
 669.2890625 2.4814453125 669.2890625 2.4814453125 433.52734375 -20.26171875 c 128,-1,10
 197.766601562 -43.005859375 197.766601562 -43.005859375 29 16.0166015625 c 0,11,12
 -61.732421875 47.408203125 -61.732421875 47.408203125 -67.23828125 147.19921875 c 0,13,14
 -69.677734375 191.4140625 -69.677734375 191.4140625 -32.376953125 179.09765625 c 0,15,16
 422.087890625 47.7333984375 422.087890625 47.7333984375 703.1796875 182.950195312 c 1,0,1
EndSplineSet
Fore
SplineSet
701.071289062 185.047851562 m 1,0,1
 691.079101562 279.793945312 691.079101562 279.793945312 638.961914062 363.260742188 c 1,2,-1
 703.151367188 464.569335938 l 2,3,4
 710.954101562 476.11328125 710.954101562 476.11328125 719.645507812 462.137695312 c 0,5,6
 768.481445312 380.44140625 768.481445312 380.44140625 771.948242188 262.72265625 c 128,-1,7
 775.4140625 145.004882812 775.4140625 145.004882812 745.631835938 117.240234375 c 0,8,9
 663.114257812 5.400390625 663.114257812 5.400390625 426.900390625 -12.021484375 c 128,-1,10
 190.685546875 -29.4423828125 190.685546875 -29.4423828125 23.2880859375 33.3779296875 c 0,11,12
 -67.4677734375 67.095703125 -67.4677734375 67.095703125 -69.9765625 167.291992188 c 0,13,14
 -71.06640625 210.827148438 -71.06640625 210.827148438 -34.3828125 197.791992188 c 0,15,16
 416.990234375 56.2138671875 416.990234375 56.2138671875 701.071289062 185.047851562 c 1,0,1
EndSplineSet
EndChar
StartChar: arBeh.isol
Encoding: 65546 -1 54
Width: 872
VWidth: 0
GlyphClass: 2
Flags: W
AnchorPoint: "arMarkAbove" 320 700 basechar 0
AnchorPoint: "arMarkBelow" 290 -358 basechar 0
LayerCount: 2
Fore
SplineSet
893.578125 290.53515625 m 1,0,-1
 922.962890625 261.370117188 l 1,1,2
 915.892216976 194.517580474 915.892216976 194.517580474 872.54296875 132.961914062 c 0,3,4
 783.955339027 7.16802358858 783.955339027 7.16802358858 474.537468643 -52.1390982565 c 128,-1,5
 165.119598259 -111.446220102 165.119598259 -111.446220102 -100.713867188 -26.8232421875 c 0,6,7
 -266.991097054 26.7231346349 -266.991097054 26.7231346349 -268.328125 174.490234375 c 0,8,9
 -269.252563477 246.658325195 -269.252563477 246.658325195 -253.350585938 321.384765625 c 0,10,11
 -249.48655002 337.893554688 -249.48655002 337.893554688 -228 337.893554688 c 0,12,13
 -200.704473772 337.893554687 -200.704473772 337.893554687 -203.091796875 315.349609375 c 0,14,15
 -217.126394649 192.261427858 -217.126394649 192.261427858 -171.465820312 157.59765625 c 0,16,17
 -65.2861162921 79.9589267043 -65.2861162921 79.9589267043 191.535832099 72.2149028418 c 0,18,19
 465.168343885 63.9639853712 465.168343885 63.9639853712 678.275390625 144.267578125 c 0,20,21
 803.259536663 191.88671875 803.259536663 191.88671875 893.578125 290.53515625 c 1,0,-1
EndSplineSet
EndChar
StartChar: arBeh.medi
Encoding: 65546 -1 19
Width: 1076
VWidth: 0
Flags: W
LayerCount: 2
Fore
SplineSet
1026.23730469 -74.298828125 m 1,0,1
 974.37890625 -80.13671875 974.37890625 -80.13671875 919.107421875 -76.578125 c 128,-1,2
 863.8359375 -73.01953125 863.8359375 -73.01953125 815.3671875 -60.6591796875 c 128,-1,3
 766.899414062 -48.2998046875 766.899414062 -48.2998046875 717.508789062 -1.8369140625 c 128,-1,4
 668.1171875 44.6259765625 668.1171875 44.6259765625 628.01953125 124.59765625 c 0,5,6
 582.629882812 225.684570312 582.629882812 225.684570312 543.805664062 120.364257812 c 0,7,8
 498.939453125 11.3369140625 498.939453125 11.3369140625 402.220703125 -38.2119140625 c 128,-1,9
 305.500976562 -87.7607421875 305.500976562 -87.7607421875 215.283203125 -81.4404296875 c 128,-1,10
 125.06640625 -75.119140625 125.06640625 -75.119140625 44.3232421875 -78.4150390625 c 1,11,12
 -45.3369140625 10.6083984375 -45.3369140625 10.6083984375 46.3740234375 90.0419921875 c 1,13,14
 436.20703125 76.81640625 436.20703125 76.81640625 503.258789062 214.846679688 c 0,15,16
 554.39453125 331.786132812 554.39453125 331.786132812 585.869140625 331.63671875 c 128,-1,17
 617.342773438 331.487304688 617.342773438 331.487304688 678.893554688 214.055664062 c 0,18,19
 733.3828125 116.338867188 733.3828125 116.338867188 798.044921875 93.38671875 c 128,-1,20
 862.708007812 70.4345703125 862.708007812 70.4345703125 1027.26269531 79.7001953125 c 0,21,22
 1048.99316406 80.876953125 1048.99316406 80.876953125 1065.4375 51.955078125 c 128,-1,23
 1081.88183594 23.0341796875 1081.88183594 23.0341796875 1073.97558594 -15.4404296875 c 128,-1,24
 1066.06933594 -53.916015625 1066.06933594 -53.916015625 1026.23730469 -74.298828125 c 1,0,1
648.249023438 -378.356445312 m 1,25,-1
 736.403320312 -471.53515625 l 1,26,-1
 639.899414062 -564.787109375 l 1,27,-1
 552.404296875 -472.94140625 l 1,28,-1
 648.249023438 -378.356445312 l 1,25,-1
EndSplineSet
EndChar
StartChar: arDad.init
Encoding: 65547 -1 20
Width: 1009
VWidth: 0
Flags: W
LayerCount: 2
Fore
SplineSet
823.428710938 520.447265625 m 0,0,1
 966.518554688 513.61328125 966.518554688 513.61328125 1003.10644531 398.411132812 c 0,2,3
 1032.00878906 295.385742188 1032.00878906 295.385742188 922.7890625 187.737304688 c 0,4,5
 762.537109375 25.9658203125 762.537109375 25.9658203125 500.079101562 78.1083984375 c 0,6,7
 414.0234375 95.685546875 414.0234375 95.685546875 364.991210938 176.868164062 c 1,8,9
 211.102539062 -20.5361328125 211.102539062 -20.5361328125 43.94140625 102.29296875 c 1,10,11
 -30.23046875 178.583984375 -30.23046875 178.583984375 20.796875 236.53125 c 1,12,13
 229.565429688 110.920898438 229.565429688 110.920898438 382.466796875 327.659179688 c 0,14,15
 402.518554688 362.122070312 402.518554688 362.122070312 412.657226562 323.557617188 c 2,16,-1
 455.4453125 244.1484375 l 1,17,18
 632.275390625 519.405273438 632.275390625 519.405273438 823.428710938 520.447265625 c 0,0,1
767.69140625 398.118164062 m 0,19,20
 637.92578125 396.614257812 637.92578125 396.614257812 495.81640625 214.807617188 c 1,21,22
 544.67578125 178.416015625 544.67578125 178.416015625 707.021484375 206.84765625 c 128,-1,23
 869.3671875 235.280273438 869.3671875 235.280273438 918.51171875 293.381835938 c 0,24,25
 930.279296875 306.778320312 930.279296875 306.778320312 913.599609375 333.319335938 c 128,-1,26
 896.918945312 359.859375 896.918945312 359.859375 855.923828125 380.905273438 c 128,-1,27
 814.9296875 401.952148438 814.9296875 401.952148438 767.69140625 398.118164062 c 0,19,20
567.051757812 905.173828125 m 1,28,-1
 655.220703125 811.995117188 l 1,29,-1
 558.716796875 718.728515625 l 1,30,-1
 471.20703125 810.57421875 l 1,31,-1
 567.051757812 905.173828125 l 1,28,-1
EndSplineSet
EndChar
StartChar: arDal.isol
Encoding: 65548 -1 56
Width: 872
VWidth: 0
GlyphClass: 2
Flags: W
LayerCount: 2
Back
SplineSet
544.841796875 1121.6484375 m 1,22,-1
 633.010742188 1028.46972656 l 1,23,-1
 536.4921875 935.217773438 l 1,24,-1
 448.997070312 1027.06347656 l 1,25,-1
 544.841796875 1121.6484375 l 1,22,-1
EndSplineSet
Fore
SplineSet
595.598632812 592.83984375 m 0,0,1
 590.041015625 603.72265625 590.041015625 603.72265625 595.364257812 613.81640625 c 2,2,-1
 666.438476562 752.346679688 l 2,3,4
 673.149414062 764.89453125 673.149414062 764.89453125 681.233398438 752.625 c 0,5,6
 840.451171875 484.502929688 840.451171875 484.502929688 866.360351562 246.31640625 c 0,7,8
 866.48046875 156.130859375 866.48046875 156.130859375 813.010742188 60.5888671875 c 0,9,10
 773.865234375 -2.3486328125 773.865234375 -2.3486328125 613.103515625 -25.0390625 c 128,-1,11
 452.341796875 -47.728515625 452.341796875 -47.728515625 339.587890625 -18.46875 c 0,12,13
 245.161132812 2.8349609375 245.161132812 2.8349609375 271.311523438 194.094726562 c 0,14,15
 274.13671875 216.497070312 274.13671875 216.497070312 293.94140625 216.37109375 c 128,-1,16
 313.74609375 216.24609375 313.74609375 216.24609375 316.6484375 195.999023438 c 0,17,18
 324.920898438 149.703125 324.920898438 149.703125 502.928710938 150.850585938 c 128,-1,19
 680.936523438 151.998046875 680.936523438 151.998046875 787.2734375 196.174804688 c 1,20,21
 732.551757812 357.661132812 732.551757812 357.661132812 595.598632812 592.83984375 c 0,0,1
EndSplineSet
EndChar
StartChar: arFeh.init
Encoding: 65553 -1 31
Width: 842
VWidth: 0
Flags: W
LayerCount: 2
Fore
SplineSet
652.530273438 1087.06347656 m 1,0,-1
 740.684570312 993.884765625 l 1,1,-1
 644.180664062 900.618164062 l 1,2,-1
 556.685546875 992.463867188 l 1,3,-1
 652.530273438 1087.06347656 l 1,0,-1
643.272460938 704.4609375 m 0,4,5
 772.454101562 697.114257812 772.454101562 697.114257812 819.56640625 478.369140625 c 128,-1,6
 866.678710938 259.625 866.678710938 259.625 817.969726562 163.728515625 c 0,7,8
 750.708984375 15.3623046875 750.708984375 15.3623046875 486.3203125 -21.15625 c 128,-1,9
 221.930664062 -57.67578125 221.930664062 -57.67578125 64.703125 15.1787109375 c 0,10,11
 -26.818359375 63.16796875 -26.818359375 63.16796875 11.1162109375 165.392578125 c 0,12,13
 20.0615234375 189.498046875 20.0615234375 189.498046875 45.6748046875 177.17578125 c 0,14,15
 181.654296875 111.733398438 181.654296875 111.733398438 423.375976562 127.502929688 c 128,-1,16
 665.09765625 143.272460938 665.09765625 143.272460938 766.700195312 215.02734375 c 1,17,18
 770.131835938 268.836914062 770.131835938 268.836914062 751.084960938 327.571289062 c 1,19,20
 490.533203125 209.23046875 490.533203125 209.23046875 472.764648438 406.731445312 c 0,21,22
 463.3359375 511.454101562 463.3359375 511.454101562 509.23828125 610.467773438 c 128,-1,23
 555.141601562 709.481445312 555.141601562 709.481445312 643.272460938 704.4609375 c 0,4,5
728.306640625 455.364257812 m 1,24,25
 688.993164062 590.931640625 688.993164062 590.931640625 615.495117188 583.53125 c 128,-1,26
 541.997070312 576.129882812 541.997070312 576.129882812 525.689453125 457.209960938 c 1,27,28
 546.979492188 422.055664062 546.979492188 422.055664062 616.610351562 425.047851562 c 128,-1,29
 686.241210938 428.040039062 686.241210938 428.040039062 728.306640625 455.364257812 c 1,24,25
EndSplineSet
EndChar
StartChar: arFeh.isol
Encoding: 65554 -1 56
Width: 872
VWidth: 0
GlyphClass: 2
Flags: W
AnchorPoint: "arMarkAbove" 709 800 basechar 0
AnchorPoint: "arMarkBelow" 764 -152 basechar 0
LayerCount: 2
Fore
SplineSet
606.107421875 444.251953125 m 0,0,1
 650.840820312 591.665039062 650.840820312 591.665039062 745.068359375 594.7265625 c 0,2,3
 835.758782328 597.672253006 835.758782328 597.672253006 887.049804688 478.79296875 c 0,4,5
 930.660027104 377.715786262 930.660027104 377.715786262 913.000976562 253.342773438 c 0,6,7
 895.05743053 126.965108933 895.05743053 126.965108933 823.475585938 87.85546875 c 0,8,9
 522.894287109 -78 522.894287109 -78 134.321289062 -64.6787109375 c 0,10,11
 -237.295402262 -52.9033714523 -237.295402262 -52.9033714523 -289.336914062 186.29296875 c 0,12,13
 -306.87562192 266.905437267 -306.87562192 266.905437267 -261.900390625 411.869140625 c 0,14,15
 -254 437.333007812 -254 437.333007812 -234 434.333007812 c 0,16,17
 -213.111956549 431.199801295 -213.111956549 431.199801295 -215.772460938 405.936523438 c 0,18,19
 -239.105712891 165.380264282 -239.105712891 165.380264282 -78.736328125 110.23828125 c 0,20,21
 247.640797134 0.687252051331 247.640797134 0.687252051331 689.888916016 155.521803202 c 0,22,23
 783.400146355 188.260821773 783.400146355 188.260821773 847.206054688 237.635742188 c 1,24,25
 855.434570312 263.528320312 855.434570312 263.528320312 848.465820312 294.017578125 c 1,26,27
 743.78125 231.575195312 743.78125 231.575195312 655.447265625 273.668945312 c 128,-1,28
 567.112304688 315.763671875 567.112304688 315.763671875 606.107421875 444.251953125 c 0,0,1
829.364257812 397.875 m 1,29,30
 801.46875 467.430664062 801.46875 467.430664062 744.784179688 482.59375 c 128,-1,31
 688.099609375 497.7578125 688.099609375 497.7578125 651.634765625 422.030273438 c 0,32,33
 644.756835938 400.600585938 644.756835938 400.600585938 672.182617188 382.359375 c 128,-1,34
 699.609375 364.1171875 699.609375 364.1171875 745.701171875 365.866210938 c 128,-1,35
 791.791992188 367.615234375 791.791992188 367.615234375 829.364257812 397.875 c 1,29,30
EndSplineSet
EndChar
StartChar: arGaf.isol
Encoding: 65586 -1 133
Width: 872
VWidth: 0
GlyphClass: 2
Flags: W
AnchorPoint: "arMarkAbove" 799 1247 basechar 0
AnchorPoint: "arMarkBelow" 612 -204 basechar 0
LayerCount: 2
Back
SplineSet
1159.69238281 1395.7421875 m 2,0,-1
 1159.47265625 1291.10839844 l 1,1,-1
 1150.66894531 1275.65429688 l 1,2,3
 715.13671875 1034.33691406 715.13671875 1034.33691406 468.65234375 884.130859375 c 1,4,5
 553.696289062 787.249023438 553.696289062 787.249023438 718.171875 547.858398438 c 128,-1,6
 882.6484375 308.467773438 882.6484375 308.467773438 894.086914062 256.181640625 c 0,7,8
 906.489257812 207.708984375 906.489257812 207.708984375 884.235351562 123.215820312 c 128,-1,9
 861.98046875 38.7216796875 861.98046875 38.7216796875 815.190429688 29.072265625 c 0,10,11
 573.657226562 -49.5498046875 573.657226562 -49.5498046875 160.317382812 16.4892578125 c 4,12,13
 142.518554688 25.9287109375 142.518554688 25.9287109375 134.612304688 63.77734375 c 132,-1,14
 126.706054688 101.625976562 126.706054688 101.625976562 134.025390625 134.704101562 c 132,-1,15
 141.344726562 167.78125 141.344726562 167.78125 161.181640625 165.21484375 c 4,16,17
 545.727539062 74.455078125 545.727539062 74.455078125 829.23828125 172.993164062 c 1,18,19
 722.771484375 346.245117188 722.771484375 346.245117188 390.854492188 805.424804688 c 0,20,21
 370.381835938 828.194335938 370.381835938 828.194335938 379.309570312 896.073242188 c 128,-1,22
 388.237304688 963.952148438 388.237304688 963.952148438 417.456054688 982.788085938 c 0,23,24
 579.161132812 1097.85058594 579.161132812 1097.85058594 1145.30761719 1407.18261719 c 0,25,26
 1158.80761719 1412.94628906 1158.80761719 1412.94628906 1159.69238281 1395.7421875 c 2,0,-1
EndSplineSet
Fore
SplineSet
815.190429688 29.072265625 m 8,0,1
 862.585849288 41.0201015116 862.585849288 41.0201015116 884.235351562 123.215820312 c 0,2,3
 906.489257812 207.708984375 906.489257812 207.708984375 894.086914062 256.181640625 c 0,4,5
 879.557942667 312.965894497 879.557942667 312.965894497 718.171875 547.858398438 c 0,6,7
 553.696289062 787.249023438 553.696289062 787.249023438 468.65234375 884.130859375 c 1,8,9
 715.13671875 1034.33691406 715.13671875 1034.33691406 1150.66894531 1275.65429688 c 1,10,-1
 1159.47265625 1291.10839844 l 1,11,-1
 1159.69238281 1395.7421875 l 2,12,13
 1159.73287261 1415.0234292 1159.73287261 1415.0234292 1145.30761719 1407.18261719 c 0,14,15
 599.825387653 1110.68709662 599.825387653 1110.68709662 417.456054688 982.788085938 c 0,16,17
 387.997409499 962.128189264 387.997409499 962.128189264 379.309570312 896.073242188 c 0,18,19
 370.963595081 832.617538144 370.963595081 832.617538144 390.854492188 805.424804688 c 0,20,21
 688.487273406 398.532705026 688.487273406 398.532705026 821.03125 185.997070312 c 1,22,23
 583.839069092 119.15642854 583.839069092 119.15642854 386.922851562 117.1328125 c 0,24,25
 124.9140625 113.75390625 124.9140625 113.75390625 33.5361328125 186.985351562 c 0,26,27
 -16.8134765625 226.793945312 -16.8134765625 226.793945312 -4.3310546875 331.2421875 c 1,28,29
 -41.2470703125 372.548828125 -41.2470703125 372.548828125 -54.802734375 335.109375 c 0,30,31
 -74.525390625 280.637695312 -74.525390625 280.637695312 -65.4453125 187.620117188 c 0,32,33
 -50.9013671875 38.208984375 -50.9013671875 38.208984375 112.672851562 -6.208984375 c 0,34,35
 213.293268906 -38.3317915893 213.293268906 -38.3317915893 433.708190918 -32.1481075456 c 0,36,37
 599.00525115 -27.5107409621 599.00525115 -27.5107409621 815.190429688 29.072265625 c 8,0,1
EndSplineSet
EndChar
StartChar: arGhayn.init
Encoding: 65552 -1 30
Width: 1026
VWidth: 0
Flags: W
LayerCount: 2
Fore
SplineSet
516.051757812 324.36328125 m 1,0,1
 657.084960938 143.928710938 657.084960938 143.928710938 805.036132812 152.229492188 c 0,2,3
 906.0390625 168.33984375 906.0390625 168.33984375 996.549804688 201.521484375 c 0,4,5
 1038.69628906 215.703125 1038.69628906 215.703125 1021.70117188 174.65625 c 2,6,-1
 984.186523438 69.1728515625 l 2,7,8
 978.4375 53.2236328125 978.4375 53.2236328125 960.983398438 45.6767578125 c 0,9,10
 716.012695312 -51.9140625 716.012695312 -51.9140625 408.592773438 -58.2919921875 c 128,-1,11
 101.172851562 -64.6708984375 101.172851562 -64.6708984375 28.56640625 14.080078125 c 1,12,13
 -22.880859375 104.534179688 -22.880859375 104.534179688 18.3271484375 148.508789062 c 1,14,15
 296.862304688 52.1748046875 296.862304688 52.1748046875 551.544921875 95.056640625 c 1,16,17
 411.479492188 212.791015625 411.479492188 212.791015625 469.396484375 364.6171875 c 0,18,19
 580.740234375 646.54296875 580.740234375 646.54296875 827.228515625 458.044921875 c 1,20,21
 847.451171875 420.89453125 847.451171875 420.89453125 842.873046875 405.837890625 c 1,22,23
 728.71875 421.4765625 728.71875 421.4765625 685.490234375 414.421875 c 0,24,25
 581.615234375 396.002929688 581.615234375 396.002929688 516.051757812 324.36328125 c 1,0,1
605.626953125 860.96484375 m 1,26,-1
 693.78125 767.786132812 l 1,27,-1
 597.27734375 674.534179688 l 1,28,-1
 509.782226562 766.365234375 l 1,29,-1
 605.626953125 860.96484375 l 1,26,-1
EndSplineSet
EndChar
StartChar: arGhayn.medi
Encoding: 65557 -1 35
Width: 954
VWidth: 0
Flags: W
LayerCount: 2
Fore
SplineSet
644.944335938 68.9140625 m 1,0,1
 575.4140625 117.640625 575.4140625 117.640625 548.484375 143.166992188 c 0,2,3
 428.086914062 289.147460938 428.086914062 289.147460938 604.67578125 373.030273438 c 0,4,5
 676.502929688 412.68359375 676.502929688 412.68359375 783.284179688 394.059570312 c 128,-1,6
 890.065429688 375.436523438 890.065429688 375.436523438 936.580078125 299.83203125 c 0,7,8
 957.229492188 268.452148438 957.229492188 268.452148438 953.931640625 219.052734375 c 128,-1,9
 950.633789062 169.653320312 950.633789062 169.653320312 933.2421875 120.59375 c 128,-1,10
 915.850585938 71.5341796875 915.850585938 71.5341796875 867.302734375 22.0908203125 c 128,-1,11
 818.754882812 -27.3525390625 818.754882812 -27.3525390625 748.904296875 -58.8203125 c 0,12,13
 433.495117188 -200.900390625 433.495117188 -200.900390625 88.9482421875 -86.1689453125 c 0,14,15
 11.7939453125 -62.8720703125 11.7939453125 -62.8720703125 0 40.9384765625 c 1,16,17
 24.3359375 66.921875 24.3359375 66.921875 37.78125 74.509765625 c 0,18,19
 182.193359375 22.0576171875 182.193359375 22.0576171875 364.258789062 17.52734375 c 128,-1,20
 546.323242188 12.9970703125 546.323242188 12.9970703125 644.944335938 68.9140625 c 1,0,1
699.641601562 1009.97363281 m 1,21,-1
 809.080078125 894.280273438 l 1,22,-1
 689.270507812 778.513671875 l 1,23,-1
 580.65234375 892.522460938 l 1,24,-1
 699.641601562 1009.97363281 l 1,21,-1
EndSplineSet
EndChar
StartChar: arHah.init
Encoding: 65549 -1 22
Width: 1096
VWidth: 0
Flags: W
LayerCount: 2
Fore
SplineSet
306.360351562 81.90234375 m 0,0,1
 429.009765625 257.727539062 429.009765625 257.727539062 589.646484375 186.287109375 c 0,2,3
 915.563476562 17.91015625 915.563476562 17.91015625 1088.00097656 -2.150390625 c 1,4,-1
 1096.16015625 -24.7822265625 l 1,5,-1
 989.05078125 -177.565429688 l 1,6,7
 862.263671875 -162.997070312 862.263671875 -162.997070312 772.780273438 -181.64453125 c 128,-1,8
 683.296875 -200.29296875 683.296875 -200.29296875 587.987304688 -238.876953125 c 128,-1,9
 492.678710938 -277.459960938 492.678710938 -277.459960938 410.994140625 -292.116210938 c 0,10,11
 115.670898438 -345.0859375 115.670898438 -345.0859375 8.42578125 -200.446289062 c 1,12,13
 -13.904296875 -138.655273438 -13.904296875 -138.655273438 22.9423828125 -131.26171875 c 0,14,15
 384.188476562 -201.877929688 384.188476562 -201.877929688 692.654296875 -49.2890625 c 1,16,17
 465.900390625 97.5205078125 465.900390625 97.5205078125 342.571289062 38.71875 c 0,18,19
 317.239257812 21.994140625 317.239257812 21.994140625 301.125 35.767578125 c 128,-1,20
 285.010742188 49.5400390625 285.010742188 49.5400390625 306.360351562 81.90234375 c 0,0,1
547.708007812 -561.955078125 m 1,21,-1
 635.862304688 -655.133789062 l 1,22,-1
 539.358398438 -748.385742188 l 1,23,-1
 451.86328125 -656.5546875 l 1,24,-1
 547.708007812 -561.955078125 l 1,21,-1
EndSplineSet
EndChar
StartChar: arHah.isol
Encoding: 65547 -1 55
Width: 872
VWidth: 0
GlyphClass: 2
Flags: W
AnchorPoint: "arMarkBelow" 600 -288 basechar 0
AnchorPoint: "arMarkAbove" 496 792 basechar 0
LayerCount: 2
Back
SplineSet
497.71484375 886.0234375 m 1,26,-1
 585.869140625 792.830078125 l 1,27,-1
 489.365234375 699.578125 l 1,28,-1
 401.870117188 791.423828125 l 1,29,-1
 497.71484375 886.0234375 l 1,26,-1
EndSplineSet
Fore
SplineSet
969.716796875 344.67578125 m 1,0,-1
 923.471679688 198.484375 l 1,1,2
 538.934570312 162.9296875 538.934570312 162.9296875 391.66015625 57.5224609375 c 0,3,4
 27.4423828125 -179.59375 27.4423828125 -179.59375 201.40625 -501.0078125 c 0,5,6
 309.337890625 -690.98046875 309.337890625 -690.98046875 547.220703125 -735.692382812 c 128,-1,7
 785.103515625 -780.404296875 785.103515625 -780.404296875 983.92578125 -688.21484375 c 2,8,-1
 1023.2421875 -672.672851562 l 2,9,10
 1051.62890625 -659.565429688 1051.62890625 -659.565429688 1057.60742188 -674.985351562 c 128,-1,11
 1063.5859375 -690.405273438 1063.5859375 -690.405273438 1047.41210938 -711.872070312 c 0,12,13
 1000.69238281 -775.524414062 1000.69238281 -775.524414062 913.876953125 -824.225585938 c 0,14,15
 671.45703125 -959.094726562 671.45703125 -959.094726562 374.416992188 -834.91015625 c 128,-1,16
 77.376953125 -710.724609375 77.376953125 -710.724609375 65.3955078125 -380.7734375 c 0,17,18
 60.7138671875 -3.7412109375 60.7138671875 -3.7412109375 379.58984375 207.844726562 c 1,19,20
 91.9345703125 254.16796875 91.9345703125 254.16796875 29.08203125 215.989257812 c 1,21,-1
 12.7783203125 232 l 1,22,23
 81.572265625 375.32421875 81.572265625 375.32421875 199.311523438 369.607421875 c 0,24,25
 538.173828125 324.108398438 538.173828125 324.108398438 969.716796875 344.67578125 c 1,0,-1
EndSplineSet
EndChar
StartChar: arHamza.isol
Encoding: 65583 -1 107
Width: 872
VWidth: -1400
Flags: W
LayerCount: 2
Fore
SplineSet
513.831054688 237.8984375 m 0,0,1
 427.640625 314.426757812 427.640625 314.426757812 368.357421875 257.205078125 c 0,2,3
 340.9375 227.649414062 340.9375 227.649414062 379.622070312 186.891601562 c 128,-1,4
 418.307617188 146.133789062 418.307617188 146.133789062 475.876953125 151.58984375 c 0,5,6
 540.046875 171.961914062 540.046875 171.961914062 635.325195312 212.205078125 c 0,7,8
 652.856445312 217.758789062 652.856445312 217.758789062 650.10546875 203.474609375 c 2,9,-1
 635.354492188 113.049804688 l 2,10,11
 633.740234375 101.276367188 633.740234375 101.276367188 622.727539062 96.04296875 c 0,12,13
 500.978515625 49.990234375 500.978515625 49.990234375 221.521484375 -77.072265625 c 1,14,15
 224.779296875 -8.6083984375 224.779296875 -8.6083984375 307.200195312 75.798828125 c 1,16,17
 227.09375 145.853515625 227.09375 145.853515625 257.76171875 225.227539062 c 0,18,19
 425.419921875 514.745117188 425.419921875 514.745117188 560.032226562 346.956054688 c 0,20,21
 574.193359375 332.513671875 574.193359375 332.513671875 573.69921875 317.454101562 c 0,22,23
 562.658203125 275.651367188 562.658203125 275.651367188 545.924804688 251.912109375 c 128,-1,24
 529.19140625 228.171875 529.19140625 228.171875 513.831054688 237.8984375 c 0,0,1
EndSplineSet
EndChar
StartChar: arHamza.kaf
Encoding: 65544 -1 46
Width: 872
VWidth: -1000
GlyphClass: 4
Flags: W
AnchorPoint: "arMarkAbove" 438 0 mark 0
LayerCount: 2
Fore
SplineSet
467.415039062 247.561523438 m 0,0,1
 409.479492188 221.188476562 409.479492188 221.188476562 376.741210938 195.57421875 c 1,2,-1
 541.755859375 160.4765625 l 2,3,4
 635.817382812 138.815429688 635.817382812 138.815429688 554.20703125 41.091796875 c 0,5,6
 497.803710938 -16.0810546875 497.803710938 -16.0810546875 475.8671875 -27.0966796875 c 0,7,8
 416.82421875 -55.5634765625 416.82421875 -55.5634765625 292.131835938 -33.556640625 c 0,9,10
 267.6484375 -27.275390625 267.6484375 -27.275390625 292.087890625 -16.564453125 c 0,11,12
 311.607421875 -9.9287109375 311.607421875 -9.9287109375 386.987304688 8.8505859375 c 128,-1,13
 462.368164062 27.6298828125 462.368164062 27.6298828125 504.607421875 53.923828125 c 1,14,15
 485.575195312 58.3154296875 485.575195312 58.3154296875 438.888671875 68.021484375 c 0,16,17
 342.442382812 88.07421875 342.442382812 88.07421875 322.439453125 95.7890625 c 0,18,19
 241.822265625 126.850585938 241.822265625 126.850585938 337.52734375 241.497070312 c 0,20,21
 411.818359375 325.198242188 411.818359375 325.198242188 482.385742188 372.512695312 c 0,22,23
 497.797851562 379.825195312 497.797851562 379.825195312 499.59375 377.501953125 c 128,-1,24
 501.389648438 375.1796875 501.389648438 375.1796875 500.432617188 363.2109375 c 2,25,-1
 484.626953125 270.530273438 l 2,26,27
 482.479492188 257.81640625 482.479492188 257.81640625 467.415039062 247.561523438 c 0,0,1
EndSplineSet
EndChar
StartChar: arHeh.fina
Encoding: 65597 -1 154
Width: 872
GlyphClass: 2
Flags: W
AnchorPoint: "arMarkAbove" 514 862 basechar 0
AnchorPoint: "arMarkBelow" 644 -90 basechar 0
LayerCount: 2
Back
SplineSet
387.362304688 584.944335938 m 5,0,-1
 443.685546875 593.557617188 l 5,1,2
 671.102539062 194.368164062 671.102539062 194.368164062 643.387695312 85.4765625 c 4,3,4
 622.18359375 18.2900390625 622.18359375 18.2900390625 512.659179688 -10.8642578125 c 132,-1,5
 403.133789062 -40.017578125 403.133789062 -40.017578125 308.056640625 -9.1201171875 c 132,-1,6
 212.979492188 21.77734375 212.979492188 21.77734375 227.533203125 101.560546875 c 4,7,8
 247.512695312 190.630859375 247.512695312 190.630859375 359.57421875 432.131835938 c 5,9,-1
 328.958984375 467.15625 l 5,10,-1
 387.362304688 584.944335938 l 5,0,-1
416.014648438 376.877929688 m 5,11,12
 359.251953125 289.008789062 359.251953125 289.008789062 310.82421875 147.234375 c 5,13,14
 438.372070312 77.2373046875 438.372070312 77.2373046875 563.758789062 177.336914062 c 5,15,16
 490.65234375 297.044921875 490.65234375 297.044921875 416.014648438 376.877929688 c 5,11,12
745.049804688 740 m 2,0,1
 767.396830771 770.998083908 767.396830771 770.998083908 771.450195312 725.599609375 c 0,2,3
 773.849609375 694.400390625 773.849609375 694.400390625 794.650390625 532.400390625 c 128,-1,4
 815.450195312 370.400390625 815.450195312 370.400390625 818.650390625 340.799804688 c 0,5,6
 833.662067614 198.534208356 833.662067614 198.534208356 874.650390625 172.400390625 c 0,7,8
 985.58071595 101.509765625 985.58071595 101.509765625 973.715162662 61.5546875 c 128,-1,9
 961.849609375 21.599609375 961.849609375 21.599609375 946.650390625 20 c 0,10,11
 853.049804688 12 853.049804688 12 809.450195312 66.400390625 c 128,-1,12
 765.849609375 120.799804688 765.849609375 120.799804688 748.25 261.599609375 c 1,13,14
 661.428710938 168.742248535 661.428710938 168.742248535 540.668207387 175.830300096 c 128,-1,15
 419.907703836 182.918351657 419.907703836 182.918351657 430.650390625 246 c 0,16,17
 436.41494594 279.849786219 436.41494594 279.849786219 461.849609375 334.799804688 c 0,18,19
 515.858244818 446.906580521 515.858244818 446.906580521 710.650390625 552.799804688 c 1,20,21
 698.481307147 620 698.481307147 620 698.451171875 652.259765625 c 0,22,23
 698.170191538 674.972189297 698.170191538 674.972189297 720.25 705.599609375 c 2,24,-1
 745.049804688 740 l 2,0,1
721.849609375 452.799804688 m 1,25,26
 594.650390625 393.799804688 594.650390625 393.799804688 538.650390625 342.400390625 c 0,27,28
 530.304466145 332.654730924 530.304466145 332.654730924 542.650390625 325.599609375 c 0,29,30
 609.849609375 292.799804688 609.849609375 292.799804688 720.25 316.799804688 c 0,31,32
 729.849609375 319.200195312 729.849609375 319.200195312 738.650390625 328 c 1,33,34
 733.049804688 380 733.049804688 380 721.849609375 452.799804688 c 1,25,26
EndSplineSet
Fore
SplineSet
745.049804688 740 m 2,0,1
 767.396830771 770.998083906 767.396830771 770.998083906 771.450195312 725.599609375 c 0,2,3
 773.849609375 694.400390625 773.849609375 694.400390625 794.650390625 532.400390625 c 128,-1,4
 815.450195312 370.400390625 815.450195312 370.400390625 818.650390625 340.799804688 c 0,5,6
 833.662067614 198.534208356 833.662067614 198.534208356 874.650390625 172.400390625 c 0,7,8
 985.58071595 101.509765625 985.58071595 101.509765625 973.715162662 61.5546875 c 128,-1,9
 961.849609375 21.599609375 961.849609375 21.599609375 946.650390625 20 c 0,10,11
 853.049804688 12 853.049804688 12 809.449707031 56.3999023438 c 128,-1,12
 765.849609375 100.799804688 765.849609375 100.799804688 748.25 241.599609375 c 1,13,14
 624.747565278 133.413787935 624.747565278 133.413787935 480.66796875 145.830078125 c 0,15,16
 360.322851266 157.945488137 360.322851266 157.945488137 380.650390625 256 c 0,17,18
 392.393228856 316.883690333 392.393228856 316.883690333 401.849609375 334.799804688 c 0,19,20
 464.160810174 459.910467413 464.160810174 459.910467413 707.650390625 582.799804688 c 1,21,22
 698.560316407 650 698.560316407 650 698.451171875 652.259765625 c 0,23,24
 698.170191538 674.972189298 698.170191538 674.972189298 720.25 705.599609375 c 2,25,-1
 745.049804688 740 l 2,0,1
718.849609375 482.799804688 m 1,26,27
 589.317260742 436.742248535 589.317260742 436.742248535 478.650390625 342.400390625 c 0,28,29
 443.920354192 311.512269453 443.920354192 311.512269453 482.650390625 295.599609375 c 0,30,31
 590.789602953 254.428120461 590.789602953 254.428120461 720.25 286.799804688 c 0,32,33
 729.849609375 289.200195312 729.849609375 289.200195312 738.650390625 298 c 1,34,35
 735.312600583 350 735.312600583 350 718.849609375 482.799804688 c 1,26,27
EndSplineSet
EndChar
StartChar: arHeh.fina2
Encoding: 65593 -1 133
Width: 872
VWidth: 0
GlyphClass: 2
Flags: W
AnchorPoint: "arMarkAbove" 710.151 378.368 basechar 0
AnchorPoint: "arMarkBelow" 733.604 -368.729 basechar 0
LayerCount: 2
Back
SplineSet
435 -28 m 0,0,1
 201 -52 201 -52 28.6748046875 -5.0986328125 c 0,2,3
 -63.6842052203 20.6649968207 -63.6842052203 20.6649968207 -72.275390625 123.12109375 c 0,4,5
 -75.7958858401 165.096882956 -75.7958858401 165.096882956 -38.5302734375 155.654296875 c 0,6,7
 218.519090766 89.8880517726 218.519090766 89.8880517726 423 109 c 0,8,9
 694.596863723 134.38498688 694.596863723 134.38498688 843.578125 290.53515625 c 1,10,-1
 872.962890625 261.370117188 l 1,11,12
 865.892216976 194.517580475 865.892216976 194.517580475 822.54296875 132.961914062 c 0,13,14
 730.260983426 2.28317778729 730.260983426 2.28317778729 435 -28 c 0,0,1
EndSplineSet
Fore
SplineSet
932.596679688 125.221679688 m 0,0,1
 961.080111795 123.29296647 961.080111795 123.29296647 960.338867188 102.681640625 c 2,2,-1
 957.030273438 10.681640625 l 2,3,4
 955.877678613 -21.3678437959 955.877678613 -21.3678437959 930.596679688 -16.091796875 c 0,5,6
 872 -6.318359375 872 -6.318359375 802.877929688 20.248046875 c 0,7,8
 771.944870952 31.2418450065 771.944870952 31.2418450065 755.536132812 15.2685546875 c 2,9,-1
 584.493164062 -151.235351562 l 9,10,-1
 525.009765625 -126.848632812 l 17,11,12
 634.1171875 100.807617188 634.1171875 100.807617188 686.462890625 169.775390625 c 0,13,14
 712.08984375 203.541015625 712.08984375 203.541015625 748.87890625 188.609375 c 0,15,16
 893.504623702 129.909884136 893.504623702 129.909884136 932.596679688 125.221679688 c 0,0,1
EndSplineSet
EndChar
StartChar: arHeh.fina3
Encoding: 65591 -1 131
Width: 872
VWidth: 0
GlyphClass: 2
Flags: W
AnchorPoint: "arMarkAbove" 563 857 basechar 0
AnchorPoint: "arMarkBelow" 464 -214 basechar 0
LayerCount: 2
Fore
SplineSet
280 163 m 0,0,1
 139.926988152 312 139.926988152 312 389.5625 525.940429688 c 1,2,3
 412.8515625 734.485351562 412.8515625 734.485351562 550.783203125 631.6875 c 0,4,5
 737.083984375 492.837890625 737.083984375 492.837890625 817.258789062 380.9375 c 0,6,7
 901.48046875 263.388671875 901.48046875 263.388671875 881.28125 95.994140625 c 0,8,9
 877.134765625 61.634765625 877.134765625 61.634765625 851.565429688 23.8125 c 0,10,11
 815.185546875 -30 815.185546875 -30 738.3671875 -27.4912109375 c 0,12,13
 628.405523566 -25.1435734307 628.405523566 -25.1435734307 436 61.166015625 c 0,14,15
 329.714693579 108.143554688 329.714693579 108.143554688 280 163 c 0,0,1
725 108.866210938 m 0,16,17
 777.484506566 97.1640625 777.484506566 97.1640625 812.272460938 103.889648438 c 1,18,19
 780.924804688 257.83203125 780.924804688 257.83203125 618.3125 376.995117188 c 1,20,21
 584.856563409 59.8958109451 584.856563409 59.8958109451 305.9140625 -19.6865234375 c 0,22,23
 192.392578125 -52.07421875 192.392578125 -52.07421875 135.814453125 36.2744140625 c 0,24,25
 116.969224526 65.6998910628 116.969224526 65.6998910628 155.737304688 76.412109375 c 0,26,27
 433.180175781 153.073852539 433.180175781 153.073852539 532.311523438 290.481445312 c 1,28,29
 510.099609375 380.0078125 510.099609375 380.0078125 459.58203125 437.493164062 c 1,30,31
 338.506835938 395.594726562 338.506835938 395.594726562 309.801757812 321.448242188 c 1,32,33
 314.342560733 285.270749556 314.342560733 285.270749556 367 256 c 0,34,35
 572.91814515 142.774969094 572.91814515 142.774969094 725 108.866210938 c 0,16,17
EndSplineSet
EndChar
StartChar: arHeh.init
Encoding: 65572 -1 80
Width: 872
VWidth: 0
GlyphClass: 2
Flags: W
AnchorPoint: "arMarkAbove" 563 857 basechar 0
AnchorPoint: "arMarkBelow" 464 -214 basechar 0
LayerCount: 2
Back
SplineSet
288.708007812 152.639648438 m 1,0,1
 132.345703125 304.598632812 132.345703125 304.598632812 389.5625 525.940429688 c 1,2,3
 412.8515625 734.485351562 412.8515625 734.485351562 550.783203125 631.6875 c 0,4,5
 737.083984375 492.837890625 737.083984375 492.837890625 817.258789062 380.9375 c 0,6,7
 901.48046875 263.388671875 901.48046875 263.388671875 881.28125 95.994140625 c 0,8,9
 877.134765625 61.634765625 877.134765625 61.634765625 851.565429688 23.8125 c 0,10,11
 815.185546875 -30 815.185546875 -30 738.3671875 -27.4912109375 c 0,12,13
 625.66015625 -25.0849609375 625.66015625 -25.0849609375 437.829101562 61.4091796875 c 1,14,15
 293.6015625 -26.638671875 293.6015625 -26.638671875 123.185546875 -35.2080078125 c 0,16,17
 3.05859375 -41.1337890625 3.05859375 -41.1337890625 -81.0478515625 -8.68359375 c 0,18,19
 -193.670898438 35.365234375 -193.670898438 35.365234375 -192.661132812 132.344726562 c 0,20,21
 -192.303710938 166.665039062 -192.303710938 166.665039062 -154 155 c 0,22,23
 145.989257812 63.6416015625 145.989257812 63.6416015625 288.708007812 152.639648438 c 1,0,1
459.58203125 437.493164062 m 1,24,25
 338.506835938 395.594726562 338.506835938 395.594726562 309.801757812 321.448242188 c 1,26,27
 313.487304688 272.81640625 313.487304688 272.81640625 433.654296875 221.0625 c 1,28,29
 515.1953125 265.139648438 515.1953125 265.139648438 532.311523438 290.481445312 c 1,30,31
 510.099609375 380.0078125 510.099609375 380.0078125 459.58203125 437.493164062 c 1,24,25
618.3125 376.995117188 m 1,32,33
 615.138671875 286.368164062 615.138671875 286.368164062 551.442382812 173.1328125 c 1,34,35
 744.37890625 88.9501953125 744.37890625 88.9501953125 812.272460938 103.889648438 c 1,36,37
 780.924804688 257.83203125 780.924804688 257.83203125 618.3125 376.995117188 c 1,32,33
EndSplineSet
Fore
SplineSet
288.708007812 152.639648438 m 1,0,1
 132.345703125 304.598632812 132.345703125 304.598632812 389.5625 525.940429688 c 1,2,3
 412.8515625 734.485351562 412.8515625 734.485351562 550.783203125 631.6875 c 0,4,5
 737.083984375 492.837890625 737.083984375 492.837890625 817.258789062 380.9375 c 0,6,7
 901.48046875 263.388671875 901.48046875 263.388671875 881.28125 95.994140625 c 0,8,9
 877.134765625 61.634765625 877.134765625 61.634765625 851.565429688 23.8125 c 0,10,11
 815.185546875 -30 815.185546875 -30 738.3671875 -27.4912109375 c 0,12,13
 625.66015625 -25.0849609375 625.66015625 -25.0849609375 437.829101562 61.4091796875 c 1,14,15
 224.790286191 -59.0976498004 224.790286191 -59.0976498004 38.9521484375 -7.68359375 c 0,16,17
 -69.6605285115 22.365234375 -69.6605285115 22.365234375 -72.6611328125 132.344726562 c 0,18,19
 -72.3180456528 165.29513327 -72.3180456528 165.29513327 -34 155 c 0,20,21
 157.26373291 108 157.26373291 108 288.708007812 152.639648438 c 1,0,1
459.58203125 437.493164062 m 1,22,23
 338.506835938 395.594726562 338.506835938 395.594726562 309.801757812 321.448242188 c 1,24,25
 313.487304688 272.81640625 313.487304688 272.81640625 433.654296875 221.0625 c 1,26,27
 515.1953125 265.139648438 515.1953125 265.139648438 532.311523438 290.481445312 c 1,28,29
 510.099609375 380.0078125 510.099609375 380.0078125 459.58203125 437.493164062 c 1,22,23
618.3125 376.995117188 m 1,30,31
 615.138671875 286.368164062 615.138671875 286.368164062 551.442382812 173.1328125 c 1,32,33
 744.37890625 88.9501953125 744.37890625 88.9501953125 812.272460938 103.889648438 c 1,34,35
 780.924804688 257.83203125 780.924804688 257.83203125 618.3125 376.995117188 c 1,30,31
EndSplineSet
EndChar
StartChar: arHeh.isol
Encoding: 65560 -1 68
Width: 872
VWidth: 0
GlyphClass: 2
Flags: W
AnchorPoint: "arMarkAbove" 378.771 855 basechar 0
AnchorPoint: "arMarkBelow" 463.771 -232 basechar 0
LayerCount: 2
Fore
SplineSet
387.362304688 584.944335938 m 5,0,-1
 443.685546875 593.557617188 l 5,1,2
 671.102539062 194.368164062 671.102539062 194.368164062 643.387695312 85.4765625 c 4,3,4
 622.18359375 18.2900390625 622.18359375 18.2900390625 512.659179688 -10.8642578125 c 132,-1,5
 403.133789062 -40.017578125 403.133789062 -40.017578125 308.056640625 -9.1201171875 c 132,-1,6
 212.979492188 21.77734375 212.979492188 21.77734375 227.533203125 101.560546875 c 4,7,8
 247.512695312 190.630859375 247.512695312 190.630859375 359.57421875 432.131835938 c 5,9,-1
 328.958984375 467.15625 l 5,10,-1
 387.362304688 584.944335938 l 5,0,-1
416.014648438 376.877929688 m 5,11,12
 359.251953125 289.008789062 359.251953125 289.008789062 310.82421875 147.234375 c 5,13,14
 438.372070312 77.2373046875 438.372070312 77.2373046875 563.758789062 177.336914062 c 5,15,16
 490.65234375 297.044921875 490.65234375 297.044921875 416.014648438 376.877929688 c 5,11,12
EndSplineSet
EndChar
StartChar: arHeh.medi
Encoding: 65556 -1 34
Width: 943
VWidth: 0
Flags: W
LayerCount: 2
Fore
SplineSet
909.946289062 -190.71484375 m 0,0,1
 685.6015625 -214.935546875 685.6015625 -214.935546875 682.543945312 -443.913085938 c 0,2,3
 674.473632812 -532.34375 674.473632812 -532.34375 782.563476562 -700.700195312 c 0,4,5
 787.338867188 -707.935546875 787.338867188 -707.935546875 782.40234375 -715.685546875 c 2,6,-1
 684.594726562 -846.525390625 l 2,7,8
 680.286132812 -851.548828125 680.286132812 -851.548828125 674.428710938 -846.862304688 c 0,9,10
 378.826171875 -604.790039062 378.826171875 -604.790039062 460.708007812 -154.533203125 c 1,11,12
 241.405273438 -230.997070312 241.405273438 -230.997070312 52.822265625 -163.600585938 c 0,13,14
 -18.2607421875 -136.86328125 -18.2607421875 -136.86328125 6.3125 -26.306640625 c 1,15,16
 34.7373046875 0.630859375 34.7373046875 0.630859375 53.9208984375 5.3837890625 c 0,17,18
 366.969726562 -155.22265625 366.969726562 -155.22265625 621.123046875 109.182617188 c 0,19,20
 633.853515625 125.2109375 633.853515625 125.2109375 651.696289062 118.739257812 c 128,-1,21
 669.5390625 112.266601562 669.5390625 112.266601562 660.834960938 86.4921875 c 0,22,23
 647.022460938 49.91796875 647.022460938 49.91796875 601.604492188 -49.931640625 c 128,-1,24
 556.186523438 -149.78125 556.186523438 -149.78125 545.630859375 -193.654296875 c 128,-1,25
 535.075195312 -237.526367188 535.075195312 -237.526367188 542.260742188 -331.850585938 c 128,-1,26
 549.447265625 -426.174804688 549.447265625 -426.174804688 597.319335938 -535.348632812 c 1,27,28
 637.189453125 -22.2001953125 637.189453125 -22.2001953125 904.379882812 -32.9951171875 c 0,29,30
 942.9375 -34.666015625 942.9375 -34.666015625 943.696289062 -110.280273438 c 128,-1,31
 944.455078125 -185.89453125 944.455078125 -185.89453125 909.946289062 -190.71484375 c 0,0,1
EndSplineSet
EndChar
StartChar: arHeh.medi2
Encoding: 65591 -1 138
Width: 872
VWidth: 0
GlyphClass: 2
Flags: W
AnchorPoint: "arMarkAbove" 876.7 692.6 basechar 0
AnchorPoint: "arMarkBelow" 863.5 -607.8 basechar 0
LayerCount: 2
Fore
SplineSet
814.85546875 62.248046875 m 1,0,1
 1012.5625 -24.541015625 1012.5625 -24.541015625 993.65625 -241.19921875 c 0,2,3
 979.474609375 -408.983398438 979.474609375 -408.983398438 850.456054688 -410.799804688 c 0,4,5
 673.65625 -413.19921875 673.65625 -413.19921875 637.65625 -78 c 1,6,-1
 590.456054688 -71.599609375 l 1,7,-1
 591.099609375 -8.5361328125 l 1,8,9
 497.440154286 -34.1108167622 497.440154286 -34.1108167622 284 -33.01953125 c 0,10,11
 106.961900551 -32.099609375 106.961900551 -32.099609375 29.380859375 -4.8349609375 c 0,12,13
 -71.3525390625 30.287109375 -71.3525390625 30.287109375 -72.2578125 130.61328125 c 0,14,15
 -72.5957696172 168.113664195 -72.5957696172 168.113664195 -25.8740234375 154.071289062 c 0,16,17
 127.631703928 110.137693897 127.631703928 110.137693897 285 107.971679688 c 0,18,19
 539.495322195 104.438476562 539.495322195 104.438476562 627.163085938 143.041992188 c 1,20,21
 697.630859375 376.614257812 697.630859375 376.614257812 798.85546875 466.200195312 c 0,22,23
 948.262695312 598.427734375 948.262695312 598.427734375 968.055664062 471.600585938 c 0,24,25
 998.85546875 274.248046875 998.85546875 274.248046875 814.85546875 62.248046875 c 1,0,1
704.055664062 -86 m 1,26,27
 760.85546875 -311.955078125 760.85546875 -311.955078125 936.055664062 -238 c 0,28,29
 955.771484375 -228.854492188 955.771484375 -228.854492188 941.65625 -206.799804688 c 1,30,31
 880.85546875 -118.799804688 880.85546875 -118.799804688 704.055664062 -86 c 1,26,27
828.85546875 344.400390625 m 0,32,33
 728.85546875 287.600585938 728.85546875 287.600585938 697.65625 163.600585938 c 1,34,35
 853.65625 225.200195312 853.65625 225.200195312 901.65625 294.80078125 c 0,36,37
 911.255859375 307.600585938 911.255859375 307.600585938 904.055664062 320.400390625 c 0,38,39
 875.877929688 370.045898438 875.877929688 370.045898438 828.85546875 344.400390625 c 0,32,33
EndSplineSet
EndChar
StartChar: arKaf.init
Encoding: 65569 -1 77
Width: 872
VWidth: 0
GlyphClass: 2
Flags: W
AnchorPoint: "arMarkAbove" 729 1247 basechar 0
AnchorPoint: "arMarkBelow" 542 -204 basechar 0
LayerCount: 2
Fore
SplineSet
815 141 m 16,0,1
 791 83 791 83 714 45 c 0,2,3
 616.846241214 -2.94601082937 616.846241214 -2.94601082937 468.938964844 -25.6342773438 c 0,4,5
 219.250875227 -64.1304669333 219.250875227 -64.1304669333 28.6748046875 -5.0986328125 c 0,6,7
 -63.900390625 23.2431640625 -63.900390625 23.2431640625 -72.275390625 123.12109375 c 0,8,9
 -75.7958858401 165.096882956 -75.7958858401 165.096882956 -38.5302734375 155.654296875 c 0,10,11
 219.4656854 90.2817216567 219.4656854 90.2817216567 417.05657959 107.084181683 c 0,12,13
 602.811047463 122.880112127 602.811047463 122.880112127 735.180664062 211.30078125 c 1,14,15
 592.621632847 434.194775931 592.621632847 434.194775931 320.854492188 805.424804688 c 0,16,17
 300.961136385 832.598844304 300.961136385 832.598844304 309.309570312 896.073242188 c 0,18,19
 317.997409499 962.128189264 317.997409499 962.128189264 347.456054688 982.788085938 c 0,20,21
 529.825387653 1110.68709662 529.825387653 1110.68709662 1075.30761719 1407.18261719 c 0,22,23
 1089.73287261 1415.0234292 1089.73287261 1415.0234292 1089.69238281 1395.7421875 c 2,24,-1
 1089.47265625 1291.10839844 l 1,25,-1
 1080.66894531 1275.65429688 l 1,26,27
 645.13671875 1034.33691406 645.13671875 1034.33691406 398.65234375 884.130859375 c 1,28,29
 483.696289062 787.249023438 483.696289062 787.249023438 648.171875 547.858398438 c 0,30,31
 809.557942667 312.965894497 809.557942667 312.965894497 824.086914062 256.181640625 c 0,32,33
 838.204898976 202.574878888 838.204898976 202.574878888 815 141 c 16,0,1
EndSplineSet
EndChar
StartChar: arKaf.isol
Encoding: 65556 -1 58
Width: 872
VWidth: 0
GlyphClass: 2
Flags: W
AnchorPoint: "arMarkAbove" 399 520 basechar 0
AnchorPoint: "arMarkBelow" 392 -268 basechar 0
LayerCount: 2
Fore
SplineSet
831.151367188 1143.76269531 m 0,0,1
 825.200018715 1041.62313524 825.200018715 1041.62313524 866.9765625 243.1328125 c 0,2,3
 875.611002568 78.099609375 875.611002568 78.099609375 808.080078125 15.8916015625 c 1,4,5
 665.453125 -40.529296875 665.453125 -40.529296875 416.818359375 -52.908203125 c 128,-1,6
 168.18359375 -65.2880859375 168.18359375 -65.2880859375 7.6162109375 -24.171875 c 0,7,8
 -310.717127877 57.1487934514 -310.717127877 57.1487934514 -131.177734375 405.73046875 c 0,9,10
 -118.862616575 429.640677593 -118.862616575 429.640677593 -99.58984375 419.796875 c 0,11,12
 -79.9792568955 409.780529792 -79.9792568955 409.780529792 -90.513671875 386.775390625 c 0,13,14
 -190.520964933 173.714816429 -190.520964933 173.714816429 44.4423828125 117.89453125 c 0,15,16
 182.068952315 86.2466114471 182.068952315 86.2466114471 349.516601562 87.7666015625 c 0,17,18
 619.887689715 90.2431640625 619.887689715 90.2431640625 797.97265625 164.353515625 c 1,19,-1
 727.059570312 1014.88574219 l 0,20,21
 726.215832794 1035.4967654 726.215832794 1035.4967654 735.907226562 1049.04589844 c 2,22,-1
 808.329101562 1150.29589844 l 2,23,24
 833.589781959 1185.61180113 833.589781959 1185.61180113 831.151367188 1143.76269531 c 0,0,1
EndSplineSet
EndChar
StartChar: arKaf.medi
Encoding: 65543 -1 15
Width: 1029
VWidth: 0
Flags: W
LayerCount: 2
Fore
SplineSet
1029.18554688 1422.7421875 m 2,0,-1
 1028.96582031 1318.10839844 l 1,1,-1
 1020.16210938 1302.65429688 l 1,2,3
 584.629882812 1061.33691406 584.629882812 1061.33691406 338.145507812 911.130859375 c 1,4,5
 423.189453125 814.249023438 423.189453125 814.249023438 587.665039062 574.858398438 c 128,-1,6
 752.141601562 335.467773438 752.141601562 335.467773438 763.580078125 283.181640625 c 0,7,8
 775.982421875 234.708984375 775.982421875 234.708984375 753.728515625 150.215820312 c 128,-1,9
 731.473632812 65.7216796875 731.473632812 65.7216796875 684.68359375 56.072265625 c 0,10,11
 443.150390625 -22.5498046875 443.150390625 -22.5498046875 29.810546875 43.4892578125 c 0,12,13
 12.01171875 52.9287109375 12.01171875 52.9287109375 4.10546875 90.77734375 c 128,-1,14
 -3.80078125 128.625976562 -3.80078125 128.625976562 3.5185546875 161.704101562 c 128,-1,15
 10.837890625 194.78125 10.837890625 194.78125 30.6748046875 192.21484375 c 0,16,17
 415.220703125 101.455078125 415.220703125 101.455078125 698.731445312 199.993164062 c 1,18,19
 592.264648438 373.245117188 592.264648438 373.245117188 260.34765625 832.424804688 c 0,20,21
 239.875 855.194335938 239.875 855.194335938 248.802734375 923.073242188 c 128,-1,22
 257.73046875 990.952148438 257.73046875 990.952148438 286.94921875 1009.78808594 c 0,23,24
 448.654296875 1124.85058594 448.654296875 1124.85058594 1014.80078125 1434.18261719 c 0,25,26
 1028.30078125 1439.94628906 1028.30078125 1439.94628906 1029.18554688 1422.7421875 c 2,0,-1
EndSplineSet
EndChar
StartChar: arKhah.init
Encoding: 65550 -1 23
Width: 1130
VWidth: 0
Flags: W
LayerCount: 2
Fore
SplineSet
340.736328125 209.592773438 m 0,0,1
 463.36328125 385.436523438 463.36328125 385.436523438 624.022460938 313.9921875 c 0,2,3
 949.939453125 145.615234375 949.939453125 145.615234375 1122.37695312 125.5546875 c 1,4,-1
 1130.53613281 102.922851562 l 1,5,-1
 1023.42675781 -49.8603515625 l 1,6,7
 896.232421875 -35.24609375 896.232421875 -35.24609375 806.775390625 -51.865234375 c 128,-1,8
 717.317382812 -68.4853515625 717.317382812 -68.4853515625 620.068359375 -105.272460938 c 128,-1,9
 522.819335938 -142.05859375 522.819335938 -142.05859375 442.704101562 -156.427734375 c 0,10,11
 188.564453125 -200.4375 188.564453125 -200.4375 89.310546875 -141.354492188 c 0,12,13
 -40.583984375 -48.6572265625 -40.583984375 -48.6572265625 18.4423828125 -4.4833984375 c 0,14,15
 30.580078125 4.6005859375 30.580078125 4.6005859375 57.318359375 -1.212890625 c 0,16,17
 439.385742188 -63.86328125 439.385742188 -63.86328125 727.030273438 78.416015625 c 1,18,19
 500.284179688 225.221679688 500.284179688 225.221679688 376.947265625 166.409179688 c 0,20,21
 351.615234375 149.684570312 351.615234375 149.684570312 335.500976562 163.45703125 c 128,-1,22
 319.38671875 177.23046875 319.38671875 177.23046875 340.736328125 209.592773438 c 0,0,1
620.887695312 619.1484375 m 1,23,-1
 709.041992188 525.969726562 l 1,24,-1
 612.538085938 432.717773438 l 1,25,-1
 525.04296875 524.563476562 l 1,26,-1
 620.887695312 619.1484375 l 1,23,-1
EndSplineSet
EndChar
StartChar: arLam.init
Encoding: 65570 -1 78
Width: 872
VWidth: 0
Flags: W
LayerCount: 2
Fore
SplineSet
734.36328125 1282.70605469 m 2,0,-1
 757.68359375 308.27734375 l 2,1,2
 761.514648438 81.3955078125 761.514648438 81.3955078125 668.9140625 20.904296875 c 0,3,4
 564.905273438 -33.474609375 564.905273438 -33.474609375 348.7890625 -32.626953125 c 128,-1,5
 132.672851562 -31.779296875 132.672851562 -31.779296875 5.076171875 14.927734375 c 0,6,7
 -84.732421875 51.2939453125 -84.732421875 51.2939453125 -85.8310546875 145.203125 c 0,8,9
 -86.3466796875 189.2890625 -86.3466796875 189.2890625 -35.96875 176.79296875 c 0,10,11
 383.548828125 55.619140625 383.548828125 55.619140625 684.939453125 157.735351562 c 1,12,-1
 631.12109375 1140.25 l 2,13,14
 630.439453125 1156.88671875 630.439453125 1156.88671875 639.96875 1174.39550781 c 2,15,-1
 716.653320312 1285.85546875 l 2,16,17
 733.547851562 1310.25097656 733.547851562 1310.25097656 734.36328125 1282.70605469 c 2,0,-1
EndSplineSet
EndChar
StartChar: arLam.isol
Encoding: 65557 -1 65
Width: 872
VWidth: 0
GlyphClass: 2
Flags: W
AnchorPoint: "arMarkAbove" 543 1057 basechar 0
AnchorPoint: "arMarkBelow" 408 -586 basechar 0
LayerCount: 2
Fore
SplineSet
889.421875 1147.41992188 m 2,0,-1
 898.313476562 44.744140625 l 2,1,2
 902.426757812 -196.047851562 902.426757812 -196.047851562 788.831054688 -270.270507812 c 0,3,4
 621.65234375 -402.451171875 621.65234375 -402.451171875 427.313476562 -435.255859375 c 128,-1,5
 232.973632812 -468.060546875 232.973632812 -468.060546875 86.7900390625 -367.814453125 c 0,6,7
 -106.572265625 -227.380859375 -106.572265625 -227.380859375 30.2177734375 199.900390625 c 0,8,9
 55.0244140625 283.79296875 55.0244140625 283.79296875 86.08984375 220.931640625 c 1,10,-1
 87.2734375 187.80078125 l 1,11,12
 33.1767578125 -27.169921875 33.1767578125 -27.169921875 73.3427734375 -135.534179688 c 0,13,14
 158.530273438 -299.364257812 158.530273438 -299.364257812 406.40625 -263.494140625 c 128,-1,15
 654.28125 -227.623046875 654.28125 -227.623046875 802.41015625 -75.4755859375 c 1,16,-1
 786.165039062 1031.15527344 l 2,17,18
 785.142578125 1056.16113281 785.142578125 1056.16113281 794.998046875 1065.31542969 c 2,19,-1
 868.708984375 1149.71972656 l 2,20,21
 887.616210938 1171.58984375 887.616210938 1171.58984375 889.421875 1147.41992188 c 2,0,-1
EndSplineSet
EndChar
StartChar: arLam.medi.1
Encoding: 65579 -1 87
Width: 872
VWidth: 0
GlyphClass: 2
Flags: W
LayerCount: 2
Back
SplineSet
548.786132812 282.6328125 m 0,0,1
 490.431640625 560.544921875 490.431640625 560.544921875 237.287109375 883.716796875 c 1,2,3
 160.012695312 830.015625 160.012695312 830.015625 76.2861328125 962.481445312 c 0,4,5
 0.0537109375 1083.09082031 0.0537109375 1083.09082031 124.84765625 1128.58984375 c 0,6,7
 194.375 1153.93945312 194.375 1153.93945312 261.544921875 1076.35839844 c 0,8,9
 521 777 521 777 597.375 370.772460938 c 0,10,11
 617.317382812 271.455078125 617.317382812 271.455078125 595.336914062 252.3359375 c 24,12,13
 561.354492188 222.77734375 561.354492188 222.77734375 548.786132812 282.6328125 c 0,0,1
EndSplineSet
Fore
SplineSet
704.568359375 1286.43359375 m 0,0,1
 705.813476562 1314.81054688 705.813476562 1314.81054688 717.737304688 1329.55859375 c 2,2,-1
 778.89453125 1416.05761719 l 2,3,4
 798.103515625 1441.3125 798.103515625 1441.3125 799.021484375 1406.66796875 c 0,5,6
 802.548828125 1288.20019531 802.548828125 1288.20019531 803.984375 1058.234375 c 128,-1,7
 805.419921875 828.268554688 805.419921875 828.268554688 809.926757812 719.500976562 c 128,-1,8
 814.43359375 610.733398438 814.43359375 610.733398438 839.806640625 449.34375 c 128,-1,9
 865.1796875 287.954101562 865.1796875 287.954101562 914.905273438 149.861328125 c 0,10,11
 933.118164062 71.7099609375 933.118164062 71.7099609375 854.950195312 75.8251953125 c 1,12,-1
 818.752929688 97.888671875 l 1,13,14
 759.887695312 281.865234375 759.887695312 281.865234375 727.5078125 562.9765625 c 1,15,16
 646.3359375 153.193359375 646.3359375 153.193359375 503.591796875 37.5224609375 c 0,17,18
 385.012695312 -50.1865234375 385.012695312 -50.1865234375 136.267578125 -71.6083984375 c 0,19,20
 115.5625 -73.068359375 115.5625 -73.068359375 110.921875 -68.5576171875 c 128,-1,21
 106.282226562 -64.0478515625 106.282226562 -64.0478515625 128.796875 -48.830078125 c 1,22,23
 477.985351562 151.657226562 477.985351562 151.657226562 575.551757812 326 c 0,24,25
 683 518 683 518 704.568359375 1286.43359375 c 0,0,1
EndSplineSet
EndChar
StartChar: arLamAlef.fina
Encoding: 65538 -1 63
Width: 872
VWidth: 0
Flags: W
LayerCount: 2
Fore
SplineSet
868.905273438 549.861328125 m 0,0,1
 887.118164062 471.709960938 887.118164062 471.709960938 808.950195312 475.825195312 c 1,2,-1
 772.752929688 497.888671875 l 1,3,4
 713.887695312 681.865234375 713.887695312 681.865234375 681.5078125 962.9765625 c 1,5,6
 600.3359375 553.193359375 600.3359375 553.193359375 457.591796875 437.522460938 c 0,7,8
 339.012695312 349.813476562 339.012695312 349.813476562 90.267578125 328.391601562 c 0,9,10
 69.5625 326.931640625 69.5625 326.931640625 64.921875 331.442382812 c 128,-1,11
 60.2822265625 335.952148438 60.2822265625 335.952148438 82.796875 351.169921875 c 0,12,13
 379.653320312 519.857421875 379.653320312 519.857421875 501.786132812 675.6328125 c 1,14,15
 443.431640625 953.544921875 443.431640625 953.544921875 190.287109375 1276.71679688 c 1,16,17
 111.69921875 1222.10253906 111.69921875 1222.10253906 29.2861328125 1355.48144531 c 0,18,19
 -48.4833984375 1475.53027344 -48.4833984375 1475.53027344 77.84765625 1521.58984375 c 0,20,21
 150.481445312 1548.07226562 150.481445312 1548.07226562 214.544921875 1469.35839844 c 0,22,23
 453.6171875 1217.87207031 453.6171875 1217.87207031 550.375 763.772460938 c 1,24,25
 644.034179688 1024.91015625 644.034179688 1024.91015625 658.568359375 1686.43359375 c 0,26,27
 659.813476562 1714.81054688 659.813476562 1714.81054688 671.737304688 1729.55859375 c 2,28,-1
 732.89453125 1816.05761719 l 2,29,30
 752.103515625 1841.3125 752.103515625 1841.3125 753.021484375 1806.66796875 c 0,31,32
 756.548828125 1688.20019531 756.548828125 1688.20019531 757.984375 1458.234375 c 128,-1,33
 759.419921875 1228.26855469 759.419921875 1228.26855469 763.926757812 1119.50097656 c 128,-1,34
 768.43359375 1010.73339844 768.43359375 1010.73339844 793.806640625 849.34375 c 128,-1,35
 819.1796875 687.954101562 819.1796875 687.954101562 868.905273438 549.861328125 c 0,0,1
EndSplineSet
EndChar
StartChar: arLamAlef.isol
Encoding: 65540 -1 65
Width: 780
VWidth: 0
Flags: W
LayerCount: 2
Fore
SplineSet
674.989257812 1049.98339844 m 0,0,1
 672.130859375 1069.22265625 672.130859375 1069.22265625 689.637695312 1089.00683594 c 0,2,3
 713.38671875 1122.72363281 713.38671875 1122.72363281 753.856445312 1169.64648438 c 0,4,5
 763.21875 1180.35742188 763.21875 1180.35742188 767.360351562 1176.64257812 c 128,-1,6
 771.501953125 1172.92773438 771.501953125 1172.92773438 773.03125 1153.06445312 c 0,7,8
 791.657226562 934.32421875 791.657226562 934.32421875 766.166992188 628.244140625 c 128,-1,9
 740.67578125 322.165039062 740.67578125 322.165039062 702.015625 238.166992188 c 1,10,11
 761.706054688 134.654296875 761.706054688 134.654296875 773.280273438 16.404296875 c 0,12,13
 775.315429688 -82.8076171875 775.315429688 -82.8076171875 713.44140625 -157.926757812 c 1,14,15
 605.25390625 -189.74609375 605.25390625 -189.74609375 348.841796875 -195.250976562 c 0,16,17
 315.637695312 -194.8515625 315.637695312 -194.8515625 322.284179688 -170.158203125 c 2,18,-1
 348.944335938 -51.6669921875 l 1,19,20
 552.357421875 100.989257812 552.357421875 100.989257812 616.659179688 201.809570312 c 1,21,22
 349.344726562 625.811523438 349.344726562 625.811523438 178.509765625 789.783203125 c 1,23,24
 108.705078125 760.423828125 108.705078125 760.423828125 20.27734375 897.083007812 c 0,25,26
 -25.912109375 976.302734375 -25.912109375 976.302734375 33.11328125 1045.85253906 c 128,-1,27
 92.138671875 1115.40234375 92.138671875 1115.40234375 176.532226562 1019.23632812 c 0,28,29
 399.6875 748.6875 399.6875 748.6875 654.671875 300.012695312 c 1,30,31
 706.784179688 531.00390625 706.784179688 531.00390625 674.989257812 1049.98339844 c 0,0,1
654.422851562 149.426757812 m 1,32,-1
 482.23046875 -33.6494140625 l 1,33,34
 656.5390625 -21.97265625 656.5390625 -21.97265625 733.260742188 5.06640625 c 1,35,36
 704.755859375 81.677734375 704.755859375 81.677734375 654.422851562 149.426757812 c 1,32,-1
EndSplineSet
EndChar
StartChar: arMeem.isol
Encoding: 65558 -1 60
Width: 872
VWidth: 0
GlyphClass: 2
Flags: W
AnchorPoint: "arMarkAbove" 599 555 basechar 0
AnchorPoint: "arMarkBelow" 760 -172 basechar 0
LayerCount: 2
Fore
SplineSet
547.505859375 134.573242188 m 1,0,1
 621.268554688 168.44140625 621.268554688 168.44140625 731.094726562 184.524414062 c 1,2,3
 693.499023438 265.793945312 693.499023438 265.793945312 614.9765625 262 c 0,4,5
 574.733398438 258.750976562 574.733398438 258.750976562 547.505859375 134.573242188 c 1,0,1
475.538085938 93.0302734375 m 1,6,7
 487.735351562 188.411132812 487.735351562 188.411132812 529.327148438 275.154296875 c 0,8,9
 571.625 361.923828125 571.625 361.923828125 620.381835938 379.12890625 c 0,10,11
 689.22265625 404.924804688 689.22265625 404.924804688 788.165039062 321.765625 c 0,12,13
 840.50390625 277.29296875 840.50390625 277.29296875 883.526367188 221.379882812 c 0,14,15
 896.428710938 204.873046875 896.428710938 204.873046875 894.278320312 190.544921875 c 0,16,17
 872.076171875 62.271484375 872.076171875 62.271484375 866.314453125 45.7158203125 c 0,18,19
 860.580078125 29.939453125 860.580078125 29.939453125 841.939453125 33.513671875 c 0,20,21
 629.053710938 31.2548828125 629.053710938 31.2548828125 493.965820312 -50.94921875 c 0,22,23
 483.220703125 -63.84765625 483.220703125 -63.84765625 487.520507812 -79.630859375 c 0,24,25
 493.63671875 -159.700195312 493.63671875 -159.700195312 550.595703125 -443.794921875 c 128,-1,26
 607.5546875 -727.890625 607.5546875 -727.890625 596.446289062 -811.4375 c 0,27,28
 591.86328125 -838.322265625 591.86328125 -838.322265625 575.275390625 -838.20703125 c 128,-1,29
 558.6875 -838.092773438 558.6875 -838.092773438 555.137695312 -811.84765625 c 0,30,31
 541.514648438 -669.860351562 541.514648438 -669.860351562 494.185546875 -484.162109375 c 0,32,33
 406.712890625 -147.16796875 406.712890625 -147.16796875 418.907226562 -63.283203125 c 0,34,35
 435.38671875 49.3046875 435.38671875 49.3046875 475.538085938 93.0302734375 c 1,6,7
EndSplineSet
EndChar
StartChar: arMeem.medi
Encoding: 65542 -1 14
Width: 861
VWidth: 0
Flags: W
LayerCount: 2
Fore
SplineSet
526.75390625 305.022460938 m 1,0,1
 613.337890625 577.202148438 613.337890625 577.202148438 725.509765625 558.147460938 c 128,-1,2
 837.680664062 539.092773438 837.680664062 539.092773438 860.694335938 219.197265625 c 0,3,4
 862.282226562 196.940429688 862.282226562 196.940429688 858.086914062 175.295898438 c 0,5,6
 786.751953125 -69.857421875 786.751953125 -69.857421875 535.206054688 218.274414062 c 1,7,8
 391.236328125 13.1337890625 391.236328125 13.1337890625 89.9375 116.62890625 c 0,9,10
 7.4326171875 147.205078125 7.4326171875 147.205078125 0.23046875 246.619140625 c 0,11,12
 -3.056640625 291.985351562 -3.056640625 291.985351562 40.572265625 278.450195312 c 0,13,14
 415.629882812 161.571289062 415.629882812 161.571289062 526.75390625 305.022460938 c 1,0,1
599.219726562 322.380859375 m 1,15,16
 736.099609375 179.216796875 736.099609375 179.216796875 792.754882812 214.758789062 c 1,17,18
 771.701171875 351.18359375 771.701171875 351.18359375 727.232421875 399.362304688 c 128,-1,19
 682.763671875 447.541015625 682.763671875 447.541015625 599.219726562 322.380859375 c 1,15,16
EndSplineSet
EndChar
StartChar: arMem.init
Encoding: 65571 -1 79
Width: 872
VWidth: 0
Flags: W
LayerCount: 2
Fore
SplineSet
457.188476562 198.022460938 m 1,0,1
 543.772460938 470.202148438 543.772460938 470.202148438 655.944335938 451.147460938 c 128,-1,2
 768.115234375 432.092773438 768.115234375 432.092773438 791.12890625 112.197265625 c 0,3,4
 792.716796875 89.9404296875 792.716796875 89.9404296875 788.521484375 68.2958984375 c 0,5,6
 717.186523438 -176.857421875 717.186523438 -176.857421875 465.640625 111.274414062 c 1,7,8
 321.670898438 -93.8662109375 321.670898438 -93.8662109375 20.3720703125 9.62890625 c 0,9,10
 -62.1328125 40.205078125 -62.1328125 40.205078125 -69.3349609375 139.619140625 c 0,11,12
 -72.6220703125 184.985351562 -72.6220703125 184.985351562 -28.9931640625 171.450195312 c 0,13,14
 346.064453125 54.5712890625 346.064453125 54.5712890625 457.188476562 198.022460938 c 1,0,1
529.654296875 215.380859375 m 1,15,16
 666.534179688 72.216796875 666.534179688 72.216796875 723.189453125 107.758789062 c 1,17,18
 702.135742188 244.18359375 702.135742188 244.18359375 657.666992188 292.362304688 c 128,-1,19
 613.198242188 340.541015625 613.198242188 340.541015625 529.654296875 215.380859375 c 1,15,16
EndSplineSet
EndChar
StartChar: arNoon.isol
Encoding: 65559 -1 67
Width: 872
VWidth: 0
Flags: W
LayerCount: 2
Back
SplineSet
474.85546875 632.063476562 m 1,23,-1
 563.009765625 538.884765625 l 1,24,-1
 466.505859375 445.6328125 l 1,25,-1
 378.99609375 537.463867188 l 1,26,-1
 474.85546875 632.063476562 l 1,23,-1
EndSplineSet
Fore
SplineSet
812.82421875 289.978515625 m 2,0,1
 822.556640625 309.033203125 822.556640625 309.033203125 829.904296875 290.65234375 c 0,2,3
 921.302734375 28.2763671875 921.302734375 28.2763671875 869.997070312 -155.802734375 c 1,4,5
 788.556640625 -370.622070312 788.556640625 -370.622070312 433.40625 -404.912109375 c 128,-1,6
 78.2548828125 -439.203125 78.2548828125 -439.203125 -2.537109375 -203.87890625 c 0,7,8
 -53.80078125 -25.4169921875 -53.80078125 -25.4169921875 83.9326171875 194.543945312 c 0,9,10
 106.6328125 210.219726562 106.6328125 210.219726562 129.38671875 171.282226562 c 0,11,12
 120.916992188 157.368164062 120.916992188 157.368164062 108.924804688 133.168945312 c 128,-1,13
 96.93359375 108.96875 96.93359375 108.96875 81.064453125 41.744140625 c 128,-1,14
 65.1953125 -25.48046875 65.1953125 -25.48046875 74.3818359375 -83.703125 c 0,15,16
 109.565429688 -247.220703125 109.565429688 -247.220703125 360.438476562 -251.306640625 c 128,-1,17
 611.311523438 -255.392578125 611.311523438 -255.392578125 812.311523438 -88.5078125 c 1,18,19
 787.903320312 50.19140625 787.903320312 50.19140625 739.274414062 157.498046875 c 0,20,21
 734.158203125 167.155273438 734.158203125 167.155273438 739.494140625 176.848632812 c 2,22,-1
 812.82421875 289.978515625 l 2,0,1
EndSplineSet
EndChar
StartChar: arQaf.init
Encoding: 65554 -1 32
Width: 842
VWidth: 0
Flags: W
LayerCount: 2
Fore
SplineSet
643.275390625 745.154296875 m 0,0,1
 772.45703125 737.797851562 772.45703125 737.797851562 819.569335938 519.055664062 c 128,-1,2
 866.681640625 300.313476562 866.681640625 300.313476562 817.97265625 204.407226562 c 0,3,4
 750.711914062 56.041015625 750.711914062 56.041015625 486.323242188 19.521484375 c 128,-1,5
 221.93359375 -16.9970703125 221.93359375 -16.9970703125 64.7060546875 55.857421875 c 0,6,7
 -26.81640625 103.84765625 -26.81640625 103.84765625 11.1142578125 206.086914062 c 0,8,9
 20.0576171875 230.190429688 20.0576171875 230.190429688 45.6630859375 217.869140625 c 0,10,11
 181.655273438 152.41796875 181.655273438 152.41796875 423.376953125 168.18359375 c 128,-1,12
 665.098632812 183.94921875 665.098632812 183.94921875 766.703125 255.706054688 c 1,13,14
 770.138671875 309.583007812 770.138671875 309.583007812 751.087890625 368.25 c 1,15,16
 490.5390625 249.91015625 490.5390625 249.91015625 472.767578125 447.41015625 c 0,17,18
 463.338867188 552.131835938 463.338867188 552.131835938 509.241210938 651.1484375 c 128,-1,19
 555.14453125 750.165039062 555.14453125 750.165039062 643.275390625 745.154296875 c 0,0,1
728.309570312 496.04296875 m 1,20,21
 688.99609375 631.600585938 688.99609375 631.600585938 615.498046875 624.196289062 c 128,-1,22
 542 616.79296875 542 616.79296875 525.692382812 497.874023438 c 1,23,24
 546.98046875 462.728515625 546.98046875 462.728515625 616.61328125 465.724609375 c 128,-1,25
 686.24609375 468.719726562 686.24609375 468.719726562 728.309570312 496.04296875 c 1,20,21
495.677734375 1101.30175781 m 1,26,-1
 583.846679688 1008.12304688 l 1,27,-1
 487.328125 914.856445312 l 1,28,-1
 399.833007812 1006.70214844 l 1,29,-1
 495.677734375 1101.30175781 l 1,26,-1
704.798828125 1108.50878906 m 1,30,-1
 792.953125 1015.33007812 l 1,31,-1
 696.44921875 922.078125 l 1,32,-1
 608.954101562 1013.90917969 l 1,33,-1
 704.798828125 1108.50878906 l 1,30,-1
EndSplineSet
EndChar
StartChar: arQaf.isol
Encoding: 65555 -1 63
Width: 872
VWidth: 0
GlyphClass: 2
Flags: W
AnchorPoint: "arMarkAbove" 699 589 basechar 0
AnchorPoint: "arMarkBelow" 688 -500 basechar 0
LayerCount: 2
Fore
SplineSet
689.44921875 408.572265625 m 0,0,1
 790.151367188 413.030273438 790.151367188 413.030273438 850.274414062 259.619140625 c 0,2,3
 912.316555312 101.30863798 912.316555312 101.30863798 892.051757812 -33.1220703125 c 0,4,5
 875.121416675 -145.432975496 875.121416675 -145.432975496 771.705078125 -238.048828125 c 0,6,7
 583.436526602 -406.65518827 583.436526602 -406.65518827 282.309570312 -378.211914062 c 0,8,9
 154.635742188 -366.15234375 154.635742188 -366.15234375 66.1875 -273.575195312 c 0,10,11
 -24.4953798931 -168.879417377 -24.4953798931 -168.879417377 -14.33984375 -27.1455078125 c 0,12,13
 -3.14152551769 109.247668105 -3.14152551769 109.247668105 42 198.5 c 0,14,15
 54.6273832451 223.466444696 54.6273832451 223.466444696 77.9955195695 217.200995786 c 128,-1,16
 101.363655894 210.935546875 101.363655894 210.935546875 91.9990234375 187.322265625 c 0,17,18
 -2.59127893187 -57.4315021299 -2.59127893187 -57.4315021299 147.603515625 -174.127929688 c 0,19,20
 278.657664889 -276.648915096 278.657664889 -276.648915096 514.770507812 -213.818359375 c 0,21,22
 756.610840004 -149.462673506 756.610840004 -149.462673506 834.102539062 10.4716796875 c 0,23,24
 837.576592709 17.641744737 837.576592709 17.641744737 823.189453125 47.0927734375 c 1,25,26
 682.932617188 -40.2255859375 682.932617188 -40.2255859375 595.408203125 4.5595703125 c 0,27,28
 511.651950945 47.4166049006 511.651950945 47.4166049006 532.344726562 179.631835938 c 0,29,30
 567.329689207 403.166126578 567.329689207 403.166126578 689.44921875 408.572265625 c 0,0,1
794.185546875 163.826171875 m 1,31,32
 752.74609375 261.732421875 752.74609375 261.732421875 693.87109375 279.303710938 c 128,-1,33
 634.99609375 296.874023438 634.99609375 296.874023438 586.3828125 174.329101562 c 0,34,35
 575.083984375 133.514648438 575.083984375 133.514648438 635.495117188 121.217773438 c 0,36,37
 727.806640625 102.427734375 727.806640625 102.427734375 794.185546875 163.826171875 c 1,31,32
EndSplineSet
EndChar
StartChar: arReh.isol
Encoding: 65549 -1 57
Width: 872
VWidth: 0
Flags: W
LayerCount: 2
Back
SplineSet
754.915039062 634.026367188 m 1,18,-1
 843.069335938 540.84765625 l 1,19,-1
 746.565429688 447.595703125 l 1,20,-1
 659.0703125 539.44140625 l 1,21,-1
 754.915039062 634.026367188 l 1,18,-1
EndSplineSet
Fore
SplineSet
783.391601562 311.599609375 m 2,0,1
 788.3046875 319.05859375 788.3046875 319.05859375 791.9609375 311.995117188 c 0,2,3
 924.139648438 98.4443359375 924.139648438 98.4443359375 866.541992188 -129.397460938 c 128,-1,4
 808.944335938 -357.23828125 808.944335938 -357.23828125 565.071289062 -478.668945312 c 1,5,6
 382.20703125 -550.311523438 382.20703125 -550.311523438 158.4453125 -453.942382812 c 0,7,8
 104.337890625 -430.469726562 104.337890625 -430.469726562 108.239257812 -406.862304688 c 128,-1,9
 112.141601562 -383.254882812 112.141601562 -383.254882812 167.073242188 -390.587890625 c 0,10,11
 368.129882812 -394.806640625 368.129882812 -394.806640625 559.361328125 -309.282226562 c 128,-1,12
 750.591796875 -223.758789062 750.591796875 -223.758789062 796.223632812 -108.25390625 c 1,13,14
 784.059570312 37.4677734375 784.059570312 37.4677734375 702.590820312 175.413085938 c 0,15,16
 699.311523438 180.924804688 699.311523438 180.924804688 703.235351562 187 c 2,17,-1
 783.391601562 311.599609375 l 2,0,1
EndSplineSet
EndChar
StartChar: arSad.init
Encoding: 65548 -1 21
Width: 1009
VWidth: 0
Flags: W
LayerCount: 2
Fore
SplineSet
823.443359375 478.186523438 m 0,0,1
 966.512695312 471.352539062 966.512695312 471.352539062 1003.12109375 356.150390625 c 0,2,3
 1032.02636719 253.115234375 1032.02636719 253.115234375 922.7890625 145.4765625 c 0,4,5
 762.541992188 -16.2890625 762.541992188 -16.2890625 500.079101562 35.84765625 c 0,6,7
 414.0234375 53.4248046875 414.0234375 53.4248046875 364.991210938 134.607421875 c 1,8,9
 211.102539062 -62.796875 211.102539062 -62.796875 43.94140625 60.0322265625 c 1,10,11
 -30.23046875 136.323242188 -30.23046875 136.323242188 20.796875 194.270507812 c 1,12,13
 229.57421875 68.63671875 229.57421875 68.63671875 382.466796875 285.3984375 c 0,14,15
 402.5234375 319.869140625 402.5234375 319.869140625 412.657226562 281.296875 c 2,16,-1
 455.4453125 201.887695312 l 1,17,18
 632.275390625 477.14453125 632.275390625 477.14453125 823.443359375 478.186523438 c 0,0,1
767.69140625 355.857421875 m 0,19,20
 637.966796875 354.370117188 637.966796875 354.370117188 495.81640625 172.561523438 c 1,21,22
 544.676757812 136.16015625 544.676757812 136.16015625 707.026367188 164.588867188 c 128,-1,23
 869.375976562 193.017578125 869.375976562 193.017578125 918.51171875 251.12109375 c 0,24,25
 930.287109375 264.517578125 930.287109375 264.517578125 913.609375 291.061523438 c 128,-1,26
 896.931640625 317.604492188 896.931640625 317.604492188 855.93359375 338.651367188 c 128,-1,27
 814.935546875 359.698242188 814.935546875 359.698242188 767.69140625 355.857421875 c 0,19,20
EndSplineSet
EndChar
StartChar: arSad.isol
Encoding: 65551 -1 53
Width: 872
VWidth: 0
GlyphClass: 2
Flags: W
AnchorPoint: "arMarkAbove" 390 700 basechar 0
AnchorPoint: "arMarkBelow" 631 -263 basechar 0
LayerCount: 2
Back
SplineSet
750.422851562 460.59375 m 0,0,1
 893.486328125 453.790039062 893.486328125 453.790039062 930.100585938 338.586914062 c 0,2,3
 959.001953125 235.533203125 959.001953125 235.533203125 849.768554688 127.8984375 c 0,4,5
 676.37109375 -47.130859375 676.37109375 -47.130859375 367.99609375 22.1953125 c 1,6,7
 348.3125 -206.337890625 348.3125 -206.337890625 279.446289062 -286.637695312 c 0,8,9
 156.125976562 -452.974609375 156.125976562 -452.974609375 -136.525390625 -449.1328125 c 128,-1,10
 -429.176757812 -445.291015625 -429.176757812 -445.291015625 -443.249023438 -170.900390625 c 0,11,12
 -452.366210938 6.708984375 -452.366210938 6.708984375 -368.952148438 161.311523438 c 0,13,14
 -351.931640625 192.836914062 -351.931640625 192.836914062 -330.998046875 183.114257812 c 128,-1,15
 -310.064453125 173.390625 -310.064453125 173.390625 -323.322265625 140.349609375 c 0,16,17
 -393.767578125 -4.9453125 -393.767578125 -4.9453125 -370.75390625 -134.1328125 c 0,18,19
 -321.654296875 -319.012695312 -321.654296875 -319.012695312 -90.732421875 -309.44140625 c 128,-1,20
 140.189453125 -299.87109375 140.189453125 -299.87109375 281.716796875 -149.77734375 c 1,21,22
 311.549804688 -34.7001953125 311.549804688 -34.7001953125 215.095703125 144.729492188 c 1,23,-1
 252.200195312 259.587890625 l 2,24,25
 258.190429688 281.8671875 258.190429688 281.8671875 272.356445312 259.250976562 c 0,26,27
 329.668945312 183.837890625 329.668945312 183.837890625 353.58203125 167.56640625 c 1,28,29
 541.063476562 459.452148438 541.063476562 459.452148438 750.422851562 460.59375 c 0,0,1
694.670898438 338.264648438 m 0,30,31
 565.233398438 336.764648438 565.233398438 336.764648438 415.266601562 144.905273438 c 1,32,33
 455.857421875 132.125 455.857421875 132.125 519.9140625 134.630859375 c 132,-1,34
 583.970703125 137.13671875 583.970703125 137.13671875 646.891601562 147.962890625 c 132,-1,35
 709.8125 158.790039062 709.8125 158.790039062 765.612304688 181.921875 c 132,-1,36
 821.412109375 205.0546875 821.412109375 205.0546875 845.491210938 233.528320312 c 0,37,38
 857.266601562 246.91796875 857.266601562 246.91796875 840.588867188 273.458984375 c 128,-1,39
 823.911132812 300 823.911132812 300 782.913085938 321.048828125 c 128,-1,40
 741.915039062 342.098632812 741.915039062 342.098632812 694.670898438 338.264648438 c 0,30,31
EndSplineSet
Fore
SplineSet
750.422851562 460.59375 m 0,0,1
 893.486328125 453.790039062 893.486328125 453.790039062 930.100585938 338.586914062 c 0,2,3
 959.001953125 235.533203125 959.001953125 235.533203125 849.768554688 127.8984375 c 0,4,5
 676.37109375 -47.130859375 676.37109375 -47.130859375 367.99609375 22.1953125 c 1,6,7
 348.3125 -206.337890625 348.3125 -206.337890625 279.446289062 -286.637695312 c 0,8,9
 156.125976562 -452.974609375 156.125976562 -452.974609375 -136.525390625 -449.1328125 c 128,-1,10
 -429.176757812 -445.291015625 -429.176757812 -445.291015625 -443.249023438 -170.900390625 c 0,11,12
 -452.366210938 6.708984375 -452.366210938 6.708984375 -368.952148438 161.311523438 c 0,13,14
 -351.931640625 192.836914062 -351.931640625 192.836914062 -330.998046875 183.114257812 c 128,-1,15
 -310.064453125 173.390625 -310.064453125 173.390625 -323.322265625 140.349609375 c 0,16,17
 -393.767578125 -4.9453125 -393.767578125 -4.9453125 -370.75390625 -134.1328125 c 0,18,19
 -321.654296875 -319.012695312 -321.654296875 -319.012695312 -90.732421875 -309.44140625 c 128,-1,20
 140.189453125 -299.87109375 140.189453125 -299.87109375 281.716796875 -149.77734375 c 1,21,22
 311.549804688 -34.7001953125 311.549804688 -34.7001953125 215.095703125 144.729492188 c 1,23,-1
 252.200195312 259.587890625 l 2,24,25
 258.190429688 281.8671875 258.190429688 281.8671875 272.356445312 259.250976562 c 0,26,27
 329.668945312 183.837890625 329.668945312 183.837890625 353.58203125 167.56640625 c 1,28,29
 541.063476562 459.452148438 541.063476562 459.452148438 750.422851562 460.59375 c 0,0,1
690 338 m 0,30,31
 559.726879971 329.416992188 559.726879971 329.416992188 415.266601562 144.905273438 c 1,32,33
 706 112 706 112 845.491210938 233.528320312 c 0,34,35
 858.747249442 244.561659576 858.747249442 244.561659576 840.588867188 273.458984375 c 0,36,37
 793.690675394 343.660197115 793.690675394 343.660197115 690 338 c 0,30,31
EndSplineSet
EndChar
StartChar: arSeen.init
Encoding: 65565 -1 73
Width: 872
VWidth: 0
GlyphClass: 2
Flags: W
AnchorPoint: "arMarkAbove" 495 476.749 basechar 0
AnchorPoint: "arMarkBelow" 504 -224 basechar 0
LayerCount: 2
Back
SplineSet
503.203125 741.616210938 m 1,41,-1
 591.357421875 648.4375 l 1,42,-1
 494.853515625 555.170898438 l 1,43,-1
 407.358398438 647.016601562 l 1,44,-1
 503.203125 741.616210938 l 1,41,-1
390.234375 563.740234375 m 1,45,-1
 478.388671875 470.561523438 l 1,46,-1
 381.884765625 377.309570312 l 1,47,-1
 294.389648438 469.155273438 l 1,48,-1
 390.234375 563.740234375 l 1,45,-1
599.35546875 570.947265625 m 1,49,-1
 687.509765625 477.768554688 l 1,50,-1
 591.005859375 384.516601562 l 1,51,-1
 503.510742188 476.362304688 l 1,52,-1
 599.35546875 570.947265625 l 1,49,-1
EndSplineSet
Fore
SplineSet
845.903320312 284.39453125 m 1,0,1
 879.833984375 193.455078125 879.833984375 193.455078125 852.517578125 96.1474609375 c 128,-1,2
 825.202148438 -1.16015625 825.202148438 -1.16015625 771.97265625 -2.6123046875 c 0,3,4
 658.950195312 -6.16015625 658.950195312 -6.16015625 591.079101562 41.0546875 c 1,5,6
 557.166015625 1.7041015625 557.166015625 1.7041015625 495.366210938 -4.53125 c 0,7,8
 329.120117188 -11.2021484375 329.120117188 -11.2021484375 295.415039062 79.8291015625 c 1,9,10
 197.061523438 -25.6640625 197.061523438 -25.6640625 78.9931640625 -7.1845703125 c 128,-1,11
 -39.0751953125 11.294921875 -39.0751953125 11.294921875 -70.0048828125 79.814453125 c 0,12,13
 -98.5068359375 160.178710938 -98.5068359375 160.178710938 -49.6142578125 161.391601562 c 1,14,15
 119.021484375 78.66796875 119.021484375 78.66796875 280.107421875 164.8046875 c 0,16,17
 294.428710938 173.719726562 294.428710938 173.719726562 322.337890625 212.725585938 c 0,18,19
 338.671875 235.553710938 338.671875 235.553710938 347.827148438 246.557617188 c 0,20,21
 359.921875 263.252929688 359.921875 263.252929688 380.388671875 256.602539062 c 128,-1,22
 400.856445312 249.952148438 400.856445312 249.952148438 389.560546875 226.459960938 c 2,23,-1
 359.765625 167.998046875 l 1,24,25
 405.337890625 138.122070312 405.337890625 138.122070312 486.729492188 137.749023438 c 128,-1,26
 568.120117188 137.375976562 568.120117188 137.375976562 585.864257812 163.618164062 c 0,27,28
 597.013671875 177.525390625 597.013671875 177.525390625 610.744140625 208.275390625 c 2,29,-1
 636.064453125 254.86328125 l 2,30,31
 647.850585938 272.173828125 647.850585938 272.173828125 664.141601562 264.194335938 c 128,-1,32
 680.432617188 256.21484375 680.432617188 256.21484375 673.30078125 232.260742188 c 2,33,-1
 653.510742188 159.23828125 l 1,34,35
 708.58984375 104.340820312 708.58984375 104.340820312 803.217773438 125.092773438 c 1,36,37
 804.602539062 141.258789062 804.602539062 141.258789062 791.6015625 196.38671875 c 0,38,39
 786.505859375 206.14453125 786.505859375 206.14453125 794.897460938 214.375 c 2,40,-1
 845.903320312 284.39453125 l 1,0,1
EndSplineSet
EndChar
StartChar: arSeen.isol
Encoding: 65550 -1 58
Width: 872
VWidth: 0
GlyphClass: 2
Flags: W
AnchorPoint: "arMarkAbove" 627 607 basechar 0
AnchorPoint: "arMarkBelow" 658 -242 basechar 0
LayerCount: 2
Fore
SplineSet
858.856445312 292.4296875 m 1,0,-1
 864.803710938 287.200195312 l 1,1,2
 887.666015625 202.732421875 887.666015625 202.732421875 857.547851562 111.904296875 c 128,-1,3
 827.428710938 21.076171875 827.428710938 21.076171875 779.4765625 22.810546875 c 0,4,5
 643.5234375 32.2314453125 643.5234375 32.2314453125 629.696289062 107.786132812 c 1,6,7
 577.19140625 37.0869140625 577.19140625 37.0869140625 502.357421875 29.51953125 c 0,8,9
 456.33984375 27.76171875 456.33984375 27.76171875 427.005859375 29.4609375 c 1,10,11
 407.065429688 -193.318359375 407.065429688 -193.318359375 340.331054688 -271.139648438 c 0,12,13
 217.083984375 -437.465820312 217.083984375 -437.465820312 -75.259765625 -433.590820312 c 128,-1,14
 -367.603515625 -429.715820312 -367.603515625 -429.715820312 -382.4375 -155.358398438 c 0,15,16
 -386.879882812 21.8427734375 -386.879882812 21.8427734375 -305.943359375 179.958984375 c 0,17,18
 -288.693359375 208.646484375 -288.693359375 208.646484375 -269.014648438 200.153320312 c 128,-1,19
 -249.3359375 191.661132812 -249.3359375 191.661132812 -260.166992188 160.901367188 c 0,20,21
 -303.276367188 38.5185546875 -303.276367188 38.5185546875 -310.059570312 -25.9541015625 c 0,22,23
 -337.016601562 -281.865234375 -337.016601562 -281.865234375 -70.654296875 -294.55859375 c 128,-1,24
 195.708007812 -307.251953125 195.708007812 -307.251953125 342.674804688 -134.323242188 c 1,25,26
 372.456054688 -19.3447265625 372.456054688 -19.3447265625 275.951171875 160.139648438 c 1,27,-1
 327.557617188 277.48828125 l 2,28,29
 333.5625 299.709960938 333.5625 299.709960938 347.743164062 277.107421875 c 0,30,31
 401.403320312 182.997070312 401.403320312 182.997070312 427.254882812 165.413085938 c 0,32,33
 519.018554688 140.357421875 519.018554688 140.357421875 591.668945312 185.671875 c 0,34,35
 603.153320312 199.997070312 603.153320312 199.997070312 619.509765625 228.453125 c 128,-1,36
 635.866210938 256.909179688 635.866210938 256.909179688 646.908203125 271.936523438 c 0,37,38
 658.68359375 289.245117188 658.68359375 289.245117188 675.05859375 281.196289062 c 128,-1,39
 691.434570312 273.146484375 691.434570312 273.146484375 684.291015625 249.202148438 c 2,40,-1
 659.227539062 181.423828125 l 1,41,42
 716.548828125 133.84765625 716.548828125 133.84765625 810.70703125 137.405273438 c 1,43,44
 813.96484375 171.009765625 813.96484375 171.009765625 800.21875 202.561523438 c 0,45,46
 795.240234375 212.392578125 795.240234375 212.392578125 803.6171875 220.623046875 c 2,47,-1
 854.608398438 290.73046875 l 1,48,-1
 858.856445312 292.4296875 l 1,0,-1
EndSplineSet
EndChar
StartChar: arSharta.kaf
Encoding: 65587 -1 134
Width: 872
VWidth: 0
GlyphClass: 4
Flags: W
LayerCount: 2
Fore
SplineSet
-112 3.8798828125 m 128,-1,1
 -112 46.935546875 -112 46.935546875 -79.18359375 77.408203125 c 128,-1,2
 -46.3681640625 107.879882812 -46.3681640625 107.879882812 0 107.879882812 c 128,-1,3
 46.3681640625 107.879882812 46.3681640625 107.879882812 79.18359375 77.408203125 c 128,-1,4
 112 46.935546875 112 46.935546875 112 3.8798828125 c 128,-1,5
 112 -39.17578125 112 -39.17578125 79.18359375 -69.6484375 c 128,-1,6
 46.3681640625 -100.120117188 46.3681640625 -100.120117188 0 -100.120117188 c 128,-1,7
 -46.3681640625 -100.120117188 -46.3681640625 -100.120117188 -79.18359375 -69.6484375 c 128,-1,0
 -112 -39.17578125 -112 -39.17578125 -112 3.8798828125 c 128,-1,1
EndSplineSet
EndChar
StartChar: arSheen.medi
Encoding: 65541 -1 2
Width: 945
VWidth: 0
Flags: W
LayerCount: 2
Fore
SplineSet
926.404296875 401.39453125 m 1,0,1
 960.334960938 310.455078125 960.334960938 310.455078125 933.018554688 213.147460938 c 128,-1,2
 905.703125 115.83984375 905.703125 115.83984375 852.473632812 114.387695312 c 0,3,4
 739.451171875 110.83984375 739.451171875 110.83984375 671.580078125 158.0546875 c 1,5,6
 637.666992188 118.704101562 637.666992188 118.704101562 575.8671875 112.46875 c 0,7,8
 409.62109375 105.797851562 409.62109375 105.797851562 375.916015625 196.829101562 c 1,9,10
 277.5625 91.3359375 277.5625 91.3359375 159.494140625 109.815429688 c 128,-1,11
 41.42578125 128.294921875 41.42578125 128.294921875 10.49609375 196.814453125 c 0,12,13
 -18.005859375 277.178710938 -18.005859375 277.178710938 30.88671875 278.391601562 c 1,14,15
 199.522460938 195.66796875 199.522460938 195.66796875 360.608398438 281.8046875 c 0,16,17
 374.9296875 290.719726562 374.9296875 290.719726562 402.838867188 329.725585938 c 0,18,19
 419.172851562 352.553710938 419.172851562 352.553710938 428.328125 363.557617188 c 0,20,21
 440.422851562 380.252929688 440.422851562 380.252929688 460.889648438 373.602539062 c 128,-1,22
 481.357421875 366.952148438 481.357421875 366.952148438 470.061523438 343.459960938 c 2,23,-1
 440.266601562 284.998046875 l 1,24,25
 485.838867188 255.122070312 485.838867188 255.122070312 567.23046875 254.749023438 c 128,-1,26
 648.62109375 254.375976562 648.62109375 254.375976562 666.365234375 280.618164062 c 0,27,28
 677.514648438 294.525390625 677.514648438 294.525390625 691.245117188 325.275390625 c 2,29,-1
 716.565429688 371.86328125 l 2,30,31
 728.3515625 389.173828125 728.3515625 389.173828125 744.642578125 381.194335938 c 128,-1,32
 760.93359375 373.21484375 760.93359375 373.21484375 753.801757812 349.260742188 c 2,33,-1
 734.01171875 276.23828125 l 1,34,35
 789.090820312 221.340820312 789.090820312 221.340820312 883.71875 242.092773438 c 1,36,37
 885.103515625 258.258789062 885.103515625 258.258789062 872.102539062 313.38671875 c 0,38,39
 867.006835938 323.14453125 867.006835938 323.14453125 875.3984375 331.375 c 2,40,-1
 926.404296875 401.39453125 l 1,0,1
583.704101562 858.616210938 m 1,41,-1
 671.858398438 765.4375 l 1,42,-1
 575.354492188 672.170898438 l 1,43,-1
 487.859375 764.016601562 l 1,44,-1
 583.704101562 858.616210938 l 1,41,-1
470.735351562 680.740234375 m 1,45,-1
 558.889648438 587.561523438 l 1,46,-1
 462.385742188 494.309570312 l 1,47,-1
 374.890625 586.155273438 l 1,48,-1
 470.735351562 680.740234375 l 1,45,-1
679.856445312 687.947265625 m 1,49,-1
 768.010742188 594.768554688 l 1,50,-1
 671.506835938 501.516601562 l 1,51,-1
 584.01171875 593.362304688 l 1,52,-1
 679.856445312 687.947265625 l 1,49,-1
EndSplineSet
EndChar
StartChar: arTah.init
Encoding: 65588 -1 161
Width: 872
VWidth: 0
GlyphClass: 2
Flags: W
AnchorPoint: "arMarkAbove" 537 775 basechar 0
AnchorPoint: "arMarkBelow" 448 -220 basechar 0
LayerCount: 2
Fore
SplineSet
178.366210938 1109 m 2,0,1
 246 1176.734375 l 2,2,3
 255.272453124 1186.02061825 255.272453124 1186.02061825 256.618164062 1167 c 0,4,5
 314.415638824 373 314.415638824 373 261.569335938 195.3203125 c 1,6,7
 517.561523438 478.108398438 517.561523438 478.108398438 740.646484375 478.09375 c 0,8,9
 824.298828125 478.087890625 824.298828125 478.087890625 869.000976562 398.140625 c 0,10,11
 914.439531511 316.877120588 914.439531511 316.877120588 874.9140625 230.59375 c 0,12,13
 758.472264974 -23.5965485419 758.472264974 -23.5965485419 326 -32.5830078125 c 0,14,15
 131.80859375 -36.6181640625 131.80859375 -36.6181640625 27 0.48046875 c 0,16,17
 -75.1816062285 37.2763671875 -75.1816062285 37.2763671875 -69.095703125 139.93359375 c 0,18,19
 -67.6884765625 163.829101562 -67.6884765625 163.829101562 -54.4384765625 156.904296875 c 0,20,21
 17.8784802509 123 17.8784802509 123 186.994140625 107.37109375 c 1,22,23
 201 125 201 125 209.508789062 134.353515625 c 1,24,25
 190.104401364 768.239473178 190.104401364 768.239473178 168.3203125 1082 c 0,26,27
 167.22070145 1097.83791475 167.22070145 1097.83791475 178.366210938 1109 c 2,0,1
691.134765625 351.047851562 m 0,28,29
 480.379882812 352.635742188 480.379882812 352.635742188 230.32421875 103.123046875 c 1,30,31
 655.395507812 97.572265625 655.395507812 97.572265625 808.629882812 245.037109375 c 1,32,33
 792.201171875 350.404296875 792.201171875 350.404296875 691.134765625 351.047851562 c 0,28,29
EndSplineSet
EndChar
StartChar: arTah.isol
Encoding: 65552 -1 60
Width: 872
VWidth: 0
GlyphClass: 2
Flags: W
AnchorPoint: "arMarkAbove" 537 745 basechar 0
AnchorPoint: "arMarkBelow" 448 -250 basechar 0
LayerCount: 2
Back
SplineSet
157.243164062 1217.40039062 m 1,0,1
 237.71484375 1301.52734375 237.71484375 1301.52734375 245.412109375 1303.95800781 c 1,2,3
 319.659179688 409.159179688 319.659179688 409.159179688 261.569335938 165.3203125 c 1,4,5
 519.639648438 450.404296875 519.639648438 450.404296875 740.646484375 448.09375 c 0,6,7
 823.014648438 450.384765625 823.014648438 450.384765625 869.297851562 367.611328125 c 128,-1,8
 915.580078125 284.836914062 915.580078125 284.836914062 874.9140625 200.59375 c 0,9,10
 725.032226562 -120.487304688 725.032226562 -120.487304688 -1.033203125 -34.6015625 c 0,11,12
 -32.396484375 -29.9091796875 -32.396484375 -29.9091796875 -135.59375 92.83984375 c 0,13,14
 -143.783203125 101.002929688 -143.783203125 101.002929688 -141.392578125 108.854492188 c 128,-1,15
 -139.001953125 116.705078125 -139.001953125 116.705078125 -126.438476562 113.904296875 c 0,16,17
 10.3525390625 84.611328125 10.3525390625 84.611328125 186.994140625 77.37109375 c 0,18,19
 191.169921875 82.666015625 191.169921875 82.666015625 198.985351562 91.859375 c 128,-1,20
 206.80078125 101.051757812 206.80078125 101.051757812 209.508789062 104.353515625 c 0,21,22
 188.046875 772.166992188 188.046875 772.166992188 157.243164062 1217.40039062 c 1,0,1
691.134765625 321.047851562 m 0,23,24
 480.379882812 322.635742188 480.379882812 322.635742188 230.32421875 73.123046875 c 1,25,26
 655.395507812 67.572265625 655.395507812 67.572265625 808.629882812 215.037109375 c 1,27,28
 792.201171875 320.404296875 792.201171875 320.404296875 691.134765625 321.047851562 c 0,23,24
EndSplineSet
Fore
SplineSet
178.366177167 1089 m 2,0,1
 246 1156.73425453 l 2,2,3
 255.272082751 1166.02010571 255.272082751 1166.02010571 256.618593354 1147 c 0,4,5
 315 353 315 353 261.569335938 165.3203125 c 1,6,7
 517.561043097 448.108112217 517.561043097 448.108112217 740.646484375 448.09375 c 0,8,9
 824.298693221 448.08836448 824.298693221 448.08836448 869.001366577 368.140259102 c 128,-1,10
 913.704039932 288.192153724 913.704039932 288.192153724 874.9140625 200.59375 c 0,11,12
 769.042357201 -37.3474850528 769.042357201 -37.3474850528 326 -52.5833107222 c 0,13,14
 165.513584974 -59.2023043475 165.513584974 -59.2023043475 -1.033203125 -34.6015625 c 1,15,16
 -32.5931947652 -28.4356461179 -32.5931947652 -28.4356461179 -135.59375 92.83984375 c 0,17,18
 -143.783203125 101.002929688 -143.783203125 101.002929688 -141.392578125 108.854492188 c 128,-1,19
 -139.001953125 116.705078125 -139.001953125 116.705078125 -126.438476562 113.904296875 c 0,20,21
 50.4133076756 80.0325567947 50.4133076756 80.0325567947 186.994140625 77.37109375 c 1,22,23
 201 95 201 95 209.508789062 104.353515625 c 1,24,25
 188.530236301 770.848221643 188.530236301 770.848221643 168.320569959 1062 c 0,26,27
 167.221178349 1077.8384516 167.221178349 1077.8384516 178.366177167 1089 c 2,0,1
691.134765625 321.047851562 m 0,28,29
 480.379882812 322.635742188 480.379882812 322.635742188 230.32421875 73.123046875 c 1,30,31
 655.395507812 67.572265625 655.395507812 67.572265625 808.629882812 215.037109375 c 1,32,33
 792.201171875 320.404296875 792.201171875 320.404296875 691.134765625 321.047851562 c 0,28,29
EndSplineSet
EndChar
StartChar: arTheh.init
Encoding: 65555 -1 33
Width: 882
VWidth: 0
Flags: W
LayerCount: 2
Fore
SplineSet
771.079101562 221.047851562 m 1,0,1
 761.086914062 315.793945312 761.086914062 315.793945312 708.969726562 399.260742188 c 1,2,-1
 773.159179688 500.569335938 l 2,3,4
 780.961914062 512.11328125 780.961914062 512.11328125 789.653320312 498.137695312 c 0,5,6
 838.489257812 416.44140625 838.489257812 416.44140625 841.956054688 298.72265625 c 128,-1,7
 845.421875 181.004882812 845.421875 181.004882812 815.639648438 153.240234375 c 0,8,9
 733.122070312 41.400390625 733.122070312 41.400390625 496.908203125 23.978515625 c 128,-1,10
 260.693359375 6.5576171875 260.693359375 6.5576171875 93.2958984375 69.3779296875 c 0,11,12
 2.5400390625 103.095703125 2.5400390625 103.095703125 0.03125 203.291992188 c 0,13,14
 -1.05859375 246.827148438 -1.05859375 246.827148438 35.625 233.791992188 c 0,15,16
 486.998046875 92.2138671875 486.998046875 92.2138671875 771.079101562 221.047851562 c 1,0,1
697.895507812 1017.39550781 m 1,17,-1
 786.049804688 924.216796875 l 1,18,-1
 689.545898438 830.950195312 l 1,19,-1
 602.05078125 922.795898438 l 1,20,-1
 697.895507812 1017.39550781 l 1,17,-1
584.926757812 839.51953125 m 1,21,-1
 673.081054688 746.340820312 l 1,22,-1
 576.577148438 653.088867188 l 1,23,-1
 489.08203125 744.934570312 l 1,24,-1
 584.926757812 839.51953125 l 1,21,-1
794.033203125 846.7265625 m 1,25,-1
 882.202148438 753.5625 l 1,26,-1
 785.698242188 660.295898438 l 1,27,-1
 698.188476562 752.141601562 l 1,28,-1
 794.033203125 846.7265625 l 1,25,-1
EndSplineSet
EndChar
StartChar: arWaw.isol
Encoding: 65561 -1 69
Width: 872
VWidth: 0
Flags: W
LayerCount: 2
Fore
SplineSet
508.918945312 172.009765625 m 0,0,1
 541.59375 426.649414062 541.59375 426.649414062 691.231445312 416.833007812 c 128,-1,2
 840.870117188 407.016601562 840.870117188 407.016601562 887.595703125 128.26953125 c 0,3,4
 930.401367188 -224.090820312 930.401367188 -224.090820312 704.036132812 -412.418945312 c 0,5,6
 562.637695312 -530.046875 562.637695312 -530.046875 201.916992188 -413.620117188 c 0,7,8
 173.770507812 -404.19921875 173.770507812 -404.19921875 178.19921875 -387.728515625 c 128,-1,9
 182.627929688 -371.258789062 182.627929688 -371.258789062 207.688476562 -372.868164062 c 0,10,11
 376.9453125 -382.91796875 376.9453125 -382.91796875 510.793945312 -341.637695312 c 0,12,13
 731.7578125 -273.509765625 731.7578125 -273.509765625 810.178710938 -34.6064453125 c 0,14,15
 827.6953125 55.68359375 827.6953125 55.68359375 797.068359375 104.758789062 c 1,16,17
 742.532226562 -27.462890625 742.532226562 -27.462890625 616.595703125 -1.7353515625 c 128,-1,18
 490.659179688 23.9921875 490.659179688 23.9921875 508.918945312 172.009765625 c 0,0,1
770.129882812 193.938476562 m 1,19,20
 736.509765625 275.103515625 736.509765625 275.103515625 672.069335938 279.767578125 c 128,-1,21
 607.629882812 284.430664062 607.629882812 284.430664062 579.568359375 199.680664062 c 0,22,23
 580.8984375 168.037109375 580.8984375 168.037109375 611.026367188 146.14453125 c 128,-1,24
 641.154296875 124.252929688 641.154296875 124.252929688 687.1875 133.6171875 c 128,-1,25
 733.221679688 142.981445312 733.221679688 142.981445312 770.129882812 193.938476562 c 1,19,20
EndSplineSet
EndChar
StartChar: arYeh.fina
Encoding: 65537 -1 62
Width: 2048
VWidth: 0
Flags: W
LayerCount: 2
Fore
SplineSet
1179.84960938 755.481445312 m 0,0,1
 1171.77246094 730.465820312 1171.77246094 730.465820312 1204.54589844 711.8203125 c 128,-1,2
 1237.31835938 693.173828125 1237.31835938 693.173828125 1315.04589844 669.40625 c 128,-1,3
 1392.77441406 645.638671875 1392.77441406 645.638671875 1424.65429688 632.346679688 c 0,4,5
 1546.23828125 576.852539062 1546.23828125 576.852539062 1413.63867188 400.857421875 c 1,6,7
 1220.79296875 185.15625 1220.79296875 185.15625 994.854492188 173.846679688 c 128,-1,8
 768.916015625 162.538085938 768.916015625 162.538085938 686.592773438 278.645507812 c 1,9,10
 447.71484375 497.181640625 447.71484375 497.181640625 678.858398438 870.369140625 c 0,11,12
 693.649414062 893.953125 693.649414062 893.953125 712.661132812 883.17578125 c 128,-1,13
 731.673828125 872.3984375 731.673828125 872.3984375 719.625 847.224609375 c 0,14,15
 575.161132812 569.890625 575.161132812 569.890625 748.16015625 403.0546875 c 0,16,17
 817.9296875 317.567382812 817.9296875 317.567382812 1012.70214844 328.955078125 c 128,-1,18
 1207.47460938 340.34375 1207.47460938 340.34375 1382.04199219 472.693359375 c 0,19,20
 1392.80273438 484.205078125 1392.80273438 484.205078125 1363.07910156 496.18359375 c 128,-1,21
 1333.35546875 508.161132812 1333.35546875 508.161132812 1283.70996094 523.15625 c 128,-1,22
 1234.06445312 538.151367188 1234.06445312 538.151367188 1185.12109375 558.477539062 c 128,-1,23
 1136.17871094 578.803710938 1136.17871094 578.803710938 1106.7578125 615.5234375 c 128,-1,24
 1077.33691406 652.243164062 1077.33691406 652.243164062 1089.80566406 699.158203125 c 0,25,26
 1169.72460938 902.872070312 1169.72460938 902.872070312 1327.7109375 919.133789062 c 0,27,28
 1354.74316406 919.235351562 1354.74316406 919.235351562 1362.92871094 888.7421875 c 128,-1,29
 1371.11328125 858.248046875 1371.11328125 858.248046875 1359.77832031 827.889648438 c 128,-1,30
 1348.44335938 797.532226562 1348.44335938 797.532226562 1328.15039062 798.005859375 c 0,31,32
 1222.23144531 793.875976562 1222.23144531 793.875976562 1179.84960938 755.481445312 c 0,0,1
1259.02441406 50.6865234375 m 1,33,-1
 1347.19335938 -42.4921875 l 1,34,-1
 1250.68945312 -135.744140625 l 1,35,-1
 1163.1796875 -43.9130859375 l 1,36,-1
 1259.02441406 50.6865234375 l 1,33,-1
1077.8671875 50.6865234375 m 1,37,-1
 1166.02148438 -42.4921875 l 1,38,-1
 1069.51757812 -135.744140625 l 1,39,-1
 982.0078125 -43.9130859375 l 1,40,-1
 1077.8671875 50.6865234375 l 1,37,-1
EndSplineSet
EndChar
StartChar: arYeh.fina2
Encoding: 65592 -1 132
Width: 872
GlyphClass: 2
Flags: W
AnchorPoint: "arMarkBelow" 702 -524 basechar 0
AnchorPoint: "arMarkAbove" 632 528 basechar 0
LayerCount: 2
Fore
SplineSet
575.299804688 224 m 24,0,1
 672.582135411 401.200195312 672.582135411 401.200195312 783.579101562 394.599609375 c 0,2,3
 883.809032596 388.070057136 883.809032596 388.070057136 867.057617188 226 c 0,4,5
 857.319324409 128.102914915 857.319324409 128.102914915 1015.42578125 117.694335938 c 0,6,7
 1055.00860458 115.088490794 1055.00860458 115.088490794 1057.5428922 57.8477462956 c 128,-1,8
 1060.07717982 0.607001797346 1060.07717982 0.607001797346 1026.91894531 0.2958984375 c 0,9,10
 810.956315849 -1.73034634376 810.956315849 -1.73034634376 806.900390625 95.2001953125 c 0,11,12
 799.950583814 255.204485254 799.950583814 255.204485254 724.806656939 246.789219804 c 128,-1,13
 649.662730064 238.373954354 649.662730064 238.373954354 566.5 107.200195312 c 0,14,15
 531.299804688 49.599609375 531.299804688 49.599609375 492.099609375 10 c 128,-1,16
 452.900390625 -29.599609375 452.900390625 -29.599609375 352.040039062 -71.7963867188 c 128,-1,17
 251.1796875 -113.993164062 251.1796875 -113.993164062 225.431640625 -130.11328125 c 0,18,19
 150.799804688 -176.836914062 150.799804688 -176.836914062 207.431640625 -218.849609375 c 0,20,21
 328.608398438 -305.34375 328.608398438 -305.34375 576.544433594 -306.013671875 c 128,-1,22
 824.48046875 -306.68359375 824.48046875 -306.68359375 945.7109375 -258.646484375 c 0,23,24
 983.379882812 -244.3984375 983.379882812 -244.3984375 979.45703125 -291.1796875 c 0,25,26
 971.754882812 -391.353515625 971.754882812 -391.353515625 878.505859375 -410.399414062 c 0,27,28
 665.03515625 -454 665.03515625 -454 438.2421875 -430.935546875 c 0,29,30
 301.092773438 -416.471679688 301.092773438 -416.471679688 193.181640625 -360.30078125 c 0,31,32
 122.416992188 -323.465820312 122.416992188 -323.465820312 112.181640625 -264.30078125 c 0,33,34
 89.9287109375 -130.412109375 89.9287109375 -130.412109375 220.099609375 -17.599609375 c 0,35,36
 256.099609375 13.599609375 256.099609375 13.599609375 357.700195312 54 c 128,-1,37
 459.299804688 94.400390625 459.299804688 94.400390625 497.951406078 123.957001744 c 128,-1,38
 536.603007469 153.513612863 536.603007469 153.513612863 575.299804688 224 c 24,0,1
EndSplineSet
EndChar
StartChar: arYeh.isol
Encoding: 65562 -1 64
Width: 872
VWidth: 0
GlyphClass: 2
Flags: W
AnchorPoint: "arMarkAbove" 351 483 basechar 0
AnchorPoint: "arMarkBelow" 346 -512 basechar 0
LayerCount: 2
Fore
SplineSet
617.296875 301.536132812 m 0,0,1
 612.192382812 285.725585938 612.192382812 285.725585938 624.602539062 272.15234375 c 0,2,3
 643.837261133 251.116447673 643.837261133 251.116447673 722.7265625 225.834960938 c 0,4,5
 833.461864881 190.346691192 833.461864881 190.346691192 862.1015625 178.401367188 c 0,6,7
 996.170195617 117.209466125 996.170195617 117.209466125 865.690429688 -53.087890625 c 0,8,9
 636.249807795 -352.545290484 636.249807795 -352.545290484 321.607421875 -352.258789062 c 0,10,11
 33.580382087 -351.987470246 33.580382087 -351.987470246 -17.64453125 -165.866210938 c 0,12,13
 -81.5983354774 63.7718077988 -81.5983354774 63.7718077988 48.6591796875 344.294921875 c 0,14,15
 63.332236849 375.894877415 63.332236849 375.894877415 89.44921875 363.612304688 c 0,16,17
 111.177757544 353.393575776 111.177757544 353.393575776 97.072265625 319.846679688 c 0,18,19
 26.3726073983 156.700840589 26.3726073983 156.700840589 33.8246916065 43.2560119629 c 0,20,21
 43.2247301217 -85.7113151439 43.2247301217 -85.7113151439 117.125 -139.028320312 c 0,22,23
 237.003239065 -224.001149053 237.003239065 -224.001149053 465.83984375 -184.70703125 c 0,24,25
 665.629943848 -150.743988037 665.629943848 -150.743988037 810.890625 12.5810546875 c 1,26,27
 776.409270842 37.4581344015 776.409270842 37.4581344015 634 85.5 c 0,28,29
 506.656913975 128.459277774 506.656913975 128.459277774 538.6640625 231.282226562 c 0,30,31
 594.812766152 412.384901237 594.812766152 412.384901237 701.982421875 529.360351562 c 0,32,33
 818.415623841 656.446942826 818.415623841 656.446942826 920.680664062 626.584960938 c 0,34,35
 994.168666094 605.126040265 994.168666094 605.126040265 907.368164062 505.129882812 c 0,36,37
 881.010742188 474.766601562 881.010742188 474.766601562 860.563476562 481.990234375 c 0,38,39
 786.948478463 511.880237237 786.948478463 511.880237237 685.161132812 406.88671875 c 0,40,41
 634.408128557 354.536170128 634.408128557 354.536170128 617.296875 301.536132812 c 0,0,1
EndSplineSet
EndChar
StartChar: arYeh.isol2
Encoding: 65589 -1 135
Width: 872
GlyphClass: 2
Flags: W
AnchorPoint: "arMarkBelow" 582 -214 basechar 0
AnchorPoint: "arMarkAbove" 512 838 basechar 0
LayerCount: 2
Fore
SplineSet
106.099609375 292.400390625 m 0,0,1
 142.099609375 323.599609375 142.099609375 323.599609375 243.700195312 364 c 128,-1,2
 345.299804688 404.400390625 345.299804688 404.400390625 386.099609375 435.599609375 c 128,-1,3
 426.900390625 466.799804688 426.900390625 466.799804688 461.299804688 534 c 0,4,5
 549.908203125 708.823242188 549.908203125 708.823242188 621.299804688 705.200195312 c 0,6,7
 717.40625 700.323242188 717.40625 700.323242188 658.5 406.799804688 c 0,8,9
 652.479492188 376.799804688 652.479492188 376.799804688 632.30078125 375.799804688 c 1,10,11
 606.900390625 375.799804688 606.900390625 375.799804688 606.900390625 405.200195312 c 0,12,13
 606.900390625 656.906747755 606.900390625 656.906747755 496.5 488.400390625 c 0,14,15
 487.700195312 474.799804688 487.700195312 474.799804688 452.5 417.200195312 c 128,-1,16
 417.299804688 359.599609375 417.299804688 359.599609375 378.099609375 320 c 128,-1,17
 338.900390625 280.400390625 338.900390625 280.400390625 238.039949897 238.203572234 c 128,-1,18
 137.179509168 196.006753844 137.179509168 196.006753844 111.431274414 179.886750562 c 0,19,20
 36.7995724996 133.162643405 36.7995724996 133.162643405 93.4312744141 91.1507793968 c 0,21,22
 214.608152267 4.65583226571 214.608152267 4.65583226571 462.54419905 3.98595454036 c 128,-1,23
 710.480245833 3.31607681502 710.480245833 3.31607681502 831.7109375 51.353515625 c 0,24,25
 869.379777713 65.6014706592 869.379777713 65.6014706592 865.45703125 18.8203125 c 0,26,27
 857.754882812 -81.353515625 857.754882812 -81.353515625 764.505859375 -100.399414062 c 0,28,29
 551.03515625 -144 551.03515625 -144 324.2421875 -120.935546875 c 0,30,31
 187.092569106 -106.471556988 187.092569106 -106.471556988 79.181640625 -50.30078125 c 0,32,33
 8.41733738694 -13.4659039732 8.41733738694 -13.4659039732 -1.818359375 45.69921875 c 0,34,35
 -24.0717633375 179.58802584 -24.0717633375 179.58802584 106.099609375 292.400390625 c 0,0,1
EndSplineSet
EndChar
StartChar: arYeh.medi
Encoding: 65545 -1 18
Width: 974
VWidth: 0
Flags: W
LayerCount: 2
Fore
SplineSet
863.987304688 -56.1201171875 m 0,0,1
 710.072265625 -60.0478515625 710.072265625 -60.0478515625 611.580078125 145.002929688 c 0,2,3
 569.008789062 243.9375 569.008789062 243.9375 532.581054688 140.754882812 c 0,4,5
 447.440429688 -75.1640625 447.440429688 -75.1640625 95.134765625 -59.826171875 c 0,6,7
 2.9736328125 -44.7822265625 2.9736328125 -44.7822265625 0.0263671875 74.3525390625 c 0,8,9
 -1.1318359375 121.168945312 -1.1318359375 121.168945312 49.1240234375 110.432617188 c 0,10,11
 155.743164062 86.05859375 155.743164062 86.05859375 303.1015625 114.180664062 c 128,-1,12
 450.459960938 142.302734375 450.459960938 142.302734375 493.71875 235.237304688 c 0,13,14
 568.6640625 407.572265625 568.6640625 407.572265625 660.315429688 234.446289062 c 0,15,16
 712.735351562 144.774414062 712.735351562 144.774414062 758.666992188 118.645507812 c 128,-1,17
 804.598632812 92.5166015625 804.598632812 92.5166015625 926.873046875 100.090820312 c 0,18,19
 1014.37890625 108.38671875 1014.37890625 108.38671875 941.034179688 0.7978515625 c 0,20,21
 905.0078125 -52.0478515625 905.0078125 -52.0478515625 863.987304688 -56.1201171875 c 0,0,1
552.092773438 -362.7265625 m 1,22,-1
 640.26171875 -455.905273438 l 1,23,-1
 543.743164062 -549.157226562 l 1,24,-1
 456.248046875 -457.326171875 l 1,25,-1
 552.092773438 -362.7265625 l 1,22,-1
761.213867188 -355.51953125 m 1,26,-1
 849.368164062 -448.698242188 l 1,27,-1
 752.864257812 -541.950195312 l 1,28,-1
 665.369140625 -450.104492188 l 1,29,-1
 761.213867188 -355.51953125 l 1,26,-1
EndSplineSet
EndChar
StartChar: arYehHamza.init
Encoding: 65544 -1 17
Width: 894
VWidth: 0
Flags: W
LayerCount: 2
Fore
SplineSet
770.567382812 83.875 m 1,0,1
 758.474609375 178.303710938 758.474609375 178.303710938 704.458984375 260.637695312 c 1,2,-1
 766.333984375 363.3671875 l 2,3,4
 773.8828125 375.0859375 773.8828125 375.0859375 782.88671875 361.301757812 c 0,5,6
 833.5546875 280.729492188 833.5546875 280.729492188 839.676757812 163.119140625 c 128,-1,7
 845.799804688 45.509765625 845.799804688 45.509765625 816.651367188 17.078125 c 0,8,9
 736.676757812 -96.59375 736.676757812 -96.59375 500.915039062 -119.336914062 c 128,-1,10
 265.154296875 -142.081054688 265.154296875 -142.081054688 96.3876953125 -83.05859375 c 0,11,12
 5.6552734375 -51.6669921875 5.6552734375 -51.6669921875 0.1494140625 48.1240234375 c 0,13,14
 -2.2900390625 92.3388671875 -2.2900390625 92.3388671875 35.0107421875 80.0224609375 c 0,15,16
 489.475585938 -51.341796875 489.475585938 -51.341796875 770.567382812 83.875 c 1,0,1
774.668945312 730.955078125 m 0,17,18
 693.967773438 788.494140625 693.967773438 788.494140625 648.501953125 734.133789062 c 0,19,20
 627.76171875 706.3515625 627.76171875 706.3515625 664.580078125 675.047851562 c 128,-1,21
 701.3984375 643.744140625 701.3984375 643.744140625 750.118164062 653.684570312 c 0,22,23
 803.143554688 676.985351562 803.143554688 676.985351562 880.899414062 720.129882812 c 0,24,25
 895.390625 726.467773438 895.390625 726.467773438 894.346679688 714.021484375 c 2,26,-1
 890.010742188 635.344726562 l 2,27,28
 889.719726562 625.1171875 889.719726562 625.1171875 880.767578125 619.65625 c 0,29,30
 780.166015625 568.751953125 780.166015625 568.751953125 563.819335938 440.901367188 c 0,31,32
 554.080078125 434.790039062 554.080078125 434.790039062 553.228515625 442.805664062 c 0,33,34
 547.887695312 528.701171875 547.887695312 528.701171875 612.833007812 573.3671875 c 1,35,36
 537.91796875 625.927734375 537.91796875 625.927734375 556.875976562 696.619140625 c 0,37,38
 673.69921875 959.545898438 673.69921875 959.545898438 804.170898438 828.396484375 c 0,39,40
 817.6015625 817.349609375 817.6015625 817.349609375 818.555664062 804.416992188 c 0,41,42
 812.955078125 767.67578125 812.955078125 767.67578125 800.819335938 745.836914062 c 128,-1,43
 788.68359375 723.999023438 788.68359375 723.999023438 774.668945312 730.955078125 c 0,17,18
EndSplineSet
EndChar
StartChar: uni06F4.urd
Encoding: 65594 -1 151
Width: 872
VWidth: 0
GlyphClass: 2
Flags: W
LayerCount: 2
Fore
SplineSet
179.538085938 883.090820312 m 0,0,1
 215.860267505 970.060172936 215.860267505 970.060172936 302.538085938 974.1328125 c 0,2,3
 418.508564277 979.974526417 418.508564277 979.974526417 524.538085938 826.090820312 c 1,4,5
 575.538391113 952.090576172 575.538391113 952.090576172 687.123046875 1045.86621094 c 0,6,7
 720.124625017 1073.60070469 720.124625017 1073.60070469 716.848632812 1042 c 2,8,-1
 698.848632812 923.5 l 2,9,10
 695.629605912 902.308072903 695.629605912 902.308072903 688.848632812 895.5 c 0,11,12
 572.451190111 778.637381018 572.451190111 778.637381018 530.784179688 703.090820312 c 0,13,14
 514.530273438 674.7421875 514.530273438 674.7421875 505.791015625 674.5 c 128,-1,15
 497.124207635 674.260086369 497.124207635 674.260086369 480.348632812 698 c 0,16,17
 356.135756868 873.779547226 356.135756868 873.779547226 267.85546875 782.385742188 c 1,18,19
 463.529296875 359.590820312 463.529296875 359.590820312 438.260742188 38.2255859375 c 0,20,21
 432.911132812 -31.6298828125 432.911132812 -31.6298828125 408.700195312 -33.1015625 c 0,22,23
 388.908203125 -34.3037109375 388.908203125 -34.3037109375 376.458984375 38.1962890625 c 0,24,25
 337.126953125 267.249023438 337.126953125 267.249023438 181.010742188 621.090820312 c 0,26,27
 123.282356755 751.933834689 123.282356755 751.933834689 179.538085938 883.090820312 c 0,0,1
EndSplineSet
EndChar
StartChar: uni06F7.urd
Encoding: 65595 -1 152
Width: 872
VWidth: 0
GlyphClass: 2
Flags: W
LayerCount: 2
Fore
SplineSet
585.2578125 -40.9697265625 m 0,0,1
 556.168945312 -59.9248046875 556.168945312 -59.9248046875 536.416992188 -53.2783203125 c 0,2,3
 442.779296875 -21.7734375 442.779296875 -21.7734375 166.247070312 -21.740234375 c 0,4,5
 120.834960938 -21.7353515625 120.834960938 -21.7353515625 133.697265625 18.2236328125 c 0,6,7
 317.268554688 580.603515625 317.268554688 580.603515625 232.133789062 845.30859375 c 0,8,9
 225.625 865.546875 225.625 865.546875 235.653320312 881.248046875 c 2,10,-1
 311.735351562 1000.36914062 l 2,11,12
 331.315429688 1031.02441406 331.315429688 1031.02441406 350.637695312 989.467773438 c 0,13,14
 435.18359375 807.640625 435.18359375 807.640625 379.020507812 540.155273438 c 0,15,16
 320.4765625 261.325195312 320.4765625 261.325195312 252.21484375 97.5888671875 c 1,17,18
 423.145507812 127 423.145507812 127 706.645507812 84.939453125 c 0,19,20
 776.865234375 74.333984375 776.865234375 74.333984375 704.145507812 30.53515625 c 0,21,22
 646.19140625 -4.37109375 646.19140625 -4.37109375 585.2578125 -40.9697265625 c 0,0,1
EndSplineSet
EndChar
